<?xml version="1.0" encoding="UTF-8" standalone="no"?>
<!DOCTYPE svg PUBLIC "-//W3C//DTD SVG 1.1//EN"
 "http://www.w3.org/Graphics/SVG/1.1/DTD/svg11.dtd">
<!-- Generated by graphviz version 2.40.1 (20161225.0304)
 -->
<!-- Title: %0 Pages: 1 -->
<svg width="5762pt" height="1260pt"
 viewBox="0.00 0.00 5762.00 1260.00" xmlns="http://www.w3.org/2000/svg" xmlns:xlink="http://www.w3.org/1999/xlink">
<g id="graph0" class="graph" transform="scale(1 1) rotate(0) translate(4 1256)">
<title>%0</title>
<polygon fill="#ffffff" stroke="transparent" points="-4,4 -4,-1256 5758,-1256 5758,4 -4,4"/>
<g id="clust1" class="cluster">
<title>cluster</title>
<polygon fill="none" stroke="#000000" points="2472,-1156 2472,-1244 2650,-1244 2650,-1156 2472,-1156"/>
</g>
<!-- ABotCharcoal -->
<g id="node1" class="node">
<title>ABotCharcoal</title>
<ellipse fill="#ffa500" stroke="#000000" cx="233" cy="-273" rx="79" ry="79"/>
<text text-anchor="middle" x="233" y="-268.5" font-family="Times,serif" font-size="15.00" fill="#000000">ABotCharcoal</text>
</g>
<!-- ABotIsotopes -->
<g id="node2" class="node">
<title>ABotIsotopes</title>
<ellipse fill="#ffa500" stroke="#000000" cx="1309" cy="-467" rx="79" ry="79"/>
<text text-anchor="middle" x="1309" y="-462.5" font-family="Times,serif" font-size="15.00" fill="#000000">ABotIsotopes</text>
</g>
<!-- ABotPhases -->
<g id="node3" class="node">
<title>ABotPhases</title>
<ellipse fill="#ffa500" stroke="#000000" cx="342" cy="-661" rx="79" ry="79"/>
<text text-anchor="middle" x="342" y="-656.5" font-family="Times,serif" font-size="15.00" fill="#000000">ABotPhases</text>
</g>
<!-- ABotPhases&#45;&gt;ABotIsotopes -->
<g id="edge2" class="edge">
<title>ABotPhases&#45;&gt;ABotIsotopes</title>
<path fill="none" stroke="#696969" d="M419.499,-645.4521C597.4005,-609.7614 1034.1043,-522.1497 1221.3875,-484.5769"/>
<polygon fill="#696969" stroke="#696969" points="1222.3522,-487.9531 1231.4684,-482.5544 1220.9752,-481.0899 1222.3522,-487.9531"/>
</g>
<!-- ABotSamples -->
<g id="node4" class="node">
<title>ABotSamples</title>
<ellipse fill="#ffa500" stroke="#000000" cx="233" cy="-467" rx="79" ry="79"/>
<text text-anchor="middle" x="233" y="-462.5" font-family="Times,serif" font-size="15.00" fill="#000000">ABotSamples</text>
</g>
<!-- ABotPhases&#45;&gt;ABotSamples -->
<g id="edge13" class="edge">
<title>ABotPhases&#45;&gt;ABotSamples</title>
<path fill="none" stroke="#696969" d="M303.2638,-592.0566C294.7214,-576.8528 285.6138,-560.6428 276.8841,-545.1057"/>
<polygon fill="#696969" stroke="#696969" points="279.7448,-543.0518 271.795,-536.048 273.6421,-546.4806 279.7448,-543.0518"/>
</g>
<!-- ABotSamples&#45;&gt;ABotCharcoal -->
<g id="edge1" class="edge">
<title>ABotSamples&#45;&gt;ABotCharcoal</title>
<path fill="none" stroke="#696969" d="M233,-387.813C233,-379.4705 233,-370.946 233,-362.4979"/>
<polygon fill="#696969" stroke="#696969" points="236.5001,-362.2482 233,-352.2483 229.5001,-362.2483 236.5001,-362.2482"/>
</g>
<!-- C14Ghosts -->
<g id="node5" class="node">
<title>C14Ghosts</title>
<ellipse fill="#ffa500" stroke="#000000" cx="2237" cy="-661" rx="79" ry="79"/>
<text text-anchor="middle" x="2237" y="-656.5" font-family="Times,serif" font-size="15.00" fill="#000000">C14Ghosts</text>
</g>
<!-- C14Samples -->
<g id="node6" class="node">
<title>C14Samples</title>
<ellipse fill="#ffa500" stroke="#000000" cx="1457" cy="-661" rx="79" ry="79"/>
<text text-anchor="middle" x="1457" y="-656.5" font-family="Times,serif" font-size="15.00" fill="#000000">C14Samples</text>
</g>
<!-- Citations -->
<g id="node7" class="node">
<title>Citations</title>
<ellipse fill="#ffa500" stroke="#000000" cx="3765" cy="-855" rx="79" ry="79"/>
<text text-anchor="middle" x="3765" y="-850.5" font-family="Times,serif" font-size="15.00" fill="#000000">Citations</text>
</g>
<!-- Citations&#45;&gt;ABotIsotopes -->
<g id="edge3" class="edge">
<title>Citations&#45;&gt;ABotIsotopes</title>
<path fill="none" stroke="#696969" d="M3813.0493,-792.1003C3853.6727,-730.8272 3897.3189,-638.84 3843,-582 3821.4203,-559.4187 1846.3474,-486.4859 1398.575,-470.2314"/>
<polygon fill="#696969" stroke="#696969" points="1398.4038,-466.723 1388.2835,-469.858 1398.15,-473.7184 1398.4038,-466.723"/>
</g>
<!-- Citations&#45;&gt;C14Ghosts -->
<g id="edge23" class="edge">
<title>Citations&#45;&gt;C14Ghosts</title>
<path fill="none" stroke="#696969" d="M3687.2562,-840.2601C3586.7217,-821.8484 3405.9993,-790.9521 3250,-776 3147.6136,-766.1865 2420.3176,-778.6502 2325,-740 2315.8674,-736.2968 2307.0658,-731.205 2298.7921,-725.3755"/>
<polygon fill="#696969" stroke="#696969" points="2300.8058,-722.511 2290.7016,-719.3241 2296.6131,-728.1165 2300.8058,-722.511"/>
</g>
<!-- Citations&#45;&gt;C14Samples -->
<g id="edge30" class="edge">
<title>Citations&#45;&gt;C14Samples</title>
<path fill="none" stroke="#696969" d="M3687.296,-839.825C3586.8037,-820.9511 3406.1261,-789.5641 3250,-776 3155.6122,-767.7997 1633.113,-774.8195 1545,-740 1535.8348,-736.3782 1527.0128,-731.3372 1518.7275,-725.5366"/>
<polygon fill="#696969" stroke="#696969" points="1520.7397,-722.6712 1510.6283,-719.5072 1516.5597,-728.2862 1520.7397,-722.6712"/>
</g>
<!-- FaunalIsotopeSequences -->
<g id="node9" class="node">
<title>FaunalIsotopeSequences</title>
<ellipse fill="#ffa500" stroke="#000000" cx="3672" cy="-467" rx="79" ry="79"/>
<text text-anchor="middle" x="3672" y="-462.5" font-family="Times,serif" font-size="15.00" fill="#000000">FaunalIsotopeSequences</text>
</g>
<!-- Citations&#45;&gt;FaunalIsotopeSequences -->
<g id="edge50" class="edge">
<title>Citations&#45;&gt;FaunalIsotopeSequences</title>
<path fill="none" stroke="#696969" d="M3827.7237,-806.7523C3846.9723,-788.2092 3865.7643,-765.3433 3876,-740 3902.2978,-674.8879 3911.4232,-642.633 3876,-582 3850.3967,-538.1754 3801.2517,-509.7455 3757.6142,-492.1175"/>
<polygon fill="#696969" stroke="#696969" points="3758.6972,-488.7832 3748.1089,-488.4098 3756.1533,-495.3046 3758.6972,-488.7832"/>
</g>
<!-- FaunalIsotopes -->
<g id="node10" class="node">
<title>FaunalIsotopes</title>
<ellipse fill="#ffa500" stroke="#000000" cx="3017" cy="-661" rx="79" ry="79"/>
<text text-anchor="middle" x="3017" y="-656.5" font-family="Times,serif" font-size="15.00" fill="#000000">FaunalIsotopes</text>
</g>
<!-- Citations&#45;&gt;FaunalIsotopes -->
<g id="edge52" class="edge">
<title>Citations&#45;&gt;FaunalIsotopes</title>
<path fill="none" stroke="#696969" d="M3686.6808,-842.6957C3579.7326,-824.9484 3382.5971,-788.8542 3219,-740 3178.7571,-727.9825 3135.2375,-711.4411 3098.9351,-696.5989"/>
<polygon fill="#696969" stroke="#696969" points="3099.9627,-693.237 3089.3834,-692.6651 3097.297,-699.7096 3099.9627,-693.237"/>
</g>
<!-- FaunalSpecies -->
<g id="node11" class="node">
<title>FaunalSpecies</title>
<ellipse fill="#ffa500" stroke="#000000" cx="2765" cy="-661" rx="79" ry="79"/>
<text text-anchor="middle" x="2765" y="-656.5" font-family="Times,serif" font-size="15.00" fill="#000000">FaunalSpecies</text>
</g>
<!-- Citations&#45;&gt;FaunalSpecies -->
<g id="edge57" class="edge">
<title>Citations&#45;&gt;FaunalSpecies</title>
<path fill="none" stroke="#696969" d="M3687.0533,-842.0361C3586.3032,-825.5113 3405.352,-796.6181 3250,-776 3107.6868,-757.1124 3066.9584,-779.7146 2929,-740 2899.7955,-731.5928 2869.3909,-718.3547 2842.8086,-705.1013"/>
<polygon fill="#696969" stroke="#696969" points="2844.0758,-701.8197 2833.5737,-700.4207 2840.9111,-708.0635 2844.0758,-701.8197"/>
</g>
<!-- GraveIndividuals -->
<g id="node13" class="node">
<title>GraveIndividuals</title>
<ellipse fill="#ffa500" stroke="#000000" cx="4097" cy="-467" rx="79" ry="79"/>
<text text-anchor="middle" x="4097" y="-462.5" font-family="Times,serif" font-size="15.00" fill="#000000">GraveIndividuals</text>
</g>
<!-- Citations&#45;&gt;GraveIndividuals -->
<g id="edge62" class="edge">
<title>Citations&#45;&gt;GraveIndividuals</title>
<path fill="none" stroke="#696969" d="M3816.6403,-794.9241C3826.7233,-787.4647 3837.6849,-780.79 3849,-776 3925.2783,-743.709 4164.3294,-801.3341 4220,-740 4267.1959,-688.0028 4249.0857,-645.9154 4220,-582 4219.0643,-579.9438 4190.5129,-554.9815 4161.107,-528.8382"/>
<polygon fill="#696969" stroke="#696969" points="4163.4247,-526.2156 4153.6288,-522.1794 4158.7696,-531.4434 4163.4247,-526.2156"/>
</g>
<!-- Citations&#45;&gt;GraveIndividuals -->
<g id="edge67" class="edge">
<title>Citations&#45;&gt;GraveIndividuals</title>
<path fill="none" stroke="#696969" d="M3824.289,-802.6722C3837.3924,-792.1659 3851.8807,-782.4005 3867,-776 3943.2783,-743.709 4182.3294,-801.3341 4238,-740 4285.1959,-688.0028 4267.0857,-645.9154 4238,-582 4236.9723,-579.7416 4202.628,-549.8483 4168.0379,-521.1089"/>
<polygon fill="#696969" stroke="#696969" points="4170.1348,-518.3011 4160.1999,-514.6205 4165.6711,-523.6933 4170.1348,-518.3011"/>
</g>
<!-- Graves -->
<g id="node14" class="node">
<title>Graves</title>
<ellipse fill="#ffa500" stroke="#000000" cx="3541" cy="-661" rx="79" ry="79"/>
<text text-anchor="middle" x="3541" y="-656.5" font-family="Times,serif" font-size="15.00" fill="#000000">Graves</text>
</g>
<!-- Citations&#45;&gt;Graves -->
<g id="edge68" class="edge">
<title>Citations&#45;&gt;Graves</title>
<path fill="none" stroke="#696969" d="M3705.2664,-803.2664C3675.5164,-777.5008 3639.4242,-746.2424 3608.6565,-719.5954"/>
<polygon fill="#696969" stroke="#696969" points="3610.8065,-716.8273 3600.956,-712.9262 3606.2238,-722.1187 3610.8065,-716.8273"/>
</g>
<!-- Health -->
<g id="node15" class="node">
<title>Health</title>
<ellipse fill="#ffa500" stroke="#000000" cx="4340" cy="-273" rx="79" ry="79"/>
<text text-anchor="middle" x="4340" y="-268.5" font-family="Times,serif" font-size="15.00" fill="#000000">Health</text>
</g>
<!-- Citations&#45;&gt;Health -->
<g id="edge71" class="edge">
<title>Citations&#45;&gt;Health</title>
<path fill="none" stroke="#696969" d="M3828.0973,-807.361C3847.3559,-795.1088 3869.2207,-783.3278 3891,-776 3976.218,-747.3278 4216.7283,-785.9704 4294,-740 4366.461,-696.8916 4338.4624,-640.6867 4399,-582 4420.7838,-560.8822 4442.2511,-572.5135 4457,-546 4491.1369,-484.6336 4484.1523,-452.7604 4457,-388 4447.2674,-364.787 4430.3112,-343.896 4412.2787,-326.4902"/>
<polygon fill="#696969" stroke="#696969" points="4414.2056,-323.5019 4404.5025,-319.2474 4409.4346,-328.6242 4414.2056,-323.5019"/>
</g>
<!-- HumanIsotopes -->
<g id="node16" class="node">
<title>HumanIsotopes</title>
<ellipse fill="#ffa500" stroke="#000000" cx="3788" cy="-273" rx="79" ry="79"/>
<text text-anchor="middle" x="3788" y="-268.5" font-family="Times,serif" font-size="15.00" fill="#000000">HumanIsotopes</text>
</g>
<!-- Citations&#45;&gt;HumanIsotopes -->
<g id="edge74" class="edge">
<title>Citations&#45;&gt;HumanIsotopes</title>
<path fill="none" stroke="#696969" d="M3825.4788,-803.5175C3836.2967,-794.3396 3847.4734,-784.8773 3858,-776 3877.0537,-759.9317 3890.4539,-762.5835 3901,-740 3961.8378,-609.7217 3889.5204,-443.1638 3835.7778,-348.2438"/>
<polygon fill="#696969" stroke="#696969" points="3838.8134,-346.5016 3830.8034,-339.5668 3832.7405,-349.983 3838.8134,-346.5016"/>
</g>
<!-- MaterialCulture -->
<g id="node18" class="node">
<title>MaterialCulture</title>
<ellipse fill="#ffa500" stroke="#000000" cx="4487" cy="-661" rx="79" ry="79"/>
<text text-anchor="middle" x="4487" y="-656.5" font-family="Times,serif" font-size="15.00" fill="#000000">MaterialCulture</text>
</g>
<!-- Citations&#45;&gt;MaterialCulture -->
<g id="edge78" class="edge">
<title>Citations&#45;&gt;MaterialCulture</title>
<path fill="none" stroke="#696969" d="M3828.0425,-807.1964C3847.2998,-794.9406 3869.1778,-783.1989 3891,-776 4087.8505,-711.0617 4158.5931,-803.2269 4356,-740 4375.8885,-733.63 4395.9186,-723.7198 4414.1268,-713.0452"/>
<polygon fill="#696969" stroke="#696969" points="4416.1494,-715.9128 4422.9105,-707.7557 4412.5382,-709.9162 4416.1494,-715.9128"/>
</g>
<!-- Monuments -->
<g id="node19" class="node">
<title>Monuments</title>
<ellipse fill="#ffa500" stroke="#000000" cx="2589" cy="-661" rx="79" ry="79"/>
<text text-anchor="middle" x="2589" y="-656.5" font-family="Times,serif" font-size="15.00" fill="#000000">Monuments</text>
</g>
<!-- Citations&#45;&gt;Monuments -->
<g id="edge95" class="edge">
<title>Citations&#45;&gt;Monuments</title>
<path fill="none" stroke="#696969" d="M3687.1969,-840.8427C3586.5993,-823.0501 3405.81,-792.8109 3250,-776 3123.1518,-762.3138 2794.6541,-789.3488 2677,-740 2667.9122,-736.1882 2659.1386,-731.0285 2650.8808,-725.1603"/>
<polygon fill="#696969" stroke="#696969" points="2652.8969,-722.2972 2642.8024,-719.0797 2648.6872,-727.89 2652.8969,-722.2972"/>
</g>
<!-- PhaseCitation -->
<g id="node20" class="node">
<title>PhaseCitation</title>
<ellipse fill="#ffa500" stroke="#000000" cx="2413" cy="-661" rx="79" ry="79"/>
<text text-anchor="middle" x="2413" y="-656.5" font-family="Times,serif" font-size="15.00" fill="#000000">PhaseCitation</text>
</g>
<!-- Citations&#45;&gt;PhaseCitation -->
<g id="edge97" class="edge">
<title>Citations&#45;&gt;PhaseCitation</title>
<path fill="none" stroke="#696969" d="M3687.2343,-840.4832C3586.6765,-822.3086 3405.9295,-791.6639 3250,-776 3084.1979,-759.3443 2655.1368,-803.3213 2501,-740 2491.8844,-736.2552 2483.0934,-731.1373 2474.8257,-725.293"/>
<polygon fill="#696969" stroke="#696969" points="2476.8404,-722.429 2466.7399,-719.2304 2472.6411,-728.0296 2476.8404,-722.429"/>
</g>
<!-- Rites -->
<g id="node24" class="node">
<title>Rites</title>
<ellipse fill="#ffa500" stroke="#000000" cx="4146" cy="-273" rx="79" ry="79"/>
<text text-anchor="middle" x="4146" y="-268.5" font-family="Times,serif" font-size="15.00" fill="#000000">Rites</text>
</g>
<!-- Citations&#45;&gt;Rites -->
<g id="edge110" class="edge">
<title>Citations&#45;&gt;Rites</title>
<path fill="none" stroke="#696969" d="M3828.1284,-807.4529C3847.3876,-795.2027 3869.2451,-783.3998 3891,-776 3970.257,-749.0414 4209.703,-801.9604 4266,-740 4313.2225,-688.027 4295.7125,-645.6265 4266,-582 4255.4539,-559.4165 4236.1317,-567.1847 4223,-546 4184.9479,-484.6124 4205.0632,-457.382 4185,-388 4182.1153,-378.0241 4178.8968,-367.6296 4175.5798,-357.3468"/>
<polygon fill="#696969" stroke="#696969" points="4178.8085,-355.9591 4172.377,-347.5397 4172.1544,-358.1322 4178.8085,-355.9591"/>
</g>
<!-- Strontium -->
<g id="node26" class="node">
<title>Strontium</title>
<ellipse fill="#ffa500" stroke="#000000" cx="3312" cy="-273" rx="79" ry="79"/>
<text text-anchor="middle" x="3312" y="-268.5" font-family="Times,serif" font-size="15.00" fill="#000000">Strontium</text>
</g>
<!-- Citations&#45;&gt;Strontium -->
<g id="edge113" class="edge">
<title>Citations&#45;&gt;Strontium</title>
<path fill="none" stroke="#696969" d="M3825.4788,-803.5175C3836.2967,-794.3396 3847.4734,-784.8773 3858,-776 3877.0537,-759.9317 3890.4539,-762.5835 3901,-740 3972.3082,-587.3005 3899.3977,-482.7114 3760,-388 3701.8128,-348.4657 3513.4168,-309.1779 3400.3043,-288.3183"/>
<polygon fill="#696969" stroke="#696969" points="3400.7411,-284.8402 3390.2741,-286.4805 3399.4795,-291.7255 3400.7411,-284.8402"/>
</g>
<!-- StrontiumEnvironment -->
<g id="node27" class="node">
<title>StrontiumEnvironment</title>
<ellipse fill="#ffa500" stroke="#000000" cx="3755" cy="-661" rx="79" ry="79"/>
<text text-anchor="middle" x="3755" y="-656.5" font-family="Times,serif" font-size="15.00" fill="#000000">StrontiumEnvironment</text>
</g>
<!-- Citations&#45;&gt;StrontiumEnvironment -->
<g id="edge117" class="edge">
<title>Citations&#45;&gt;StrontiumEnvironment</title>
<path fill="none" stroke="#696969" d="M3760.9326,-776.0928C3760.4934,-767.5727 3760.0443,-758.8596 3759.5994,-750.2291"/>
<polygon fill="#696969" stroke="#696969" points="3763.0902,-749.9586 3759.08,-740.1521 3756.0995,-750.319 3763.0902,-749.9586"/>
</g>
<!-- FaunalBiometrics -->
<g id="node8" class="node">
<title>FaunalBiometrics</title>
<ellipse fill="#ffa500" stroke="#000000" cx="1885" cy="-661" rx="79" ry="79"/>
<text text-anchor="middle" x="1885" y="-656.5" font-family="Times,serif" font-size="15.00" fill="#000000">FaunalBiometrics</text>
</g>
<!-- FaunalIsotopes&#45;&gt;FaunalIsotopeSequences -->
<g id="edge51" class="edge">
<title>FaunalIsotopes&#45;&gt;FaunalIsotopeSequences</title>
<path fill="none" stroke="#696969" d="M3088.9698,-627.8389C3126.9086,-611.653 3174.6615,-593.2849 3219,-582 3342.7286,-550.5089 3381.3912,-581.6025 3504,-546 3534.3112,-537.1984 3566.0163,-523.5702 3593.6134,-510.0961"/>
<polygon fill="#696969" stroke="#696969" points="3595.4012,-513.1164 3602.8069,-505.5397 3592.2927,-506.8444 3595.4012,-513.1164"/>
</g>
<!-- GraveConstruction -->
<g id="node12" class="node">
<title>GraveConstruction</title>
<ellipse fill="#ffa500" stroke="#000000" cx="3416" cy="-467" rx="79" ry="79"/>
<text text-anchor="middle" x="3416" y="-462.5" font-family="Times,serif" font-size="15.00" fill="#000000">GraveConstruction</text>
</g>
<!-- GraveIndividuals&#45;&gt;Health -->
<g id="edge72" class="edge">
<title>GraveIndividuals&#45;&gt;Health</title>
<path fill="none" stroke="#696969" d="M4158.9479,-417.5436C4192.9372,-390.4082 4235.1871,-356.6778 4270.3221,-328.6276"/>
<polygon fill="#696969" stroke="#696969" points="4272.5339,-331.3404 4278.1652,-322.366 4268.1665,-325.8699 4272.5339,-331.3404"/>
</g>
<!-- GraveIndividuals&#45;&gt;HumanIsotopes -->
<g id="edge75" class="edge">
<title>GraveIndividuals&#45;&gt;HumanIsotopes</title>
<path fill="none" stroke="#696969" d="M4034.2253,-418.7395C4019.914,-408.2774 4004.6134,-397.5068 3990,-388 3950.3855,-362.2287 3904.742,-335.9697 3866.8759,-315.0626"/>
<polygon fill="#696969" stroke="#696969" points="3868.3749,-311.8926 3857.926,-310.1405 3865.0017,-318.0262 3868.3749,-311.8926"/>
</g>
<!-- GraveIndividuals&#45;&gt;Rites -->
<g id="edge111" class="edge">
<title>GraveIndividuals&#45;&gt;Rites</title>
<path fill="none" stroke="#696969" d="M4116.3661,-390.3261C4118.9204,-380.2132 4121.5526,-369.7918 4124.1448,-359.5286"/>
<polygon fill="#696969" stroke="#696969" points="4127.5586,-360.3049 4126.6141,-349.7523 4120.7717,-358.5907 4127.5586,-360.3049"/>
</g>
<!-- GraveIndividuals&#45;&gt;Strontium -->
<g id="edge114" class="edge">
<title>GraveIndividuals&#45;&gt;Strontium</title>
<path fill="none" stroke="#696969" d="M4037.4379,-414.8086C4022.7731,-404.3638 4006.5134,-394.5907 3990,-388 3869.3744,-339.8564 3828.1738,-372.972 3700,-352 3596.069,-334.9947 3477.5792,-310.051 3399.1749,-292.76"/>
<polygon fill="#696969" stroke="#696969" points="3399.859,-289.3268 3389.3391,-290.5847 3398.3473,-296.1617 3399.859,-289.3268"/>
</g>
<!-- Graves&#45;&gt;GraveConstruction -->
<g id="edge60" class="edge">
<title>Graves&#45;&gt;GraveConstruction</title>
<path fill="none" stroke="#696969" d="M3498.157,-594.5076C3487.3842,-577.7883 3475.7439,-559.7226 3464.7076,-542.5942"/>
<polygon fill="#696969" stroke="#696969" points="3467.3576,-540.2451 3458.9991,-533.7346 3461.4733,-544.0365 3467.3576,-540.2451"/>
</g>
<!-- Graves&#45;&gt;GraveIndividuals -->
<g id="edge63" class="edge">
<title>Graves&#45;&gt;GraveIndividuals</title>
<path fill="none" stroke="#696969" d="M3597.8269,-605.7896C3609.1655,-596.8474 3621.4641,-588.4281 3634,-582 3650.8797,-573.3445 3880.7768,-518.1682 4010.1189,-487.4976"/>
<polygon fill="#696969" stroke="#696969" points="4011.0943,-490.8635 4020.0176,-485.1516 4009.4799,-484.0521 4011.0943,-490.8635"/>
</g>
<!-- Items -->
<g id="node17" class="node">
<title>Items</title>
<ellipse fill="#ffa500" stroke="#000000" cx="3162" cy="-855" rx="79" ry="79"/>
<text text-anchor="middle" x="3162" y="-850.5" font-family="Times,serif" font-size="15.00" fill="#000000">Items</text>
</g>
<!-- Items&#45;&gt;ABotIsotopes -->
<g id="edge4" class="edge">
<title>Items&#45;&gt;ABotIsotopes</title>
<path fill="none" stroke="#696969" d="M3150.5803,-776.8044C3138.7047,-700.7586 3119.8138,-594.8481 3105,-582 3039.8839,-525.5247 1752.214,-480.9539 1398.3218,-469.7355"/>
<polygon fill="#696969" stroke="#696969" points="1398.2317,-466.231 1388.1262,-469.4134 1398.0106,-473.2275 1398.2317,-466.231"/>
</g>
<!-- Items&#45;&gt;C14Ghosts -->
<g id="edge24" class="edge">
<title>Items&#45;&gt;C14Ghosts</title>
<path fill="none" stroke="#696969" d="M3089.3141,-823.9392C3045.4603,-806.6646 2987.9935,-786.5729 2935,-776 2801.8331,-749.4314 2450.3218,-792.2854 2325,-740 2315.905,-736.2055 2307.1268,-731.0565 2298.8665,-725.1945"/>
<polygon fill="#696969" stroke="#696969" points="2300.8822,-722.3312 2290.7862,-719.1186 2296.6752,-727.926 2300.8822,-722.3312"/>
</g>
<!-- Items&#45;&gt;C14Samples -->
<g id="edge31" class="edge">
<title>Items&#45;&gt;C14Samples</title>
<path fill="none" stroke="#696969" d="M3089.4368,-823.2966C3045.6259,-805.7977 2988.161,-785.6957 2935,-776 2783.0109,-748.2797 1688.5481,-797.1229 1545,-740 1535.8435,-736.3563 1527.0269,-731.3016 1518.7447,-725.4932"/>
<polygon fill="#696969" stroke="#696969" points="1520.7573,-722.6281 1510.6479,-719.4579 1516.5739,-728.2405 1520.7573,-722.6281"/>
</g>
<!-- Items&#45;&gt;FaunalIsotopes -->
<g id="edge53" class="edge">
<title>Items&#45;&gt;FaunalIsotopes</title>
<path fill="none" stroke="#696969" d="M3114.5216,-791.4771C3100.429,-772.6222 3084.8987,-751.8438 3070.4541,-732.5179"/>
<polygon fill="#696969" stroke="#696969" points="3073.1276,-730.2486 3064.3373,-724.3341 3067.5207,-734.4394 3073.1276,-730.2486"/>
</g>
<!-- Items&#45;&gt;GraveIndividuals -->
<g id="edge64" class="edge">
<title>Items&#45;&gt;GraveIndividuals</title>
<path fill="none" stroke="#696969" d="M3238.182,-833.1282C3297.1349,-816.5266 3380.94,-793.6292 3455,-776 3531.8246,-757.7127 3572.2725,-794.9403 3629,-740 3680.8812,-689.7533 3616.5797,-633.7125 3667,-582 3679.1791,-569.5087 3888.1995,-517.4032 4010.2548,-487.7967"/>
<polygon fill="#696969" stroke="#696969" points="4011.0793,-491.1983 4019.9741,-485.4421 4009.4311,-484.3951 4011.0793,-491.1983"/>
</g>
<!-- Items&#45;&gt;Graves -->
<g id="edge69" class="edge">
<title>Items&#45;&gt;Graves</title>
<path fill="none" stroke="#696969" d="M3238.096,-833.1542C3298.9257,-813.7987 3384.9722,-782.0793 3453,-740 3460.95,-735.0824 3468.8558,-729.4151 3476.4816,-723.4203"/>
<polygon fill="#696969" stroke="#696969" points="3479.0737,-725.8244 3484.6354,-716.8067 3474.6641,-720.3879 3479.0737,-725.8244"/>
</g>
<!-- Items&#45;&gt;HumanIsotopes -->
<g id="edge76" class="edge">
<title>Items&#45;&gt;HumanIsotopes</title>
<path fill="none" stroke="#696969" d="M3165.0432,-775.8834C3173.8314,-668.8084 3206.7629,-480.5362 3328,-388 3385.8605,-343.837 3583.2969,-305.8108 3699.8586,-286.5178"/>
<polygon fill="#696969" stroke="#696969" points="3700.5382,-289.9532 3709.8388,-284.8789 3699.4038,-283.0457 3700.5382,-289.9532"/>
</g>
<!-- Items&#45;&gt;MaterialCulture -->
<g id="edge79" class="edge">
<title>Items&#45;&gt;MaterialCulture</title>
<path fill="none" stroke="#696969" d="M3239.8094,-840.9009C3340.4137,-823.17 3521.2101,-792.9964 3677,-776 3921.4043,-749.3359 3987.1675,-784.2887 4229,-740 4288.4131,-729.1192 4353.4276,-709.158 4403.3287,-692.0237"/>
<polygon fill="#696969" stroke="#696969" points="4404.4792,-695.3293 4412.783,-688.7493 4402.1883,-688.7148 4404.4792,-695.3293"/>
</g>
<!-- Items&#45;&gt;Strontium -->
<g id="edge115" class="edge">
<title>Items&#45;&gt;Strontium</title>
<path fill="none" stroke="#696969" d="M3148.6862,-777.0983C3135.9815,-680.6999 3126.5483,-513.8982 3186,-388 3197.7184,-363.1846 3217.4615,-341.2668 3237.8849,-323.4001"/>
<polygon fill="#696969" stroke="#696969" points="3240.363,-325.888 3245.7304,-316.7533 3235.838,-320.547 3240.363,-325.888"/>
</g>
<!-- PhaseOrder -->
<g id="node21" class="node">
<title>PhaseOrder</title>
<ellipse fill="#ffa500" stroke="#000000" cx="2061" cy="-661" rx="79" ry="79"/>
<text text-anchor="middle" x="2061" y="-656.5" font-family="Times,serif" font-size="15.00" fill="#000000">PhaseOrder</text>
</g>
<!-- PhaseTypes -->
<g id="node22" class="node">
<title>PhaseTypes</title>
<ellipse fill="#ffa500" stroke="#000000" cx="1633" cy="-661" rx="79" ry="79"/>
<text text-anchor="middle" x="1633" y="-656.5" font-family="Times,serif" font-size="15.00" fill="#000000">PhaseTypes</text>
</g>
<!-- Phases -->
<g id="node23" class="node">
<title>Phases</title>
<ellipse fill="#ffa500" stroke="#000000" cx="2457" cy="-855" rx="79" ry="79"/>
<text text-anchor="middle" x="2457" y="-850.5" font-family="Times,serif" font-size="15.00" fill="#000000">Phases</text>
</g>
<!-- Phases&#45;&gt;ABotPhases -->
<g id="edge8" class="edge">
<title>Phases&#45;&gt;ABotPhases</title>
<path fill="none" stroke="#696969" d="M2403.3105,-796.6459C2392.776,-788.3172 2381.184,-780.9198 2369,-776 2265.9045,-734.3708 1480.0064,-746.265 1369,-740 1021.5635,-720.3914 608.9089,-684.9457 430.9431,-669.0701"/>
<polygon fill="#696969" stroke="#696969" points="431.1181,-665.5719 420.8463,-668.168 430.4951,-672.5441 431.1181,-665.5719"/>
</g>
<!-- Phases&#45;&gt;C14Ghosts -->
<g id="edge25" class="edge">
<title>Phases&#45;&gt;C14Ghosts</title>
<path fill="none" stroke="#696969" d="M2391.0919,-810.7221C2377.737,-799.2933 2363.9381,-787.0902 2351,-776 2331.8162,-759.5561 2326.1838,-756.4439 2307,-740 2302.9081,-736.4926 2298.7302,-732.8738 2294.5462,-729.2034"/>
<polygon fill="#696969" stroke="#696969" points="2296.8358,-726.5559 2287.0259,-722.5539 2292.199,-731.8 2296.8358,-726.5559"/>
</g>
<!-- Phases&#45;&gt;C14Ghosts -->
<g id="edge26" class="edge">
<title>Phases&#45;&gt;C14Ghosts</title>
<path fill="none" stroke="#696969" d="M2398.1595,-801.5061C2388.4824,-792.9024 2378.5087,-784.1506 2369,-776 2349.8162,-759.5561 2344.1838,-756.4439 2325,-740 2318.0171,-734.0144 2310.7833,-727.7046 2303.6005,-721.3673"/>
<polygon fill="#696969" stroke="#696969" points="2305.6469,-718.5044 2295.8405,-714.4939 2301.0056,-723.7445 2305.6469,-718.5044"/>
</g>
<!-- Phases&#45;&gt;C14Ghosts -->
<g id="edge27" class="edge">
<title>Phases&#45;&gt;C14Ghosts</title>
<path fill="none" stroke="#696969" d="M2406.9741,-793.4461C2400.3144,-787.5088 2393.547,-781.6119 2387,-776 2367.8162,-759.5561 2362.1838,-756.4439 2343,-740 2332.5889,-731.0759 2321.6204,-721.4311 2310.7743,-712.049"/>
<polygon fill="#696969" stroke="#696969" points="2312.7704,-709.1491 2302.9081,-705.2779 2308.2037,-714.4544 2312.7704,-709.1491"/>
</g>
<!-- Phases&#45;&gt;C14Samples -->
<g id="edge32" class="edge">
<title>Phases&#45;&gt;C14Samples</title>
<path fill="none" stroke="#696969" d="M2395.4647,-804.7628C2381.9297,-793.265 2366.9666,-782.5186 2351,-776 2181.3112,-706.7223 1696.6888,-809.2777 1527,-740 1521.3986,-737.7132 1515.9207,-734.906 1510.6396,-731.7286"/>
<polygon fill="#696969" stroke="#696969" points="1512.2379,-728.5923 1501.9505,-726.0582 1508.4123,-734.4545 1512.2379,-728.5923"/>
</g>
<!-- Phases&#45;&gt;C14Samples -->
<g id="edge33" class="edge">
<title>Phases&#45;&gt;C14Samples</title>
<path fill="none" stroke="#696969" d="M2403.2785,-796.7248C2392.7475,-788.3873 2381.165,-780.9665 2369,-776 2199.3112,-706.7223 1714.6888,-809.2777 1545,-740 1535.8762,-736.2751 1527.0801,-731.1697 1518.8096,-725.3324"/>
<polygon fill="#696969" stroke="#696969" points="1520.8238,-722.4682 1510.7215,-719.2752 1516.6277,-728.0711 1520.8238,-722.4682"/>
</g>
<!-- Phases&#45;&gt;C14Samples -->
<g id="edge34" class="edge">
<title>Phases&#45;&gt;C14Samples</title>
<path fill="none" stroke="#696969" d="M2412.0495,-789.9418C2404.1863,-784.4073 2395.7436,-779.5697 2387,-776 2217.3112,-706.7223 1732.6888,-809.2777 1563,-740 1550.0271,-734.7037 1537.7167,-726.6163 1526.2965,-717.6026"/>
<polygon fill="#696969" stroke="#696969" points="1528.4869,-714.8724 1518.5353,-711.2372 1524.0479,-720.2849 1528.4869,-714.8724"/>
</g>
<!-- Phases&#45;&gt;FaunalBiometrics -->
<g id="edge46" class="edge">
<title>Phases&#45;&gt;FaunalBiometrics</title>
<path fill="none" stroke="#696969" d="M2403.0759,-797.2048C2392.5675,-788.814 2381.045,-781.251 2369,-776 2206.9993,-705.3758 2135.0007,-810.6242 1973,-740 1963.9663,-736.0617 1955.2264,-730.823 1946.9879,-724.9099"/>
<polygon fill="#696969" stroke="#696969" points="1949.0071,-722.0486 1938.9241,-718.7952 1944.7775,-727.6263 1949.0071,-722.0486"/>
</g>
<!-- Phases&#45;&gt;FaunalIsotopes -->
<g id="edge54" class="edge">
<title>Phases&#45;&gt;FaunalIsotopes</title>
<path fill="none" stroke="#696969" d="M2531.8192,-829.0474C2579.8613,-812.8131 2643.7564,-792.0177 2701,-776 2767.8564,-757.2925 2787.5667,-763.2 2853,-740 2881.5102,-729.8914 2911.6269,-716.2983 2938.1634,-703.2393"/>
<polygon fill="#696969" stroke="#696969" points="2939.9971,-706.2364 2947.3919,-698.6491 2936.8796,-699.9689 2939.9971,-706.2364"/>
</g>
<!-- Phases&#45;&gt;FaunalSpecies -->
<g id="edge58" class="edge">
<title>Phases&#45;&gt;FaunalSpecies</title>
<path fill="none" stroke="#696969" d="M2529.1994,-822.9022C2573.4461,-801.8812 2630.3492,-772.3703 2677,-740 2684.6802,-734.6708 2692.4121,-728.7383 2699.9344,-722.5857"/>
<polygon fill="#696969" stroke="#696969" points="2702.5749,-724.9402 2708.0023,-715.8411 2698.0852,-719.5696 2702.5749,-724.9402"/>
</g>
<!-- Phases&#45;&gt;Graves -->
<g id="edge70" class="edge">
<title>Phases&#45;&gt;Graves</title>
<path fill="none" stroke="#696969" d="M2530.4366,-825.5723C2578.2027,-807.8528 2642.3041,-786.7098 2701,-776 2865.5852,-745.9693 3298.2411,-803.5596 3453,-740 3462.116,-736.2561 3470.9072,-731.1388 3479.175,-725.2947"/>
<polygon fill="#696969" stroke="#696969" points="3481.3595,-728.0314 3487.2609,-719.2324 3477.1604,-722.4307 3481.3595,-728.0314"/>
</g>
<!-- Phases&#45;&gt;MaterialCulture -->
<g id="edge80" class="edge">
<title>Phases&#45;&gt;MaterialCulture</title>
<path fill="none" stroke="#696969" d="M2529.2529,-822.5599C2575.0505,-805.2218 2635.922,-785.5302 2692,-776 3026.8487,-719.0938 3884.7072,-794.2285 4220,-740 4282.4712,-729.8962 4350.8552,-708.4569 4402.8378,-690.4592"/>
<polygon fill="#696969" stroke="#696969" points="4404.0586,-693.7403 4412.3481,-687.1422 4401.7533,-687.1308 4404.0586,-693.7403"/>
</g>
<!-- Phases&#45;&gt;MaterialCulture -->
<g id="edge81" class="edge">
<title>Phases&#45;&gt;MaterialCulture</title>
<path fill="none" stroke="#696969" d="M2531.3011,-827.5701C2581.0924,-809.1726 2648.4349,-786.4627 2710,-776 3044.8487,-719.0938 3902.7072,-794.2285 4238,-740 4294.8908,-730.7988 4356.6853,-712.1967 4404.533,-695.3541"/>
<polygon fill="#696969" stroke="#696969" points="4405.9733,-698.5565 4414.2175,-691.9018 4403.6228,-691.9629 4405.9733,-698.5565"/>
</g>
<!-- Phases&#45;&gt;Monuments -->
<g id="edge96" class="edge">
<title>Phases&#45;&gt;Monuments</title>
<path fill="none" stroke="#696969" d="M2501.5052,-789.5909C2513.4045,-772.1025 2526.3502,-753.0762 2538.5452,-735.1533"/>
<polygon fill="#696969" stroke="#696969" points="2541.7318,-736.6916 2544.4636,-726.455 2535.9444,-732.7538 2541.7318,-736.6916"/>
</g>
<!-- Phases&#45;&gt;PhaseCitation -->
<g id="edge98" class="edge">
<title>Phases&#45;&gt;PhaseCitation</title>
<path fill="none" stroke="#696969" d="M2439.4836,-777.7686C2437.2728,-768.0211 2434.9989,-757.9953 2432.7565,-748.1082"/>
<polygon fill="#696969" stroke="#696969" points="2436.1533,-747.2607 2430.528,-738.2826 2429.3266,-748.8091 2436.1533,-747.2607"/>
</g>
<!-- Phases&#45;&gt;PhaseOrder -->
<g id="edge99" class="edge">
<title>Phases&#45;&gt;PhaseOrder</title>
<path fill="none" stroke="#696969" d="M2391.6118,-810.5645C2376.2423,-797.4811 2359.5891,-784.4289 2342,-776 2252.6512,-733.1831 2211.3488,-782.8169 2122,-740 2118.1987,-738.1784 2114.4411,-736.1408 2110.7585,-733.9336"/>
<polygon fill="#696969" stroke="#696969" points="2112.6195,-730.9691 2102.317,-728.4976 2108.8296,-736.8544 2112.6195,-730.9691"/>
</g>
<!-- Phases&#45;&gt;PhaseOrder -->
<g id="edge100" class="edge">
<title>Phases&#45;&gt;PhaseOrder</title>
<path fill="none" stroke="#696969" d="M2398.3145,-801.537C2386.479,-791.6838 2373.5158,-782.4769 2360,-776 2270.6512,-733.1831 2229.3488,-782.8169 2140,-740 2132.9702,-736.6312 2126.0898,-732.5239 2119.4986,-727.9713"/>
<polygon fill="#696969" stroke="#696969" points="2121.4533,-725.0648 2111.3149,-721.9885 2117.3221,-730.7157 2121.4533,-725.0648"/>
</g>
<!-- Phases&#45;&gt;PhaseOrder -->
<g id="edge101" class="edge">
<title>Phases&#45;&gt;PhaseOrder</title>
<path fill="none" stroke="#696969" d="M2406.6851,-794.0115C2397.6936,-787.0761 2387.998,-780.7911 2378,-776 2288.6512,-733.1831 2247.3488,-782.8169 2158,-740 2147.4408,-734.9399 2137.2188,-728.2136 2127.6084,-720.8146"/>
<polygon fill="#696969" stroke="#696969" points="2129.6771,-717.9871 2119.6855,-714.463 2125.2986,-723.4488 2129.6771,-717.9871"/>
</g>
<!-- Phases&#45;&gt;PhaseOrder -->
<g id="edge102" class="edge">
<title>Phases&#45;&gt;PhaseOrder</title>
<path fill="none" stroke="#696969" d="M2415.683,-787.5024C2409.3777,-783.1594 2402.7579,-779.2385 2396,-776 2306.6512,-733.1831 2265.3488,-782.8169 2176,-740 2161.4341,-733.0198 2147.5099,-722.869 2134.4251,-712.1556"/>
<polygon fill="#696969" stroke="#696969" points="2136.3049,-709.1651 2126.3882,-705.4355 2131.8147,-714.5352 2136.3049,-709.1651"/>
</g>
<!-- Phases&#45;&gt;PhaseTypes -->
<g id="edge103" class="edge">
<title>Phases&#45;&gt;PhaseTypes</title>
<path fill="none" stroke="#696969" d="M2403.1971,-796.9214C2392.6752,-788.5621 2381.1168,-781.083 2369,-776 2251.5532,-726.7306 1920.2158,-772.2351 1797,-740 1767.599,-732.3082 1737.1455,-719.2481 1710.5787,-705.938"/>
<polygon fill="#696969" stroke="#696969" points="1711.8499,-702.6573 1701.3519,-701.228 1708.6673,-708.892 1711.8499,-702.6573"/>
</g>
<!-- Sites -->
<g id="node25" class="node">
<title>Sites</title>
<ellipse fill="#ffa500" stroke="#000000" cx="2354" cy="-1049" rx="79" ry="79"/>
<text text-anchor="middle" x="2354" y="-1044.5" font-family="Times,serif" font-size="15.00" fill="#000000">Sites</text>
</g>
<!-- Sites&#45;&gt;C14Samples -->
<g id="edge35" class="edge">
<title>Sites&#45;&gt;C14Samples</title>
<path fill="none" stroke="#696969" d="M2300.2805,-990.7199C2289.7493,-982.383 2278.1662,-974.9637 2266,-970 2180.2224,-935.0037 1497.0779,-1000.907 1433,-934 1385.2844,-884.1777 1399.3179,-803.2176 1420.4602,-742.3735"/>
<polygon fill="#696969" stroke="#696969" points="1423.8164,-743.3835 1423.9061,-732.789 1417.2292,-741.0151 1423.8164,-743.3835"/>
</g>
<!-- Sites&#45;&gt;Phases -->
<g id="edge105" class="edge">
<title>Sites&#45;&gt;Phases</title>
<path fill="none" stroke="#696969" d="M2391.1854,-978.9615C2398.9159,-964.4011 2407.1138,-948.9603 2415.0035,-934.1001"/>
<polygon fill="#696969" stroke="#696969" points="2418.2712,-935.4093 2419.8692,-924.9356 2412.0885,-932.1267 2418.2712,-935.4093"/>
</g>
<!-- Sites&#45;&gt;StrontiumEnvironment -->
<g id="edge118" class="edge">
<title>Sites&#45;&gt;StrontiumEnvironment</title>
<path fill="none" stroke="#696969" d="M2407.7251,-990.7336C2418.2557,-982.3952 2429.8371,-974.9718 2442,-970 2608.3708,-901.993 3075.5166,-977.1247 3250,-934 3446.4833,-885.4379 3491.8359,-849.5817 3662,-740 3671.0002,-734.2041 3680.0708,-727.6183 3688.8333,-720.7802"/>
<polygon fill="#696969" stroke="#696969" points="3691.144,-723.4143 3696.7831,-714.4448 3686.7814,-717.94 3691.144,-723.4143"/>
</g>
<!-- StrontiumSequences -->
<g id="node28" class="node">
<title>StrontiumSequences</title>
<ellipse fill="#ffa500" stroke="#000000" cx="3312" cy="-79" rx="79" ry="79"/>
<text text-anchor="middle" x="3312" y="-74.5" font-family="Times,serif" font-size="15.00" fill="#000000">StrontiumSequences</text>
</g>
<!-- Strontium&#45;&gt;StrontiumSequences -->
<g id="edge119" class="edge">
<title>Strontium&#45;&gt;StrontiumSequences</title>
<path fill="none" stroke="#696969" d="M3312,-193.813C3312,-185.4705 3312,-176.946 3312,-168.4979"/>
<polygon fill="#696969" stroke="#696969" points="3315.5001,-168.2482 3312,-158.2483 3308.5001,-168.2483 3315.5001,-168.2482"/>
</g>
<!-- zoptions_ABotAnatomy -->
<g id="node29" class="node">
<title>zoptions_ABotAnatomy</title>
<polygon fill="#add8e6" stroke="#000000" points="216,-873 0,-873 0,-837 216,-837 216,-873"/>
<text text-anchor="middle" x="108" y="-850.5" font-family="Times,serif" font-size="15.00" fill="#000000">zoptions_ABotAnatomy</text>
</g>
<!-- zoptions_ABotAnatomy&#45;&gt;ABotIsotopes -->
<g id="edge5" class="edge">
<title>zoptions_ABotAnatomy&#45;&gt;ABotIsotopes</title>
<path fill="none" stroke="#696969" d="M127.6785,-836.9029C149.6837,-815.6639 184.9848,-778.4365 206,-740 241.2079,-675.6053 197.5011,-628.8417 254,-582 327.8035,-520.8116 978.9704,-483.1022 1219.8889,-471.1401"/>
<polygon fill="#696969" stroke="#696969" points="1220.198,-474.6292 1230.0134,-470.6406 1219.853,-467.6377 1220.198,-474.6292"/>
</g>
<!-- zoptions_ABotAnatomy&#45;&gt;ABotSamples -->
<g id="edge14" class="edge">
<title>zoptions_ABotAnatomy&#45;&gt;ABotSamples</title>
<path fill="none" stroke="#696969" d="M104.6488,-836.8064C109.5802,-785.6027 154.6608,-637.9843 191.0731,-545.4804"/>
<polygon fill="#696969" stroke="#696969" points="194.3403,-546.736 194.792,-536.1508 187.8379,-544.144 194.3403,-546.736"/>
</g>
<!-- zoptions_ABotAnatomy&#45;&gt;ABotSamples -->
<g id="edge15" class="edge">
<title>zoptions_ABotAnatomy&#45;&gt;ABotSamples</title>
<path fill="none" stroke="#696969" d="M110.7905,-836.8064C123.2224,-786.4502 168.6257,-642.845 200.5674,-550.1187"/>
<polygon fill="#696969" stroke="#696969" points="203.943,-551.0664 203.9059,-540.4717 197.3279,-548.7771 203.943,-551.0664"/>
</g>
<!-- zoptions_ABotAnatomy&#45;&gt;ABotSamples -->
<g id="edge16" class="edge">
<title>zoptions_ABotAnatomy&#45;&gt;ABotSamples</title>
<path fill="none" stroke="#696969" d="M116.9322,-836.8064C136.7162,-787.029 182.9923,-646.1339 210.9104,-553.3361"/>
<polygon fill="#696969" stroke="#696969" points="214.2889,-554.2545 213.8034,-543.6708 207.5828,-552.2472 214.2889,-554.2545"/>
</g>
<!-- zoptions_ABotAnatomy&#45;&gt;ABotSamples -->
<g id="edge17" class="edge">
<title>zoptions_ABotAnatomy&#45;&gt;ABotSamples</title>
<path fill="none" stroke="#696969" d="M123.0739,-836.8064C150.1272,-787.4408 197.605,-648.4584 221.7606,-555.6485"/>
<polygon fill="#696969" stroke="#696969" points="225.2196,-556.2491 224.3061,-545.6938 218.4378,-554.515 225.2196,-556.2491"/>
</g>
<!-- zoptions_ABotAnatomy&#45;&gt;C14Samples -->
<g id="edge36" class="edge">
<title>zoptions_ABotAnatomy&#45;&gt;C14Samples</title>
<path fill="none" stroke="#696969" d="M127.8071,-836.9695C149.7804,-818.1511 187.1527,-789.5366 225,-776 331.9128,-737.7612 1102.5521,-684.2447 1367.6774,-666.7675"/>
<polygon fill="#696969" stroke="#696969" points="1368.2813,-670.2354 1378.0299,-666.0865 1367.8217,-663.2505 1368.2813,-670.2354"/>
</g>
<!-- zoptions_Preservation -->
<g id="node30" class="node">
<title>zoptions_Preservation</title>
<polygon fill="#add8e6" stroke="#000000" points="684,-873 468,-873 468,-837 684,-837 684,-873"/>
<text text-anchor="middle" x="576" y="-850.5" font-family="Times,serif" font-size="15.00" fill="#000000">zoptions_Preservation</text>
</g>
<!-- zoptions_Preservation&#45;&gt;ABotIsotopes -->
<g id="edge6" class="edge">
<title>zoptions_Preservation&#45;&gt;ABotIsotopes</title>
<path fill="none" stroke="#696969" d="M600.9536,-836.7718C624.2364,-820.0997 660.2113,-795.1859 693,-776 878.9394,-667.1995 1108.0567,-558.5847 1227.627,-503.719"/>
<polygon fill="#696969" stroke="#696969" points="1229.1128,-506.8883 1236.7465,-499.5413 1226.1973,-500.5243 1229.1128,-506.8883"/>
</g>
<!-- zoptions_Preservation&#45;&gt;ABotSamples -->
<g id="edge18" class="edge">
<title>zoptions_Preservation&#45;&gt;ABotSamples</title>
<path fill="none" stroke="#696969" d="M565.9478,-836.9509C545.5453,-789.921 497.8181,-661.7376 421,-582 390.6046,-550.4494 349.6917,-524.692 313.7534,-505.6127"/>
<polygon fill="#696969" stroke="#696969" points="315.218,-502.4292 304.7332,-500.9065 311.98,-508.6353 315.218,-502.4292"/>
</g>
<!-- zoptions_Preservation&#45;&gt;ABotSamples -->
<g id="edge19" class="edge">
<title>zoptions_Preservation&#45;&gt;ABotSamples</title>
<path fill="none" stroke="#696969" d="M574.5689,-836.9509C563.5453,-789.921 515.8181,-661.7376 439,-582 404.7708,-546.4699 357.2038,-518.2867 316.3489,-498.7138"/>
<polygon fill="#696969" stroke="#696969" points="317.7428,-495.5017 307.2032,-494.4212 314.7685,-501.8385 317.7428,-495.5017"/>
</g>
<!-- zoptions_Preservation&#45;&gt;C14Samples -->
<g id="edge41" class="edge">
<title>zoptions_Preservation&#45;&gt;C14Samples</title>
<path fill="none" stroke="#696969" d="M596.2758,-836.8027C618.3556,-818.1304 655.5478,-789.9051 693,-776 821.3754,-728.3372 863.4786,-759.6454 999,-740 1128.114,-721.2835 1276.8348,-694.6953 1368.8898,-677.6452"/>
<polygon fill="#696969" stroke="#696969" points="1369.8062,-681.035 1378.9996,-675.7688 1368.5288,-674.1525 1369.8062,-681.035"/>
</g>
<!-- zoptions_Preservation&#45;&gt;MaterialCulture -->
<g id="edge88" class="edge">
<title>zoptions_Preservation&#45;&gt;MaterialCulture</title>
<path fill="none" stroke="#696969" d="M595.2053,-836.7101C616.9467,-817.3706 654.3903,-788.0297 693,-776 880.5615,-717.5612 4034.8601,-770.0683 4229,-740 4288.7983,-730.7385 4353.9388,-710.7093 4403.8051,-693.137"/>
<polygon fill="#696969" stroke="#696969" points="4405.0043,-696.4253 4413.2508,-689.7736 4402.6561,-689.8309 4405.0043,-696.4253"/>
</g>
<!-- zoptions_TaxaList -->
<g id="node31" class="node">
<title>zoptions_TaxaList</title>
<polygon fill="#add8e6" stroke="#000000" points="2926,-873 2710,-873 2710,-837 2926,-837 2926,-873"/>
<text text-anchor="middle" x="2818" y="-850.5" font-family="Times,serif" font-size="15.00" fill="#000000">zoptions_TaxaList</text>
</g>
<!-- zoptions_TaxaList&#45;&gt;ABotIsotopes -->
<g id="edge7" class="edge">
<title>zoptions_TaxaList&#45;&gt;ABotIsotopes</title>
<path fill="none" stroke="#696969" d="M2832.0868,-836.9621C2867.8945,-788.8403 2954.8446,-656.0477 2886,-582 2835.0055,-527.1514 1724.7104,-482.2376 1398.4121,-470.1857"/>
<polygon fill="#696969" stroke="#696969" points="1398.1841,-466.675 1388.0621,-469.8047 1397.9266,-473.6703 1398.1841,-466.675"/>
</g>
<!-- zoptions_TaxaList&#45;&gt;ABotSamples -->
<g id="edge20" class="edge">
<title>zoptions_TaxaList&#45;&gt;ABotSamples</title>
<path fill="none" stroke="#696969" d="M2828.7583,-836.9489C2856.2762,-788.2139 2922.3332,-652.8794 2853,-582 2821.2922,-549.5851 1266.2856,-548.3081 1221,-546 888.6422,-529.0609 494.5803,-492.6286 321.7266,-475.8233"/>
<polygon fill="#696969" stroke="#696969" points="321.9546,-472.329 311.6623,-474.8426 321.2757,-479.296 321.9546,-472.329"/>
</g>
<!-- zoptions_TaxaList&#45;&gt;C14Ghosts -->
<g id="edge21" class="edge">
<title>zoptions_TaxaList&#45;&gt;C14Ghosts</title>
<path fill="none" stroke="#696969" d="M2755.9668,-836.9246C2699.032,-819.4788 2612.4066,-793.2418 2536,-776 2439.352,-754.1906 2405.3488,-782.8169 2316,-740 2308.9702,-736.6312 2302.0898,-732.5239 2295.4986,-727.9713"/>
<polygon fill="#696969" stroke="#696969" points="2297.4533,-725.0648 2287.3149,-721.9885 2293.3221,-730.7157 2297.4533,-725.0648"/>
</g>
<!-- zoptions_TaxaList&#45;&gt;C14Ghosts -->
<g id="edge22" class="edge">
<title>zoptions_TaxaList&#45;&gt;C14Ghosts</title>
<path fill="none" stroke="#696969" d="M2769.4256,-836.8421C2716.7592,-819.3962 2630.2863,-793.2146 2554,-776 2457.352,-754.1906 2423.3488,-782.8169 2334,-740 2323.4408,-734.9399 2313.2188,-728.2136 2303.6084,-720.8146"/>
<polygon fill="#696969" stroke="#696969" points="2305.6771,-717.9871 2295.6855,-714.463 2301.2986,-723.4488 2305.6771,-717.9871"/>
</g>
<!-- zoptions_TaxaList&#45;&gt;C14Samples -->
<g id="edge44" class="edge">
<title>zoptions_TaxaList&#45;&gt;C14Samples</title>
<path fill="none" stroke="#696969" d="M2769.0182,-836.8576C2715.0134,-817.7965 2625.1433,-788.8376 2545,-776 2435.2164,-758.4145 1648.0955,-781.6292 1545,-740 1535.862,-736.3101 1527.057,-731.2266 1518.7814,-725.4018"/>
<polygon fill="#696969" stroke="#696969" points="1520.7949,-722.5372 1510.6895,-719.3541 1516.6042,-728.1442 1520.7949,-722.5372"/>
</g>
<!-- zoptions_TaxaList&#45;&gt;FaunalBiometrics -->
<g id="edge49" class="edge">
<title>zoptions_TaxaList&#45;&gt;FaunalBiometrics</title>
<path fill="none" stroke="#696969" d="M2767.9594,-836.9276C2713.7921,-818.2175 2624.4775,-789.8285 2545,-776 2419.5226,-754.1678 2090.4468,-789.2694 1973,-740 1963.9124,-736.1877 1955.1389,-731.0277 1946.8812,-725.1594"/>
<polygon fill="#696969" stroke="#696969" points="1948.8973,-722.2962 1938.8029,-719.0786 1944.6876,-727.8889 1948.8973,-722.2962"/>
</g>
<!-- zoptions_TaxaList&#45;&gt;FaunalIsotopes -->
<g id="edge56" class="edge">
<title>zoptions_TaxaList&#45;&gt;FaunalIsotopes</title>
<path fill="none" stroke="#696969" d="M2836.7214,-836.749C2863.0997,-811.0335 2912.5017,-762.8727 2952.9288,-723.4613"/>
<polygon fill="#696969" stroke="#696969" points="2955.3895,-725.9505 2960.1067,-716.4638 2950.5031,-720.9382 2955.3895,-725.9505"/>
</g>
<!-- zoptions_TaxaList&#45;&gt;FaunalSpecies -->
<g id="edge59" class="edge">
<title>zoptions_TaxaList&#45;&gt;FaunalSpecies</title>
<path fill="none" stroke="#696969" d="M2813.0139,-836.749C2807.3616,-816.0593 2797.7399,-780.8405 2788.5874,-747.3388"/>
<polygon fill="#696969" stroke="#696969" points="2791.9067,-746.2076 2785.895,-737.4836 2785.1542,-748.0525 2791.9067,-746.2076"/>
</g>
<!-- zoptions_TaxaList&#45;&gt;MaterialCulture -->
<g id="edge82" class="edge">
<title>zoptions_TaxaList&#45;&gt;MaterialCulture</title>
<path fill="none" stroke="#696969" d="M2856.7595,-836.9353C2904.8341,-817.793 2989.2997,-788.6239 3065,-776 3571.587,-691.521 3713.321,-823.9253 4220,-740 4282.4324,-729.6588 4350.8185,-708.2327 4402.8118,-690.3004"/>
<polygon fill="#696969" stroke="#696969" points="4404.0263,-693.5837 4412.3242,-686.9961 4401.7294,-686.9713 4404.0263,-693.5837"/>
</g>
<!-- zoptions_TaxaList&#45;&gt;MaterialCulture -->
<g id="edge94" class="edge">
<title>zoptions_TaxaList&#45;&gt;MaterialCulture</title>
<path fill="none" stroke="#696969" d="M2869.94,-836.9353C2922.8341,-817.793 3007.2997,-788.6239 3083,-776 3589.587,-691.521 3731.321,-823.9253 4238,-740 4294.8554,-730.5826 4356.6485,-711.9721 4404.5044,-695.1791"/>
<polygon fill="#696969" stroke="#696969" points="4405.9394,-698.3837 4414.1906,-691.7378 4403.5959,-691.7876 4405.9394,-698.3837"/>
</g>
<!-- zoptions_ABotRecoveryMethods -->
<g id="node32" class="node">
<title>zoptions_ABotRecoveryMethods</title>
<polygon fill="#add8e6" stroke="#000000" points="450,-873 234,-873 234,-837 450,-837 450,-873"/>
<text text-anchor="middle" x="342" y="-850.5" font-family="Times,serif" font-size="15.00" fill="#000000">zoptions_ABotRecoveryMethods</text>
</g>
<!-- zoptions_ABotRecoveryMethods&#45;&gt;ABotPhases -->
<g id="edge9" class="edge">
<title>zoptions_ABotRecoveryMethods&#45;&gt;ABotPhases</title>
<path fill="none" stroke="#696969" d="M329.5616,-836.749C323.7634,-816.1481 321.193,-781.1425 321.8504,-747.7703"/>
<polygon fill="#696969" stroke="#696969" points="325.3575,-747.5837 322.1581,-737.4836 318.3606,-747.3744 325.3575,-747.5837"/>
</g>
<!-- zoptions_ABotRecoveryMethods&#45;&gt;ABotPhases -->
<g id="edge10" class="edge">
<title>zoptions_ABotRecoveryMethods&#45;&gt;ABotPhases</title>
<path fill="none" stroke="#696969" d="M337.8539,-836.749C335.9612,-816.5755 335.1003,-782.5889 335.2712,-749.8493"/>
<polygon fill="#696969" stroke="#696969" points="338.7719,-749.775 335.3574,-739.7455 331.7721,-749.7153 338.7719,-749.775"/>
</g>
<!-- zoptions_ABotRecoveryMethods&#45;&gt;ABotPhases -->
<g id="edge11" class="edge">
<title>zoptions_ABotRecoveryMethods&#45;&gt;ABotPhases</title>
<path fill="none" stroke="#696969" d="M346.1461,-836.749C348.0388,-816.5755 348.8997,-782.5889 348.7288,-749.8493"/>
<polygon fill="#696969" stroke="#696969" points="352.2279,-749.7153 348.6426,-739.7455 345.2281,-749.775 352.2279,-749.7153"/>
</g>
<!-- zoptions_ABotRecoveryMethods&#45;&gt;ABotPhases -->
<g id="edge12" class="edge">
<title>zoptions_ABotRecoveryMethods&#45;&gt;ABotPhases</title>
<path fill="none" stroke="#696969" d="M354.4384,-836.749C360.2366,-816.1481 362.807,-781.1425 362.1496,-747.7703"/>
<polygon fill="#696969" stroke="#696969" points="365.6394,-747.3744 361.8419,-737.4836 358.6425,-747.5837 365.6394,-747.3744"/>
</g>
<!-- zoptions_C14laboratories -->
<g id="node33" class="node">
<title>zoptions_C14laboratories</title>
<polygon fill="#add8e6" stroke="#000000" points="1658,-873 1442,-873 1442,-837 1658,-837 1658,-873"/>
<text text-anchor="middle" x="1550" y="-850.5" font-family="Times,serif" font-size="15.00" fill="#000000">zoptions_C14laboratories</text>
</g>
<!-- zoptions_C14laboratories&#45;&gt;C14Ghosts -->
<g id="edge28" class="edge">
<title>zoptions_C14laboratories&#45;&gt;C14Ghosts</title>
<path fill="none" stroke="#696969" d="M1569.7591,-836.8334C1591.6914,-817.8987 1629.0289,-789.1855 1667,-776 1869.932,-705.5317 1951.3951,-824.2583 2149,-740 2158.0652,-736.1346 2166.8246,-730.9414 2175.0743,-725.0542"/>
<polygon fill="#696969" stroke="#696969" points="2177.2751,-727.7783 2183.1466,-718.9592 2173.057,-722.1918 2177.2751,-727.7783"/>
</g>
<!-- zoptions_C14laboratories&#45;&gt;C14Samples -->
<g id="edge37" class="edge">
<title>zoptions_C14laboratories&#45;&gt;C14Samples</title>
<path fill="none" stroke="#696969" d="M1537.1046,-836.749C1524.8458,-815.3622 1506.3042,-778.4507 1490.0822,-743.9589"/>
<polygon fill="#696969" stroke="#696969" points="1493.199,-742.3613 1485.7951,-734.783 1486.8571,-745.3244 1493.199,-742.3613"/>
</g>
<!-- zoptions_C14laboratories&#45;&gt;C14Samples -->
<g id="edge38" class="edge">
<title>zoptions_C14laboratories&#45;&gt;C14Samples</title>
<path fill="none" stroke="#696969" d="M1545.3969,-836.749C1536.7471,-814.3147 1518.6321,-774.7977 1500.9812,-738.9103"/>
<polygon fill="#696969" stroke="#696969" points="1504.0828,-737.2865 1496.5097,-729.8772 1497.8094,-740.392 1504.0828,-737.2865"/>
</g>
<!-- zoptions_Types -->
<g id="node34" class="node">
<title>zoptions_Types</title>
<polygon fill="#add8e6" stroke="#000000" points="1892,-873 1676,-873 1676,-837 1892,-837 1892,-873"/>
<text text-anchor="middle" x="1784" y="-850.5" font-family="Times,serif" font-size="15.00" fill="#000000">zoptions_Types</text>
</g>
<!-- zoptions_Types&#45;&gt;C14Ghosts -->
<g id="edge29" class="edge">
<title>zoptions_Types&#45;&gt;C14Ghosts</title>
<path fill="none" stroke="#696969" d="M1804.7608,-836.6611C1826.9517,-818.1533 1863.9679,-790.3219 1901,-776 2004.8795,-735.8254 2048.1296,-787.2239 2149,-740 2157.6942,-735.9297 2166.1481,-730.7108 2174.1596,-724.8987"/>
<polygon fill="#696969" stroke="#696969" points="2176.5173,-727.502 2182.3396,-718.6503 2172.2681,-721.9392 2176.5173,-727.502"/>
</g>
<!-- zoptions_Types&#45;&gt;C14Samples -->
<g id="edge45" class="edge">
<title>zoptions_Types&#45;&gt;C14Samples</title>
<path fill="none" stroke="#696969" d="M1761.5194,-836.7247C1738.8473,-819.0648 1702.2511,-792.6135 1667,-776 1615.8612,-751.8987 1594.3601,-767.5613 1545,-740 1536.8382,-735.4427 1528.7959,-730.0074 1521.0889,-724.1507"/>
<polygon fill="#696969" stroke="#696969" points="1522.8831,-721.1076 1512.8677,-717.6518 1518.542,-726.599 1522.8831,-721.1076"/>
</g>
<!-- zoptions_Types&#45;&gt;PhaseTypes -->
<g id="edge104" class="edge">
<title>zoptions_Types&#45;&gt;PhaseTypes</title>
<path fill="none" stroke="#696969" d="M1769.7943,-836.749C1751.151,-812.7967 1717.3511,-769.3716 1688.015,-731.6816"/>
<polygon fill="#696969" stroke="#696969" points="1690.7341,-729.4766 1681.8299,-723.7351 1685.2102,-733.7762 1690.7341,-729.4766"/>
</g>
<!-- zoptions_C14method -->
<g id="node35" class="node">
<title>zoptions_C14method</title>
<polygon fill="#add8e6" stroke="#000000" points="918,-873 702,-873 702,-837 918,-837 918,-873"/>
<text text-anchor="middle" x="810" y="-850.5" font-family="Times,serif" font-size="15.00" fill="#000000">zoptions_C14method</text>
</g>
<!-- zoptions_C14method&#45;&gt;C14Samples -->
<g id="edge39" class="edge">
<title>zoptions_C14method&#45;&gt;C14Samples</title>
<path fill="none" stroke="#696969" d="M831.387,-836.8421C853.7923,-818.7531 890.7133,-791.5038 927,-776 1074.4147,-713.0157 1260.1756,-682.9428 1368.0729,-669.8636"/>
<polygon fill="#696969" stroke="#696969" points="1368.7512,-673.3076 1378.2676,-668.6504 1367.924,-666.3567 1368.7512,-673.3076"/>
</g>
<!-- zoptions_Material -->
<g id="node36" class="node">
<title>zoptions_Material</title>
<polygon fill="#add8e6" stroke="#000000" points="1152,-873 936,-873 936,-837 1152,-837 1152,-873"/>
<text text-anchor="middle" x="1044" y="-850.5" font-family="Times,serif" font-size="15.00" fill="#000000">zoptions_Material</text>
</g>
<!-- zoptions_Material&#45;&gt;C14Samples -->
<g id="edge40" class="edge">
<title>zoptions_Material&#45;&gt;C14Samples</title>
<path fill="none" stroke="#696969" d="M1067.664,-836.7005C1090.627,-819.5151 1126.9085,-793.8452 1161,-776 1229.5023,-740.1425 1311.7861,-709.0585 1372.1918,-688.2797"/>
<polygon fill="#696969" stroke="#696969" points="1373.3615,-691.5788 1381.6932,-685.0342 1371.0987,-684.9546 1373.3615,-691.5788"/>
</g>
<!-- zoptions_Quantity -->
<g id="node37" class="node">
<title>zoptions_Quantity</title>
<polygon fill="#add8e6" stroke="#000000" points="1386,-873 1170,-873 1170,-837 1386,-837 1386,-873"/>
<text text-anchor="middle" x="1278" y="-850.5" font-family="Times,serif" font-size="15.00" fill="#000000">zoptions_Quantity</text>
</g>
<!-- zoptions_Quantity&#45;&gt;C14Samples -->
<g id="edge42" class="edge">
<title>zoptions_Quantity&#45;&gt;C14Samples</title>
<path fill="none" stroke="#696969" d="M1294.8399,-836.749C1317.8486,-811.8122 1360.3318,-765.7689 1396.0432,-727.0649"/>
<polygon fill="#696969" stroke="#696969" points="1398.8785,-729.1534 1403.0874,-719.4304 1393.7338,-724.4065 1398.8785,-729.1534"/>
</g>
<!-- zoptions_SkeletalElements -->
<g id="node38" class="node">
<title>zoptions_SkeletalElements</title>
<polygon fill="#add8e6" stroke="#000000" points="2126,-873 1910,-873 1910,-837 2126,-837 2126,-873"/>
<text text-anchor="middle" x="2018" y="-850.5" font-family="Times,serif" font-size="15.00" fill="#000000">zoptions_SkeletalElements</text>
</g>
<!-- zoptions_SkeletalElements&#45;&gt;C14Samples -->
<g id="edge43" class="edge">
<title>zoptions_SkeletalElements&#45;&gt;C14Samples</title>
<path fill="none" stroke="#696969" d="M1997.7686,-836.6815C1975.726,-817.9079 1938.5644,-789.5989 1901,-776 1751.4678,-721.867 1690.4551,-804.2891 1545,-740 1535.9863,-736.0161 1527.259,-730.7488 1519.0276,-724.8194"/>
<polygon fill="#696969" stroke="#696969" points="1521.048,-721.9588 1510.9692,-718.6924 1516.8112,-727.5311 1521.048,-721.9588"/>
</g>
<!-- zoptions_SkeletalElements&#45;&gt;FaunalBiometrics -->
<g id="edge48" class="edge">
<title>zoptions_SkeletalElements&#45;&gt;FaunalBiometrics</title>
<path fill="none" stroke="#696969" d="M2005.4877,-836.749C1989.4962,-813.423 1960.8439,-771.6295 1935.4918,-734.6497"/>
<polygon fill="#696969" stroke="#696969" points="1938.3445,-732.6209 1929.8032,-726.3521 1932.571,-736.579 1938.3445,-732.6209"/>
</g>
<!-- zoptions_SkeletalElements&#45;&gt;FaunalIsotopes -->
<g id="edge55" class="edge">
<title>zoptions_SkeletalElements&#45;&gt;FaunalIsotopes</title>
<path fill="none" stroke="#696969" d="M2037.6977,-836.6532C2059.5776,-817.5643 2096.8705,-788.7203 2135,-776 2286.5454,-725.4434 2698.1908,-779.4472 2853,-740 2882.4495,-732.4959 2912.915,-719.4825 2939.4779,-706.1575"/>
<polygon fill="#696969" stroke="#696969" points="2941.3931,-709.1093 2948.7027,-701.4398 2938.2058,-702.877 2941.3931,-709.1093"/>
</g>
<!-- zoptions_SkeletalElements&#45;&gt;HumanIsotopes -->
<g id="edge77" class="edge">
<title>zoptions_SkeletalElements&#45;&gt;HumanIsotopes</title>
<path fill="none" stroke="#696969" d="M1994.9178,-836.745C1972.0872,-819.3499 1935.6378,-793.3155 1901,-776 1857.2491,-754.1288 1825.3715,-779.8441 1797,-740 1756.2684,-682.7977 1751.0065,-635.0637 1797,-582 2032.7045,-310.0625 3045.4205,-413.4814 3400,-352 3503.7648,-334.008 3622.2873,-309.2586 3700.7447,-292.2827"/>
<polygon fill="#696969" stroke="#696969" points="3701.5563,-295.6882 3710.5874,-290.1483 3700.0727,-288.8471 3701.5563,-295.6882"/>
</g>
<!-- zoptions_SkeletalElements&#45;&gt;Strontium -->
<g id="edge116" class="edge">
<title>zoptions_SkeletalElements&#45;&gt;Strontium</title>
<path fill="none" stroke="#696969" d="M1996.0496,-836.8317C1973.4926,-818.9977 1936.7193,-792.1845 1901,-776 1843.6558,-750.0173 1802.4458,-789.8535 1764,-740 1716.2314,-678.0574 1710.7768,-445.3237 1764,-388 1813.9401,-334.2122 2900.2229,-288.6785 3222.5902,-276.3118"/>
<polygon fill="#696969" stroke="#696969" points="3222.9603,-279.8003 3232.8192,-275.9207 3222.6928,-272.8054 3222.9603,-279.8003"/>
</g>
<!-- zoptions_FaunalMeasurement -->
<g id="node39" class="node">
<title>zoptions_FaunalMeasurement</title>
<polygon fill="#add8e6" stroke="#000000" points="2360,-873 2144,-873 2144,-837 2360,-837 2360,-873"/>
<text text-anchor="middle" x="2252" y="-850.5" font-family="Times,serif" font-size="15.00" fill="#000000">zoptions_FaunalMeasurement</text>
</g>
<!-- zoptions_FaunalMeasurement&#45;&gt;FaunalBiometrics -->
<g id="edge47" class="edge">
<title>zoptions_FaunalMeasurement&#45;&gt;FaunalBiometrics</title>
<path fill="none" stroke="#696969" d="M2230.5969,-836.8795C2208.1789,-818.8204 2171.2478,-791.5945 2135,-776 2067.2477,-746.8517 2038.5872,-773.7391 1973,-740 1964.3736,-735.5624 1955.9337,-730.0717 1947.9054,-724.0678"/>
<polygon fill="#696969" stroke="#696969" points="1950.0585,-721.3085 1940.0226,-717.9128 1945.7505,-726.8258 1950.0585,-721.3085"/>
</g>
<!-- zoptions_GraveConstruction -->
<g id="node40" class="node">
<title>zoptions_GraveConstruction</title>
<polygon fill="#add8e6" stroke="#000000" points="3444,-679 3228,-679 3228,-643 3444,-643 3444,-679"/>
<text text-anchor="middle" x="3336" y="-656.5" font-family="Times,serif" font-size="15.00" fill="#000000">zoptions_GraveConstruction</text>
</g>
<!-- zoptions_GraveConstruction&#45;&gt;GraveConstruction -->
<g id="edge61" class="edge">
<title>zoptions_GraveConstruction&#45;&gt;GraveConstruction</title>
<path fill="none" stroke="#696969" d="M3343.5262,-642.749C3352.3435,-621.367 3367.5599,-584.4672 3381.7806,-549.9821"/>
<polygon fill="#696969" stroke="#696969" points="3385.1823,-550.9136 3385.759,-540.3344 3378.711,-548.2449 3385.1823,-550.9136"/>
</g>
<!-- zoptions_AgeCategorical -->
<g id="node41" class="node">
<title>zoptions_AgeCategorical</title>
<polygon fill="#add8e6" stroke="#000000" points="4220,-679 4004,-679 4004,-643 4220,-643 4220,-679"/>
<text text-anchor="middle" x="4112" y="-656.5" font-family="Times,serif" font-size="15.00" fill="#000000">zoptions_AgeCategorical</text>
</g>
<!-- zoptions_AgeCategorical&#45;&gt;GraveIndividuals -->
<g id="edge65" class="edge">
<title>zoptions_AgeCategorical&#45;&gt;GraveIndividuals</title>
<path fill="none" stroke="#696969" d="M4110.5888,-642.749C4109.0356,-622.661 4106.4235,-588.8766 4103.902,-556.2656"/>
<polygon fill="#696969" stroke="#696969" points="4107.3842,-555.8995 4103.1236,-546.1991 4100.405,-556.4391 4107.3842,-555.8995"/>
</g>
<!-- zoptions_Cultures -->
<g id="node42" class="node">
<title>zoptions_Cultures</title>
<polygon fill="#add8e6" stroke="#000000" points="2667,-1067 2451,-1067 2451,-1031 2667,-1031 2667,-1067"/>
<text text-anchor="middle" x="2559" y="-1044.5" font-family="Times,serif" font-size="15.00" fill="#000000">zoptions_Cultures</text>
</g>
<!-- zoptions_Cultures&#45;&gt;GraveIndividuals -->
<g id="edge66" class="edge">
<title>zoptions_Cultures&#45;&gt;GraveIndividuals</title>
<path fill="none" stroke="#696969" d="M2667.1866,-1046.5151C2962.0908,-1038.7602 3764.0031,-1010.7597 3853,-934 3907.692,-886.8282 3836.475,-823.3648 3891,-776 3954.2006,-721.0989 4209.703,-801.9604 4266,-740 4313.2225,-688.027 4298.8405,-644.0698 4266,-582 4260.5072,-571.6185 4215.5043,-541.2225 4173.3221,-514.2875"/>
<polygon fill="#696969" stroke="#696969" points="4174.9743,-511.1904 4164.6579,-508.7775 4171.2179,-517.0971 4174.9743,-511.1904"/>
</g>
<!-- zoptions_Cultures&#45;&gt;Phases -->
<g id="edge106" class="edge">
<title>zoptions_Cultures&#45;&gt;Phases</title>
<path fill="none" stroke="#696969" d="M2541.1118,-1030.749C2525.9778,-1009.5354 2505.0948,-973.0474 2487.6701,-938.7972"/>
<polygon fill="#696969" stroke="#696969" points="2490.7064,-937.0444 2483.0882,-929.6814 2484.452,-940.1881 2490.7064,-937.0444"/>
</g>
<!-- zoptions_Cultures&#45;&gt;Phases -->
<g id="edge107" class="edge">
<title>zoptions_Cultures&#45;&gt;Phases</title>
<path fill="none" stroke="#696969" d="M2549.4041,-1030.749C2537.7459,-1008.5756 2517.3137,-969.7144 2498.6221,-934.1636"/>
<polygon fill="#696969" stroke="#696969" points="2501.6656,-932.4311 2493.9139,-925.2088 2495.4697,-935.6888 2501.6656,-932.4311"/>
</g>
<!-- zoptions_Cultures&#45;&gt;Phases -->
<g id="edge108" class="edge">
<title>zoptions_Cultures&#45;&gt;Phases</title>
<path fill="none" stroke="#696969" d="M2557.6964,-1030.749C2549.7536,-1007.2591 2529.1663,-965.041 2508.4351,-927.8707"/>
<polygon fill="#696969" stroke="#696969" points="2511.4152,-926.0299 2503.4528,-919.0405 2505.3187,-929.4698 2511.4152,-926.0299"/>
</g>
<!-- zoptions_Health -->
<g id="node43" class="node">
<title>zoptions_Health</title>
<polygon fill="#add8e6" stroke="#000000" points="4448,-485 4232,-485 4232,-449 4448,-449 4448,-485"/>
<text text-anchor="middle" x="4340" y="-462.5" font-family="Times,serif" font-size="15.00" fill="#000000">zoptions_Health</text>
</g>
<!-- zoptions_Health&#45;&gt;Health -->
<g id="edge73" class="edge">
<title>zoptions_Health&#45;&gt;Health</title>
<path fill="none" stroke="#696969" d="M4340,-448.749C4340,-428.661 4340,-394.8766 4340,-362.2656"/>
<polygon fill="#696969" stroke="#696969" points="4343.5001,-362.199 4340,-352.1991 4336.5001,-362.1991 4343.5001,-362.199"/>
</g>
<!-- zoptions_MaterialCulture_Material -->
<g id="node44" class="node">
<title>zoptions_MaterialCulture_Material</title>
<polygon fill="#add8e6" stroke="#000000" points="5520,-873 5304,-873 5304,-837 5520,-837 5520,-873"/>
<text text-anchor="middle" x="5412" y="-850.5" font-family="Times,serif" font-size="15.00" fill="#000000">zoptions_MaterialCulture_Material</text>
</g>
<!-- zoptions_MaterialCulture_Material&#45;&gt;MaterialCulture -->
<g id="edge83" class="edge">
<title>zoptions_MaterialCulture_Material&#45;&gt;MaterialCulture</title>
<path fill="none" stroke="#696969" d="M5391.6563,-836.9822C5369.5198,-818.4598 5332.2807,-790.3585 5295,-776 5164.9054,-725.8945 4757.3997,-684.8699 4575.8258,-668.5709"/>
<polygon fill="#696969" stroke="#696969" points="4576.0449,-665.0766 4565.7732,-667.6731 4575.4222,-672.0489 4576.0449,-665.0766"/>
</g>
<!-- zoptions_MaterialCulture_MaterialType -->
<g id="node45" class="node">
<title>zoptions_MaterialCulture_MaterialType</title>
<polygon fill="#add8e6" stroke="#000000" points="5754,-873 5538,-873 5538,-837 5754,-837 5754,-873"/>
<text text-anchor="middle" x="5646" y="-850.5" font-family="Times,serif" font-size="15.00" fill="#000000">zoptions_MaterialCulture_MaterialType</text>
</g>
<!-- zoptions_MaterialCulture_MaterialType&#45;&gt;MaterialCulture -->
<g id="edge84" class="edge">
<title>zoptions_MaterialCulture_MaterialType&#45;&gt;MaterialCulture</title>
<path fill="none" stroke="#696969" d="M5625.7439,-836.7494C5603.6805,-818.0325 5566.5019,-789.7704 5529,-776 5354.5153,-711.9305 4795.1133,-676.89 4576.111,-665.3427"/>
<polygon fill="#696969" stroke="#696969" points="4576.1118,-661.8381 4565.9425,-664.8106 4575.7459,-668.8285 4576.1118,-661.8381"/>
</g>
<!-- zoptions_MaterialCulture_Morphology -->
<g id="node46" class="node">
<title>zoptions_MaterialCulture_Morphology</title>
<polygon fill="#add8e6" stroke="#000000" points="4116,-873 3900,-873 3900,-837 4116,-837 4116,-873"/>
<text text-anchor="middle" x="4008" y="-850.5" font-family="Times,serif" font-size="15.00" fill="#000000">zoptions_MaterialCulture_Morphology</text>
</g>
<!-- zoptions_MaterialCulture_Morphology&#45;&gt;MaterialCulture -->
<g id="edge85" class="edge">
<title>zoptions_MaterialCulture_Morphology&#45;&gt;MaterialCulture</title>
<path fill="none" stroke="#696969" d="M4028.3201,-836.9206C4050.4369,-818.3468 4087.6598,-790.203 4125,-776 4237.7412,-733.117 4283.7936,-789.0315 4394,-740 4404.0029,-735.5496 4413.7572,-729.6766 4422.9556,-723.1367"/>
<polygon fill="#696969" stroke="#696969" points="4425.3108,-725.7466 4431.238,-716.9648 4421.1282,-720.1336 4425.3108,-725.7466"/>
</g>
<!-- zoptions_MaterialCulture_MorphologySection -->
<g id="node47" class="node">
<title>zoptions_MaterialCulture_MorphologySection</title>
<polygon fill="#add8e6" stroke="#000000" points="4350,-873 4134,-873 4134,-837 4350,-837 4350,-873"/>
<text text-anchor="middle" x="4242" y="-850.5" font-family="Times,serif" font-size="15.00" fill="#000000">zoptions_MaterialCulture_MorphologySection</text>
</g>
<!-- zoptions_MaterialCulture_MorphologySection&#45;&gt;MaterialCulture -->
<g id="edge86" class="edge">
<title>zoptions_MaterialCulture_MorphologySection&#45;&gt;MaterialCulture</title>
<path fill="none" stroke="#696969" d="M4266.8108,-836.8972C4297.1764,-814.5891 4349.9861,-775.2977 4394,-740 4402.2879,-733.3534 4410.8975,-726.2793 4419.3847,-719.2002"/>
<polygon fill="#696969" stroke="#696969" points="4421.7141,-721.8147 4427.1319,-712.7098 4417.2187,-716.4488 4421.7141,-721.8147"/>
</g>
<!-- zoptions_MaterialCulture_Object -->
<g id="node48" class="node">
<title>zoptions_MaterialCulture_Object</title>
<polygon fill="#add8e6" stroke="#000000" points="4584,-873 4368,-873 4368,-837 4584,-837 4584,-873"/>
<text text-anchor="middle" x="4476" y="-850.5" font-family="Times,serif" font-size="15.00" fill="#000000">zoptions_MaterialCulture_Object</text>
</g>
<!-- zoptions_MaterialCulture_Object&#45;&gt;MaterialCulture -->
<g id="edge87" class="edge">
<title>zoptions_MaterialCulture_Object&#45;&gt;MaterialCulture</title>
<path fill="none" stroke="#696969" d="M4477.0349,-836.749C4478.1739,-816.661 4480.0895,-782.8766 4481.9385,-750.2656"/>
<polygon fill="#696969" stroke="#696969" points="4485.4375,-750.3812 4482.5093,-740.1991 4478.4487,-749.9849 4485.4375,-750.3812"/>
</g>
<!-- zoptions_DecorStyle -->
<g id="node49" class="node">
<title>zoptions_DecorStyle</title>
<polygon fill="#add8e6" stroke="#000000" points="4818,-873 4602,-873 4602,-837 4818,-837 4818,-873"/>
<text text-anchor="middle" x="4710" y="-850.5" font-family="Times,serif" font-size="15.00" fill="#000000">zoptions_DecorStyle</text>
</g>
<!-- zoptions_DecorStyle&#45;&gt;MaterialCulture -->
<g id="edge89" class="edge">
<title>zoptions_DecorStyle&#45;&gt;MaterialCulture</title>
<path fill="none" stroke="#696969" d="M4689.0207,-836.749C4658.5171,-810.2122 4600.5387,-759.7736 4554.4898,-719.7131"/>
<polygon fill="#696969" stroke="#696969" points="4556.7587,-717.0478 4546.9168,-713.125 4552.1642,-722.3291 4556.7587,-717.0478"/>
</g>
<!-- zoptions_DecorTechn -->
<g id="node50" class="node">
<title>zoptions_DecorTechn</title>
<polygon fill="#add8e6" stroke="#000000" points="5052,-873 4836,-873 4836,-837 5052,-837 5052,-873"/>
<text text-anchor="middle" x="4944" y="-850.5" font-family="Times,serif" font-size="15.00" fill="#000000">zoptions_DecorTechn</text>
</g>
<!-- zoptions_DecorTechn&#45;&gt;MaterialCulture -->
<g id="edge90" class="edge">
<title>zoptions_DecorTechn&#45;&gt;MaterialCulture</title>
<path fill="none" stroke="#696969" d="M4920.9447,-836.691C4898.1341,-819.2559 4861.6989,-793.1927 4827,-776 4744.3437,-735.0453 4643.588,-703.0008 4573.3056,-683.2566"/>
<polygon fill="#696969" stroke="#696969" points="4574.1681,-679.8637 4563.5957,-680.5526 4572.2902,-686.6071 4574.1681,-679.8637"/>
</g>
<!-- zoptions_DecorTool -->
<g id="node51" class="node">
<title>zoptions_DecorTool</title>
<polygon fill="#add8e6" stroke="#000000" points="5286,-873 5070,-873 5070,-837 5286,-837 5286,-873"/>
<text text-anchor="middle" x="5178" y="-850.5" font-family="Times,serif" font-size="15.00" fill="#000000">zoptions_DecorTool</text>
</g>
<!-- zoptions_DecorTool&#45;&gt;MaterialCulture -->
<g id="edge91" class="edge">
<title>zoptions_DecorTool&#45;&gt;MaterialCulture</title>
<path fill="none" stroke="#696969" d="M5143.141,-836.7224C5116.2986,-818.5381 5079.4091,-791.2142 5043,-776 4885.7494,-710.2902 4688.2214,-681.3217 4575.7129,-669.155"/>
<polygon fill="#696969" stroke="#696969" points="4576.0754,-665.6739 4565.7618,-668.0987 4575.3365,-672.6347 4576.0754,-665.6739"/>
</g>
<!-- zoptions_DecorTool&#45;&gt;MaterialCulture -->
<g id="edge92" class="edge">
<title>zoptions_DecorTool&#45;&gt;MaterialCulture</title>
<path fill="none" stroke="#696969" d="M5156.6636,-836.7224C5134.2986,-818.5381 5097.4091,-791.2142 5061,-776 4898.0602,-707.9128 4691.8758,-679.2736 4576.213,-667.8994"/>
<polygon fill="#696969" stroke="#696969" points="4576.2808,-664.3899 4565.9916,-666.9161 4575.6104,-671.3577 4576.2808,-664.3899"/>
</g>
<!-- zoptions_DecorTool&#45;&gt;MaterialCulture -->
<g id="edge93" class="edge">
<title>zoptions_DecorTool&#45;&gt;MaterialCulture</title>
<path fill="none" stroke="#696969" d="M5170.1861,-836.7224C5152.2986,-818.5381 5115.4091,-791.2142 5079,-776 4910.4291,-705.5598 4695.573,-677.3412 4576.319,-666.7811"/>
<polygon fill="#696969" stroke="#696969" points="4576.403,-663.2754 4566.139,-665.9022 4575.8008,-670.2495 4576.403,-663.2754"/>
</g>
<!-- zoptions_Periods -->
<g id="node52" class="node">
<title>zoptions_Periods</title>
<polygon fill="#add8e6" stroke="#000000" points="2257,-1067 2041,-1067 2041,-1031 2257,-1031 2257,-1067"/>
<text text-anchor="middle" x="2149" y="-1044.5" font-family="Times,serif" font-size="15.00" fill="#000000">zoptions_Periods</text>
</g>
<!-- zoptions_Periods&#45;&gt;Phases -->
<g id="edge109" class="edge">
<title>zoptions_Periods&#45;&gt;Phases</title>
<path fill="none" stroke="#696969" d="M2172.0936,-1030.7678C2194.9327,-1013.3897 2231.3882,-987.3674 2266,-970 2309.3429,-948.2515 2327.2555,-958.678 2369,-934 2377.047,-929.2429 2385.0153,-923.6789 2392.6783,-917.7456"/>
<polygon fill="#696969" stroke="#696969" points="2395.2506,-920.1693 2400.863,-911.1831 2390.8717,-914.708 2395.2506,-920.1693"/>
</g>
<!-- zoptions_Countries -->
<g id="node53" class="node">
<title>zoptions_Countries</title>
<polygon fill="#add8e6" stroke="#000000" points="2462,-1218 2246,-1218 2246,-1182 2462,-1182 2462,-1218"/>
<text text-anchor="middle" x="2354" y="-1195.5" font-family="Times,serif" font-size="15.00" fill="#000000">zoptions_Countries</text>
</g>
<!-- zoptions_Countries&#45;&gt;Sites -->
<g id="edge112" class="edge">
<title>zoptions_Countries&#45;&gt;Sites</title>
<path fill="none" stroke="#696969" d="M2354,-1181.7859C2354,-1170.4182 2354,-1154.8472 2354,-1138.3633"/>
<polygon fill="#696969" stroke="#696969" points="2357.5001,-1138.0111 2354,-1128.0112 2350.5001,-1138.0112 2357.5001,-1138.0111"/>
</g>
<!-- DataTable -->
<g id="node54" class="node">
<title>DataTable</title>
<ellipse fill="#ffa500" stroke="#000000" cx="2606" cy="-1200" rx="36" ry="36"/>
<text text-anchor="middle" x="2606" y="-1197" font-family="Times,serif" font-size="10.00" fill="#000000">DataTable</text>
</g>
<!-- LookUpTable -->
<g id="node55" class="node">
<title>LookUpTable</title>
<polygon fill="#add8e6" stroke="#000000" points="2552,-1218 2480,-1218 2480,-1182 2552,-1182 2552,-1218"/>
<text text-anchor="middle" x="2516" y="-1197" font-family="Times,serif" font-size="10.00" fill="#000000">LookUpTable</text>
</g>
</g>
</svg>

