<?xml version="1.0" encoding="UTF-8" standalone="no"?>
<!DOCTYPE svg PUBLIC "-//W3C//DTD SVG 1.1//EN"
 "http://www.w3.org/Graphics/SVG/1.1/DTD/svg11.dtd">
<!-- Generated by graphviz version 2.40.1 (20161225.0304)
 -->
<!-- Title: %0 Pages: 1 -->
<svg width="5456pt" height="1260pt"
 viewBox="0.00 0.00 5456.00 1260.00" xmlns="http://www.w3.org/2000/svg" xmlns:xlink="http://www.w3.org/1999/xlink">
<g id="graph0" class="graph" transform="scale(1 1) rotate(0) translate(4 1256)">
<title>%0</title>
<polygon fill="#ffffff" stroke="transparent" points="-4,4 -4,-1256 5452,-1256 5452,4 -4,4"/>
<g id="clust1" class="cluster">
<title>cluster</title>
<polygon fill="none" stroke="#000000" points="2253,-1156 2253,-1244 2431,-1244 2431,-1156 2253,-1156"/>
</g>
<!-- ABotCharcoal -->
<g id="node1" class="node">
<title>ABotCharcoal</title>
<ellipse fill="#ffa500" stroke="#000000" cx="233" cy="-273" rx="79" ry="79"/>
<text text-anchor="middle" x="233" y="-268.5" font-family="Times,serif" font-size="15.00" fill="#000000">ABotCharcoal</text>
</g>
<!-- ABotIsotopes -->
<g id="node2" class="node">
<title>ABotIsotopes</title>
<ellipse fill="#ffa500" stroke="#000000" cx="1280" cy="-467" rx="79" ry="79"/>
<text text-anchor="middle" x="1280" y="-462.5" font-family="Times,serif" font-size="15.00" fill="#000000">ABotIsotopes</text>
</g>
<!-- ABotPhases -->
<g id="node3" class="node">
<title>ABotPhases</title>
<ellipse fill="#ffa500" stroke="#000000" cx="342" cy="-661" rx="79" ry="79"/>
<text text-anchor="middle" x="342" y="-656.5" font-family="Times,serif" font-size="15.00" fill="#000000">ABotPhases</text>
</g>
<!-- ABotPhases&#45;&gt;ABotIsotopes -->
<g id="edge2" class="edge">
<title>ABotPhases&#45;&gt;ABotIsotopes</title>
<path fill="none" stroke="#696969" d="M419.5585,-644.9591C592.8211,-609.1244 1010.3664,-522.7664 1192.5377,-485.0892"/>
<polygon fill="#696969" stroke="#696969" points="1193.267,-488.5125 1202.3509,-483.0596 1191.8492,-481.6576 1193.267,-488.5125"/>
</g>
<!-- ABotSamples -->
<g id="node4" class="node">
<title>ABotSamples</title>
<ellipse fill="#ffa500" stroke="#000000" cx="233" cy="-467" rx="79" ry="79"/>
<text text-anchor="middle" x="233" y="-462.5" font-family="Times,serif" font-size="15.00" fill="#000000">ABotSamples</text>
</g>
<!-- ABotPhases&#45;&gt;ABotSamples -->
<g id="edge13" class="edge">
<title>ABotPhases&#45;&gt;ABotSamples</title>
<path fill="none" stroke="#696969" d="M303.2638,-592.0566C294.7214,-576.8528 285.6138,-560.6428 276.8841,-545.1057"/>
<polygon fill="#696969" stroke="#696969" points="279.7448,-543.0518 271.795,-536.048 273.6421,-546.4806 279.7448,-543.0518"/>
</g>
<!-- ABotSamples&#45;&gt;ABotCharcoal -->
<g id="edge1" class="edge">
<title>ABotSamples&#45;&gt;ABotCharcoal</title>
<path fill="none" stroke="#696969" d="M233,-387.813C233,-379.4705 233,-370.946 233,-362.4979"/>
<polygon fill="#696969" stroke="#696969" points="236.5001,-362.2482 233,-352.2483 229.5001,-362.2483 236.5001,-362.2482"/>
</g>
<!-- C14Ghosts -->
<g id="node5" class="node">
<title>C14Ghosts</title>
<ellipse fill="#ffa500" stroke="#000000" cx="2330" cy="-661" rx="79" ry="79"/>
<text text-anchor="middle" x="2330" y="-656.5" font-family="Times,serif" font-size="15.00" fill="#000000">C14Ghosts</text>
</g>
<!-- C14Samples -->
<g id="node6" class="node">
<title>C14Samples</title>
<ellipse fill="#ffa500" stroke="#000000" cx="1550" cy="-661" rx="79" ry="79"/>
<text text-anchor="middle" x="1550" y="-656.5" font-family="Times,serif" font-size="15.00" fill="#000000">C14Samples</text>
</g>
<!-- Citations -->
<g id="node7" class="node">
<title>Citations</title>
<ellipse fill="#ffa500" stroke="#000000" cx="3403" cy="-855" rx="79" ry="79"/>
<text text-anchor="middle" x="3403" y="-850.5" font-family="Times,serif" font-size="15.00" fill="#000000">Citations</text>
</g>
<!-- Citations&#45;&gt;ABotIsotopes -->
<g id="edge3" class="edge">
<title>Citations&#45;&gt;ABotIsotopes</title>
<path fill="none" stroke="#696969" d="M3325.6384,-838.9257C3192.1861,-810.8861 2931.5003,-754.6216 2917,-740 2866.2853,-688.8612 2935.6544,-628.9048 2881,-582 2852.0658,-557.1685 1701.8249,-490.7083 1369.2167,-471.9763"/>
<polygon fill="#696969" stroke="#696969" points="1369.3254,-468.477 1359.1446,-471.4096 1368.9321,-475.466 1369.3254,-468.477"/>
</g>
<!-- Citations&#45;&gt;C14Ghosts -->
<g id="edge23" class="edge">
<title>Citations&#45;&gt;C14Ghosts</title>
<path fill="none" stroke="#696969" d="M3326.1998,-835.4591C3250.9834,-817.1106 3132.8618,-790.3906 3029,-776 2792.9396,-743.2925 2724.4249,-800.8165 2494,-740 2464.6157,-732.2445 2434.1664,-719.1686 2407.5983,-705.8635"/>
<polygon fill="#696969" stroke="#696969" points="2408.8692,-702.5828 2398.3708,-701.1562 2405.6882,-708.8182 2408.8692,-702.5828"/>
</g>
<!-- Citations&#45;&gt;C14Samples -->
<g id="edge30" class="edge">
<title>Citations&#45;&gt;C14Samples</title>
<path fill="none" stroke="#696969" d="M3326.3167,-834.5488C3251.187,-815.5253 3133.1277,-788.3201 3029,-776 2738.6932,-741.6517 1998.0818,-808.9592 1714,-740 1684.2002,-732.7663 1653.4297,-719.6668 1626.7055,-706.1873"/>
<polygon fill="#696969" stroke="#696969" points="1628.2984,-703.0709 1617.8048,-701.6094 1625.0966,-709.2957 1628.2984,-703.0709"/>
</g>
<!-- FaunalIsotopeSequences -->
<g id="node9" class="node">
<title>FaunalIsotopeSequences</title>
<ellipse fill="#ffa500" stroke="#000000" cx="2708" cy="-467" rx="79" ry="79"/>
<text text-anchor="middle" x="2708" y="-462.5" font-family="Times,serif" font-size="15.00" fill="#000000">FaunalIsotopeSequences</text>
</g>
<!-- Citations&#45;&gt;FaunalIsotopeSequences -->
<g id="edge50" class="edge">
<title>Citations&#45;&gt;FaunalIsotopeSequences</title>
<path fill="none" stroke="#696969" d="M3324.6695,-843.9185C3247.0502,-829.932 3127.5552,-800.0442 3041,-740 2967.6544,-689.1195 2985.0318,-639.7933 2917,-582 2878.9995,-549.7184 2830.5162,-522.3653 2789.8149,-502.4449"/>
<polygon fill="#696969" stroke="#696969" points="2791.2486,-499.2505 2780.7216,-498.0538 2788.2046,-505.5541 2791.2486,-499.2505"/>
</g>
<!-- FaunalIsotopes -->
<g id="node10" class="node">
<title>FaunalIsotopes</title>
<ellipse fill="#ffa500" stroke="#000000" cx="2582" cy="-661" rx="79" ry="79"/>
<text text-anchor="middle" x="2582" y="-656.5" font-family="Times,serif" font-size="15.00" fill="#000000">FaunalIsotopes</text>
</g>
<!-- Citations&#45;&gt;FaunalIsotopes -->
<g id="edge52" class="edge">
<title>Citations&#45;&gt;FaunalIsotopes</title>
<path fill="none" stroke="#696969" d="M3326.0901,-836.2061C3250.7923,-818.4114 3132.6122,-792.0897 3029,-776 2870.5434,-751.3936 2816.6956,-804.7641 2670,-740 2660.9847,-736.0199 2652.2563,-730.7549 2644.0243,-724.8269"/>
<polygon fill="#696969" stroke="#696969" points="2646.0446,-721.9662 2635.9655,-718.7009 2641.8084,-727.539 2646.0446,-721.9662"/>
</g>
<!-- FaunalSpecies -->
<g id="node11" class="node">
<title>FaunalSpecies</title>
<ellipse fill="#ffa500" stroke="#000000" cx="2758" cy="-661" rx="79" ry="79"/>
<text text-anchor="middle" x="2758" y="-656.5" font-family="Times,serif" font-size="15.00" fill="#000000">FaunalSpecies</text>
</g>
<!-- Citations&#45;&gt;FaunalSpecies -->
<g id="edge57" class="edge">
<title>Citations&#45;&gt;FaunalSpecies</title>
<path fill="none" stroke="#696969" d="M3325.3716,-839.0703C3191.8803,-811.4639 2929.2347,-756.135 2889,-740 2869.7227,-732.2694 2849.9984,-721.8897 2831.899,-711.2009"/>
<polygon fill="#696969" stroke="#696969" points="2833.5266,-708.0955 2823.1535,-705.9391 2829.9178,-714.0936 2833.5266,-708.0955"/>
</g>
<!-- GraveIndividuals -->
<g id="node13" class="node">
<title>GraveIndividuals</title>
<ellipse fill="#ffa500" stroke="#000000" cx="3838" cy="-467" rx="79" ry="79"/>
<text text-anchor="middle" x="3838" y="-462.5" font-family="Times,serif" font-size="15.00" fill="#000000">GraveIndividuals</text>
</g>
<!-- Citations&#45;&gt;GraveIndividuals -->
<g id="edge62" class="edge">
<title>Citations&#45;&gt;GraveIndividuals</title>
<path fill="none" stroke="#696969" d="M3457.9712,-798.2382C3470.6973,-789.3909 3484.7029,-781.4042 3499,-776 3595.326,-739.5892 3891.0692,-815.5919 3961,-740 4008.6869,-688.4527 3990.0857,-645.9154 3961,-582 3960.0643,-579.9438 3931.5129,-554.9815 3902.107,-528.8382"/>
<polygon fill="#696969" stroke="#696969" points="3904.4247,-526.2156 3894.6288,-522.1794 3899.7696,-531.4434 3904.4247,-526.2156"/>
</g>
<!-- Citations&#45;&gt;GraveIndividuals -->
<g id="edge67" class="edge">
<title>Citations&#45;&gt;GraveIndividuals</title>
<path fill="none" stroke="#696969" d="M3465.0724,-805.7274C3480.9851,-793.9984 3498.7552,-782.8964 3517,-776 3613.326,-739.5892 3909.0692,-815.5919 3979,-740 4026.6869,-688.4527 4008.0857,-645.9154 3979,-582 3977.9723,-579.7416 3943.628,-549.8483 3909.0379,-521.1089"/>
<polygon fill="#696969" stroke="#696969" points="3911.1348,-518.3011 3901.1999,-514.6205 3906.6711,-523.6933 3911.1348,-518.3011"/>
</g>
<!-- Graves -->
<g id="node14" class="node">
<title>Graves</title>
<ellipse fill="#ffa500" stroke="#000000" cx="3396" cy="-661" rx="79" ry="79"/>
<text text-anchor="middle" x="3396" y="-656.5" font-family="Times,serif" font-size="15.00" fill="#000000">Graves</text>
</g>
<!-- Citations&#45;&gt;Graves -->
<g id="edge68" class="edge">
<title>Citations&#45;&gt;Graves</title>
<path fill="none" stroke="#696969" d="M3400.1427,-775.813C3399.8417,-767.4705 3399.5341,-758.946 3399.2293,-750.4979"/>
<polygon fill="#696969" stroke="#696969" points="3402.7179,-750.1155 3398.8595,-740.2483 3395.7224,-750.368 3402.7179,-750.1155"/>
</g>
<!-- Health -->
<g id="node15" class="node">
<title>Health</title>
<ellipse fill="#ffa500" stroke="#000000" cx="4081" cy="-273" rx="79" ry="79"/>
<text text-anchor="middle" x="4081" y="-268.5" font-family="Times,serif" font-size="15.00" fill="#000000">Health</text>
</g>
<!-- Citations&#45;&gt;Health -->
<g id="edge71" class="edge">
<title>Citations&#45;&gt;Health</title>
<path fill="none" stroke="#696969" d="M3455.4713,-795.7951C3465.1697,-787.9041 3475.801,-780.8696 3487,-776 3598.9176,-727.335 3935.5087,-810.6775 4035,-740 4097.1819,-695.8266 4046.937,-634.782 4102,-582 4134.8956,-550.4671 4172.0447,-583.4535 4198,-546 4237.9982,-488.2826 4225.1523,-452.7604 4198,-388 4188.2674,-364.787 4171.3112,-343.896 4153.2787,-326.4902"/>
<polygon fill="#696969" stroke="#696969" points="4155.2056,-323.5019 4145.5025,-319.2474 4150.4346,-328.6242 4155.2056,-323.5019"/>
</g>
<!-- HumanIsotopes -->
<g id="node16" class="node">
<title>HumanIsotopes</title>
<ellipse fill="#ffa500" stroke="#000000" cx="3416" cy="-273" rx="79" ry="79"/>
<text text-anchor="middle" x="3416" y="-268.5" font-family="Times,serif" font-size="15.00" fill="#000000">HumanIsotopes</text>
</g>
<!-- Citations&#45;&gt;HumanIsotopes -->
<g id="edge74" class="edge">
<title>Citations&#45;&gt;HumanIsotopes</title>
<path fill="none" stroke="#696969" d="M3456.4102,-796.3974C3465.9199,-788.5358 3476.2468,-781.3526 3487,-776 3572.1653,-733.6074 3636.648,-812.7063 3698,-740 3812.9731,-603.7493 3606.4099,-415.3849 3488.9916,-325.2061"/>
<polygon fill="#696969" stroke="#696969" points="3490.7723,-322.1627 3480.6972,-318.885 3486.5293,-327.7302 3490.7723,-322.1627"/>
</g>
<!-- MaterialCulture -->
<g id="node18" class="node">
<title>MaterialCulture</title>
<ellipse fill="#ffa500" stroke="#000000" cx="4404" cy="-661" rx="79" ry="79"/>
<text text-anchor="middle" x="4404" y="-656.5" font-family="Times,serif" font-size="15.00" fill="#000000">MaterialCulture</text>
</g>
<!-- Citations&#45;&gt;MaterialCulture -->
<g id="edge78" class="edge">
<title>Citations&#45;&gt;MaterialCulture</title>
<path fill="none" stroke="#696969" d="M3472.7204,-817.7468C3505.7936,-801.9202 3546.4372,-785.0582 3585,-776 3885.2434,-705.4742 3983.9083,-832.8983 4278,-740 4296.6592,-734.1059 4315.3137,-724.7776 4332.3309,-714.5652"/>
<polygon fill="#696969" stroke="#696969" points="4334.409,-717.3952 4341.0718,-709.1577 4330.7262,-711.4423 4334.409,-717.3952"/>
</g>
<!-- PhaseCitation -->
<g id="node19" class="node">
<title>PhaseCitation</title>
<ellipse fill="#ffa500" stroke="#000000" cx="3610" cy="-661" rx="79" ry="79"/>
<text text-anchor="middle" x="3610" y="-656.5" font-family="Times,serif" font-size="15.00" fill="#000000">PhaseCitation</text>
</g>
<!-- Citations&#45;&gt;PhaseCitation -->
<g id="edge95" class="edge">
<title>Citations&#45;&gt;PhaseCitation</title>
<path fill="none" stroke="#696969" d="M3460.661,-800.9602C3486.7951,-776.4674 3517.8156,-747.3951 3544.7946,-722.1103"/>
<polygon fill="#696969" stroke="#696969" points="3547.3864,-724.4782 3552.2895,-715.0861 3542.5996,-719.3706 3547.3864,-724.4782"/>
</g>
<!-- Rites -->
<g id="node23" class="node">
<title>Rites</title>
<ellipse fill="#ffa500" stroke="#000000" cx="3872" cy="-273" rx="79" ry="79"/>
<text text-anchor="middle" x="3872" y="-268.5" font-family="Times,serif" font-size="15.00" fill="#000000">Rites</text>
</g>
<!-- Citations&#45;&gt;Rites -->
<g id="edge108" class="edge">
<title>Citations&#45;&gt;Rites</title>
<path fill="none" stroke="#696969" d="M3455.4863,-795.8294C3465.1828,-787.9341 3475.8096,-780.8894 3487,-776 3540.0715,-752.8118 3967.4867,-782.3435 4007,-740 4054.9092,-688.6593 4036.7125,-645.6265 4007,-582 3996.4539,-559.4165 3977.1317,-567.1847 3964,-546 3925.9479,-484.6124 3949.9166,-456.1498 3926,-388 3921.9369,-376.4223 3917.0898,-364.446 3911.9912,-352.7911"/>
<polygon fill="#696969" stroke="#696969" points="3915.1289,-351.2334 3907.8585,-343.5268 3908.7361,-354.0852 3915.1289,-351.2334"/>
</g>
<!-- Strontium -->
<g id="node25" class="node">
<title>Strontium</title>
<ellipse fill="#ffa500" stroke="#000000" cx="2979" cy="-273" rx="79" ry="79"/>
<text text-anchor="middle" x="2979" y="-268.5" font-family="Times,serif" font-size="15.00" fill="#000000">Strontium</text>
</g>
<!-- Citations&#45;&gt;Strontium -->
<g id="edge111" class="edge">
<title>Citations&#45;&gt;Strontium</title>
<path fill="none" stroke="#696969" d="M3325.7164,-837.3394C3239.4483,-816.0751 3107.5217,-778.4051 3074,-740 3025.694,-684.6568 2998.6936,-481.3939 2986.684,-362.0488"/>
<polygon fill="#696969" stroke="#696969" points="2990.1409,-361.4394 2985.672,-351.8332 2983.175,-362.1295 2990.1409,-361.4394"/>
</g>
<!-- StrontiumEnvironment -->
<g id="node26" class="node">
<title>StrontiumEnvironment</title>
<ellipse fill="#ffa500" stroke="#000000" cx="4190" cy="-661" rx="79" ry="79"/>
<text text-anchor="middle" x="4190" y="-656.5" font-family="Times,serif" font-size="15.00" fill="#000000">StrontiumEnvironment</text>
</g>
<!-- Citations&#45;&gt;StrontiumEnvironment -->
<g id="edge115" class="edge">
<title>Citations&#45;&gt;StrontiumEnvironment</title>
<path fill="none" stroke="#696969" d="M3461.6038,-801.6445C3475.8686,-791.3922 3491.7317,-781.9944 3508,-776 3754.0918,-685.3224 3853.6976,-837.9161 4097,-740 4107.3362,-735.8402 4117.3507,-730.0553 4126.7394,-723.4885"/>
<polygon fill="#696969" stroke="#696969" points="4128.844,-726.2853 4134.8213,-717.5376 4124.6935,-720.6485 4128.844,-726.2853"/>
</g>
<!-- FaunalBiometrics -->
<g id="node8" class="node">
<title>FaunalBiometrics</title>
<ellipse fill="#ffa500" stroke="#000000" cx="1978" cy="-661" rx="79" ry="79"/>
<text text-anchor="middle" x="1978" y="-656.5" font-family="Times,serif" font-size="15.00" fill="#000000">FaunalBiometrics</text>
</g>
<!-- FaunalIsotopes&#45;&gt;FaunalIsotopeSequences -->
<g id="edge51" class="edge">
<title>FaunalIsotopes&#45;&gt;FaunalIsotopeSequences</title>
<path fill="none" stroke="#696969" d="M2625.1858,-594.5076C2636.2056,-577.5406 2648.1259,-559.1871 2659.3967,-541.8337"/>
<polygon fill="#696969" stroke="#696969" points="2662.359,-543.6983 2664.8707,-533.4055 2656.4885,-539.8855 2662.359,-543.6983"/>
</g>
<!-- GraveConstruction -->
<g id="node12" class="node">
<title>GraveConstruction</title>
<ellipse fill="#ffa500" stroke="#000000" cx="3294" cy="-467" rx="79" ry="79"/>
<text text-anchor="middle" x="3294" y="-462.5" font-family="Times,serif" font-size="15.00" fill="#000000">GraveConstruction</text>
</g>
<!-- GraveIndividuals&#45;&gt;Health -->
<g id="edge72" class="edge">
<title>GraveIndividuals&#45;&gt;Health</title>
<path fill="none" stroke="#696969" d="M3899.9479,-417.5436C3933.9372,-390.4082 3976.1871,-356.6778 4011.3221,-328.6276"/>
<polygon fill="#696969" stroke="#696969" points="4013.5339,-331.3404 4019.1652,-322.366 4009.1665,-325.8699 4013.5339,-331.3404"/>
</g>
<!-- GraveIndividuals&#45;&gt;HumanIsotopes -->
<g id="edge75" class="edge">
<title>GraveIndividuals&#45;&gt;HumanIsotopes</title>
<path fill="none" stroke="#696969" d="M3776.6203,-417.0725C3762.1699,-406.6425 3746.4592,-396.3057 3731,-388 3657.3411,-348.4256 3567.1816,-317.0587 3502.2221,-297.1465"/>
<polygon fill="#696969" stroke="#696969" points="3503.0084,-293.7275 3492.4229,-294.1709 3500.9745,-300.4255 3503.0084,-293.7275"/>
</g>
<!-- GraveIndividuals&#45;&gt;Rites -->
<g id="edge109" class="edge">
<title>GraveIndividuals&#45;&gt;Rites</title>
<path fill="none" stroke="#696969" d="M3851.6821,-388.9314C3853.2947,-379.7302 3854.9487,-370.2925 3856.5831,-360.9672"/>
<polygon fill="#696969" stroke="#696969" points="3860.067,-361.3629 3858.3459,-350.9088 3853.1721,-360.1545 3860.067,-361.3629"/>
</g>
<!-- GraveIndividuals&#45;&gt;Strontium -->
<g id="edge112" class="edge">
<title>GraveIndividuals&#45;&gt;Strontium</title>
<path fill="none" stroke="#696969" d="M3760.666,-449.5829C3660.741,-427.073 3481.3841,-386.6534 3328,-352 3238.9121,-331.8728 3137.0443,-308.8081 3066.458,-292.8182"/>
<polygon fill="#696969" stroke="#696969" points="3066.802,-289.3075 3056.2759,-290.5115 3065.2554,-296.1345 3066.802,-289.3075"/>
</g>
<!-- Graves&#45;&gt;GraveConstruction -->
<g id="edge60" class="edge">
<title>Graves&#45;&gt;GraveConstruction</title>
<path fill="none" stroke="#696969" d="M3359.1757,-590.9615C3351.5202,-576.4011 3343.4018,-560.9603 3335.5887,-546.1001"/>
<polygon fill="#696969" stroke="#696969" points="3338.522,-544.158 3330.7703,-536.9356 3332.3261,-547.4156 3338.522,-544.158"/>
</g>
<!-- Graves&#45;&gt;GraveIndividuals -->
<g id="edge63" class="edge">
<title>Graves&#45;&gt;GraveIndividuals</title>
<path fill="none" stroke="#696969" d="M3453.4917,-606.35C3464.7178,-597.4053 3476.8058,-588.8409 3489,-582 3572.2946,-535.2722 3677.5224,-503.8683 3750.5445,-485.8459"/>
<polygon fill="#696969" stroke="#696969" points="3751.7403,-489.1572 3760.6289,-483.3915 3750.0848,-482.3557 3751.7403,-489.1572"/>
</g>
<!-- Items -->
<g id="node17" class="node">
<title>Items</title>
<ellipse fill="#ffa500" stroke="#000000" cx="2941" cy="-855" rx="79" ry="79"/>
<text text-anchor="middle" x="2941" y="-850.5" font-family="Times,serif" font-size="15.00" fill="#000000">Items</text>
</g>
<!-- Items&#45;&gt;ABotIsotopes -->
<g id="edge4" class="edge">
<title>Items&#45;&gt;ABotIsotopes</title>
<path fill="none" stroke="#696969" d="M2906.6213,-783.6422C2900.3406,-769.3555 2894.1529,-754.3302 2889,-740 2864.3744,-671.5166 2902.1659,-628.2795 2846,-582 2817.2768,-558.3327 1697.3793,-491.3246 1369.382,-472.1717"/>
<polygon fill="#696969" stroke="#696969" points="1369.1664,-468.6532 1358.9795,-471.5648 1368.7587,-475.6413 1369.1664,-468.6532"/>
</g>
<!-- Items&#45;&gt;C14Ghosts -->
<g id="edge24" class="edge">
<title>Items&#45;&gt;C14Ghosts</title>
<path fill="none" stroke="#696969" d="M2872.4582,-815.3808C2844.3378,-800.7907 2810.9363,-785.5193 2779,-776 2656.6465,-739.5299 2616.441,-776.1753 2494,-740 2464.8549,-731.3891 2434.4651,-718.1003 2407.8781,-704.863"/>
<polygon fill="#696969" stroke="#696969" points="2409.144,-701.5811 2398.6408,-700.1907 2405.9845,-707.8275 2409.144,-701.5811"/>
</g>
<!-- Items&#45;&gt;C14Samples -->
<g id="edge31" class="edge">
<title>Items&#45;&gt;C14Samples</title>
<path fill="none" stroke="#696969" d="M2873.2658,-814.0788C2845.1233,-799.2076 2811.4916,-784.0807 2779,-776 2549.1984,-718.848 1943.9385,-796.5985 1714,-740 1684.2236,-732.6706 1653.4587,-719.548 1626.7325,-706.0767"/>
<polygon fill="#696969" stroke="#696969" points="1628.325,-702.96 1617.8309,-701.5027 1625.1257,-709.1862 1628.325,-702.96"/>
</g>
<!-- Items&#45;&gt;FaunalIsotopes -->
<g id="edge53" class="edge">
<title>Items&#45;&gt;FaunalIsotopes</title>
<path fill="none" stroke="#696969" d="M2870.967,-818.2897C2842.7786,-804.191 2809.7235,-788.4985 2779,-776 2731.7424,-756.7754 2714.1403,-765.5832 2670,-740 2661.9123,-735.3124 2653.9177,-729.7933 2646.2391,-723.8866"/>
<polygon fill="#696969" stroke="#696969" points="2648.0413,-720.847 2638.0415,-717.3463 2643.6756,-726.3189 2648.0413,-720.847"/>
</g>
<!-- Items&#45;&gt;GraveIndividuals -->
<g id="edge64" class="edge">
<title>Items&#45;&gt;GraveIndividuals</title>
<path fill="none" stroke="#696969" d="M3018.4655,-838.6279C3168.4138,-806.9321 3483.7368,-740.2561 3484,-740 3535.7634,-689.6319 3473.895,-635.873 3522,-582 3580.0279,-517.0144 3677.7834,-488.715 3749.2308,-476.4135"/>
<polygon fill="#696969" stroke="#696969" points="3749.8333,-479.8615 3759.1309,-474.7817 3748.6948,-472.9547 3749.8333,-479.8615"/>
</g>
<!-- Items&#45;&gt;Graves -->
<g id="edge69" class="edge">
<title>Items&#45;&gt;Graves</title>
<path fill="none" stroke="#696969" d="M3019.0417,-840.6831C3096.1382,-824.2699 3215.5975,-792.6132 3308,-740 3316.1234,-735.3746 3324.141,-729.8955 3331.8333,-724.0127"/>
<polygon fill="#696969" stroke="#696969" points="3334.3889,-726.4525 3340.0423,-717.4921 3330.035,-720.9713 3334.3889,-726.4525"/>
</g>
<!-- Items&#45;&gt;HumanIsotopes -->
<g id="edge76" class="edge">
<title>Items&#45;&gt;HumanIsotopes</title>
<path fill="none" stroke="#696969" d="M2966.5528,-779.8592C3004.3743,-678.6791 3084.1841,-498.5995 3206,-388 3243.1945,-354.2302 3292.0753,-326.7146 3333.3179,-307.0746"/>
<polygon fill="#696969" stroke="#696969" points="3334.9665,-310.1673 3342.536,-302.7543 3331.9958,-303.8289 3334.9665,-310.1673"/>
</g>
<!-- Items&#45;&gt;MaterialCulture -->
<g id="edge79" class="edge">
<title>Items&#45;&gt;MaterialCulture</title>
<path fill="none" stroke="#696969" d="M3017.7109,-834.7775C3092.8611,-815.9236 3210.9352,-788.8404 3315,-776 3527.5377,-749.7753 4073.3328,-803.0185 4278,-740 4296.7016,-734.2416 4315.3733,-724.9688 4332.3938,-714.767"/>
<polygon fill="#696969" stroke="#696969" points="4334.4711,-717.5977 4341.1353,-709.3612 4330.7893,-711.6441 4334.4711,-717.5977"/>
</g>
<!-- Items&#45;&gt;Strontium -->
<g id="edge113" class="edge">
<title>Items&#45;&gt;Strontium</title>
<path fill="none" stroke="#696969" d="M2946.1644,-775.9032C2953.2164,-667.8966 2965.8222,-474.8282 2973.194,-361.9231"/>
<polygon fill="#696969" stroke="#696969" points="2976.6878,-362.1307 2973.8469,-351.9239 2969.7027,-361.6746 2976.6878,-362.1307"/>
</g>
<!-- PhaseOrder -->
<g id="node20" class="node">
<title>PhaseOrder</title>
<ellipse fill="#ffa500" stroke="#000000" cx="2154" cy="-661" rx="79" ry="79"/>
<text text-anchor="middle" x="2154" y="-656.5" font-family="Times,serif" font-size="15.00" fill="#000000">PhaseOrder</text>
</g>
<!-- PhaseTypes -->
<g id="node21" class="node">
<title>PhaseTypes</title>
<ellipse fill="#ffa500" stroke="#000000" cx="1802" cy="-661" rx="79" ry="79"/>
<text text-anchor="middle" x="1802" y="-656.5" font-family="Times,serif" font-size="15.00" fill="#000000">PhaseTypes</text>
</g>
<!-- Phases -->
<g id="node22" class="node">
<title>Phases</title>
<ellipse fill="#ffa500" stroke="#000000" cx="2457" cy="-855" rx="79" ry="79"/>
<text text-anchor="middle" x="2457" y="-850.5" font-family="Times,serif" font-size="15.00" fill="#000000">Phases</text>
</g>
<!-- Phases&#45;&gt;ABotPhases -->
<g id="edge8" class="edge">
<title>Phases&#45;&gt;ABotPhases</title>
<path fill="none" stroke="#696969" d="M2403.2952,-796.6838C2392.7624,-788.3509 2381.1749,-780.9423 2369,-776 2275.5491,-738.0648 1562.7044,-745.5489 1462,-740 1078.0957,-718.8467 620.8851,-683.3913 431.2397,-668.231"/>
<polygon fill="#696969" stroke="#696969" points="431.2932,-664.7241 421.0458,-667.415 430.7346,-671.7018 431.2932,-664.7241"/>
</g>
<!-- Phases&#45;&gt;C14Ghosts -->
<g id="edge25" class="edge">
<title>Phases&#45;&gt;C14Ghosts</title>
<path fill="none" stroke="#696969" d="M2405.2842,-795.2106C2393.2476,-778.1804 2380.6697,-759.3464 2369.2511,-741.3066"/>
<polygon fill="#696969" stroke="#696969" points="2372.0235,-739.1394 2363.7463,-732.5259 2366.0926,-742.8577 2372.0235,-739.1394"/>
</g>
<!-- Phases&#45;&gt;C14Ghosts -->
<g id="edge26" class="edge">
<title>Phases&#45;&gt;C14Ghosts</title>
<path fill="none" stroke="#696969" d="M2413.649,-788.7788C2402.4718,-771.705 2390.3655,-753.2119 2378.9262,-735.7376"/>
<polygon fill="#696969" stroke="#696969" points="2381.7766,-733.7016 2373.3711,-727.2519 2375.9199,-737.5356 2381.7766,-733.7016"/>
</g>
<!-- Phases&#45;&gt;C14Ghosts -->
<g id="edge27" class="edge">
<title>Phases&#45;&gt;C14Ghosts</title>
<path fill="none" stroke="#696969" d="M2423.1536,-783.3127C2412.2094,-765.6888 2399.8479,-746.8661 2387.7429,-729.4018"/>
<polygon fill="#696969" stroke="#696969" points="2390.429,-727.1357 2381.8283,-720.9487 2384.6935,-731.1487 2390.429,-727.1357"/>
</g>
<!-- Phases&#45;&gt;C14Samples -->
<g id="edge32" class="edge">
<title>Phases&#45;&gt;C14Samples</title>
<path fill="none" stroke="#696969" d="M2395.4148,-804.8842C2381.8801,-793.3854 2366.9297,-782.6082 2351,-776 2216.351,-720.1424 1837.1744,-776.3346 1696,-740 1671.2522,-733.6306 1645.7764,-723.4033 1623.0686,-712.3907"/>
<polygon fill="#696969" stroke="#696969" points="1624.3615,-709.1247 1613.8495,-707.8022 1621.2424,-715.3914 1624.3615,-709.1247"/>
</g>
<!-- Phases&#45;&gt;C14Samples -->
<g id="edge33" class="edge">
<title>Phases&#45;&gt;C14Samples</title>
<path fill="none" stroke="#696969" d="M2403.231,-796.8401C2392.7054,-788.4898 2381.1369,-781.0349 2369,-776 2234.351,-720.1424 1855.1744,-776.3346 1714,-740 1684.5686,-732.4251 1654.1076,-719.3941 1627.5433,-706.0747"/>
<polygon fill="#696969" stroke="#696969" points="1628.815,-702.7941 1618.3177,-701.3599 1625.6295,-709.0273 1628.815,-702.7941"/>
</g>
<!-- Phases&#45;&gt;C14Samples -->
<g id="edge34" class="edge">
<title>Phases&#45;&gt;C14Samples</title>
<path fill="none" stroke="#696969" d="M2412.0087,-790.0409C2404.1531,-784.4878 2395.7234,-779.6188 2387,-776 2252.351,-720.1424 1873.1744,-776.3346 1732,-740 1697.4583,-731.1099 1661.4983,-714.7043 1630.5416,-699.1375"/>
<polygon fill="#696969" stroke="#696969" points="1632.0276,-695.9668 1621.5266,-694.5602 1628.8585,-702.2083 1632.0276,-695.9668"/>
</g>
<!-- Phases&#45;&gt;FaunalBiometrics -->
<g id="edge46" class="edge">
<title>Phases&#45;&gt;FaunalBiometrics</title>
<path fill="none" stroke="#696969" d="M2402.459,-797.0902C2392.098,-788.8242 2380.7843,-781.3321 2369,-776 2245.4454,-720.095 2189.5546,-795.905 2066,-740 2057.2538,-736.0426 2048.7669,-730.8954 2040.7363,-725.125"/>
<polygon fill="#696969" stroke="#696969" points="2042.6238,-722.1637 2032.541,-718.9098 2038.3939,-727.7412 2042.6238,-722.1637"/>
</g>
<!-- Phases&#45;&gt;FaunalIsotopes -->
<g id="edge54" class="edge">
<title>Phases&#45;&gt;FaunalIsotopes</title>
<path fill="none" stroke="#696969" d="M2499.843,-788.5076C2510.6158,-771.7883 2522.2561,-753.7226 2533.2924,-736.5942"/>
<polygon fill="#696969" stroke="#696969" points="2536.5267,-738.0365 2539.0009,-727.7346 2530.6424,-734.2451 2536.5267,-738.0365"/>
</g>
<!-- Phases&#45;&gt;FaunalSpecies -->
<g id="edge58" class="edge">
<title>Phases&#45;&gt;FaunalSpecies</title>
<path fill="none" stroke="#696969" d="M2512.8329,-798.2857C2522.9631,-789.9843 2533.8658,-782.1694 2545,-776 2595.5695,-747.9795 2619.4305,-768.0205 2670,-740 2678.1767,-735.4693 2686.2285,-730.0513 2693.9412,-724.2048"/>
<polygon fill="#696969" stroke="#696969" points="2696.4846,-726.6563 2702.1671,-717.7143 2692.1485,-721.161 2696.4846,-726.6563"/>
</g>
<!-- Phases&#45;&gt;Graves -->
<g id="edge70" class="edge">
<title>Phases&#45;&gt;Graves</title>
<path fill="none" stroke="#696969" d="M2510.7362,-796.7605C2521.2655,-788.4191 2532.8436,-780.9877 2545,-776 2702.0397,-711.5669 3150.9603,-804.4331 3308,-740 3317.1173,-736.2592 3325.9093,-731.1439 3334.1775,-725.3009"/>
<polygon fill="#696969" stroke="#696969" points="3336.3616,-728.038 3342.2638,-719.2395 3332.163,-722.4369 3336.3616,-728.038"/>
</g>
<!-- Phases&#45;&gt;MaterialCulture -->
<g id="edge80" class="edge">
<title>Phases&#45;&gt;MaterialCulture</title>
<path fill="none" stroke="#696969" d="M2506.2255,-793.0443C2515.4459,-786.1604 2525.4975,-780.1482 2536,-776 2715.1308,-705.2484 4084.4669,-795.1469 4269,-740 4290.1307,-733.6852 4311.1881,-722.7892 4330.2029,-711.0723"/>
<polygon fill="#696969" stroke="#696969" points="4332.2063,-713.9466 4338.7886,-705.6445 4328.4658,-708.0297 4332.2063,-713.9466"/>
</g>
<!-- Phases&#45;&gt;MaterialCulture -->
<g id="edge81" class="edge">
<title>Phases&#45;&gt;MaterialCulture</title>
<path fill="none" stroke="#696969" d="M2514.5483,-800.4496C2526.555,-790.5368 2539.8694,-781.5812 2554,-776 2733.1308,-705.2484 4102.4669,-795.1469 4287,-740 4303.647,-735.0251 4320.2484,-727.207 4335.5145,-718.3842"/>
<polygon fill="#696969" stroke="#696969" points="4337.5663,-721.2347 4344.3389,-713.0872 4333.9637,-715.233 4337.5663,-721.2347"/>
</g>
<!-- Phases&#45;&gt;PhaseCitation -->
<g id="edge96" class="edge">
<title>Phases&#45;&gt;PhaseCitation</title>
<path fill="none" stroke="#696969" d="M2510.6992,-796.6699C2521.2326,-788.3385 2532.8218,-780.934 2545,-776 2738.5388,-697.5876 3284.4557,-801.5454 3484,-740 3502.6988,-734.2327 3521.3695,-724.9562 3538.3897,-714.7538"/>
<polygon fill="#696969" stroke="#696969" points="3540.4671,-717.5844 3547.1312,-709.3478 3536.7852,-711.6308 3540.4671,-717.5844"/>
</g>
<!-- Phases&#45;&gt;PhaseOrder -->
<g id="edge97" class="edge">
<title>Phases&#45;&gt;PhaseOrder</title>
<path fill="none" stroke="#696969" d="M2390.5212,-811.3264C2375.2544,-798.4447 2358.9004,-785.3183 2342,-776 2290.6234,-747.6729 2266.3766,-768.3271 2215,-740 2211.5095,-738.0755 2208.0423,-735.9885 2204.6268,-733.7748"/>
<polygon fill="#696969" stroke="#696969" points="2206.4846,-730.8048 2196.2591,-728.0315 2202.5232,-736.5762 2206.4846,-730.8048"/>
</g>
<!-- Phases&#45;&gt;PhaseOrder -->
<g id="edge98" class="edge">
<title>Phases&#45;&gt;PhaseOrder</title>
<path fill="none" stroke="#696969" d="M2397.715,-802.7015C2385.92,-792.7698 2373.1248,-783.2365 2360,-776 2308.6234,-747.6729 2284.3766,-768.3271 2233,-740 2226.4488,-736.3879 2219.9798,-732.2037 2213.7282,-727.6832"/>
<polygon fill="#696969" stroke="#696969" points="2215.4342,-724.5845 2205.3507,-721.3328 2211.2055,-730.163 2215.4342,-724.5845"/>
</g>
<!-- Phases&#45;&gt;PhaseOrder -->
<g id="edge99" class="edge">
<title>Phases&#45;&gt;PhaseOrder</title>
<path fill="none" stroke="#696969" d="M2405.6493,-794.6672C2396.8842,-787.7185 2387.529,-781.2539 2378,-776 2326.6234,-747.6729 2302.3766,-768.3271 2251,-740 2240.7462,-734.3465 2230.6937,-727.2911 2221.162,-719.7391"/>
<polygon fill="#696969" stroke="#696969" points="2223.2421,-716.9189 2213.285,-713.2985 2218.8111,-722.338 2223.2421,-716.9189"/>
</g>
<!-- Phases&#45;&gt;PhaseOrder -->
<g id="edge100" class="edge">
<title>Phases&#45;&gt;PhaseOrder</title>
<path fill="none" stroke="#696969" d="M2414.7409,-787.9685C2408.6873,-783.5814 2402.3826,-779.5191 2396,-776 2344.6234,-747.6729 2320.3766,-768.3271 2269,-740 2255.0043,-732.2833 2241.3835,-721.955 2228.4444,-711.3168"/>
<polygon fill="#696969" stroke="#696969" points="2230.4003,-708.3906 2220.4788,-704.6736 2225.9169,-713.7664 2230.4003,-708.3906"/>
</g>
<!-- Phases&#45;&gt;PhaseTypes -->
<g id="edge101" class="edge">
<title>Phases&#45;&gt;PhaseTypes</title>
<path fill="none" stroke="#696969" d="M2403.1446,-797.0456C2392.6285,-788.6724 2381.0857,-781.1566 2369,-776 2172.6377,-692.2175 2086.3623,-823.7825 1890,-740 1880.9357,-736.1325 1872.1768,-730.938 1863.9274,-725.0501"/>
<polygon fill="#696969" stroke="#696969" points="1865.9449,-722.1877 1855.8554,-718.9544 1861.7264,-727.7739 1865.9449,-722.1877"/>
</g>
<!-- Sites -->
<g id="node24" class="node">
<title>Sites</title>
<ellipse fill="#ffa500" stroke="#000000" cx="2135" cy="-1049" rx="79" ry="79"/>
<text text-anchor="middle" x="2135" y="-1044.5" font-family="Times,serif" font-size="15.00" fill="#000000">Sites</text>
</g>
<!-- Sites&#45;&gt;C14Samples -->
<g id="edge35" class="edge">
<title>Sites&#45;&gt;C14Samples</title>
<path fill="none" stroke="#696969" d="M2056.3006,-1041.812C1881.4985,-1025.0528 1473.1037,-981.208 1433,-934 1387.5359,-880.482 1405.8477,-840.7604 1433,-776 1442.7326,-752.787 1459.6888,-731.896 1477.7213,-714.4902"/>
<polygon fill="#696969" stroke="#696969" points="1480.5654,-716.6242 1485.4975,-707.2474 1475.7944,-711.5019 1480.5654,-716.6242"/>
</g>
<!-- Sites&#45;&gt;Phases -->
<g id="edge103" class="edge">
<title>Sites&#45;&gt;Phases</title>
<path fill="none" stroke="#696969" d="M2190.1403,-992.3129C2200.432,-983.9053 2211.5672,-976.0491 2223,-970 2282.0733,-938.7443 2309.9267,-965.2557 2369,-934 2377.5746,-929.4632 2385.9818,-923.9098 2393.9913,-917.8698"/>
<polygon fill="#696969" stroke="#696969" points="2396.1591,-920.6177 2401.8597,-911.6871 2391.8342,-915.1136 2396.1591,-920.6177"/>
</g>
<!-- Sites&#45;&gt;StrontiumEnvironment -->
<g id="edge116" class="edge">
<title>Sites&#45;&gt;StrontiumEnvironment</title>
<path fill="none" stroke="#696969" d="M2188.6581,-990.5677C2199.1961,-982.2477 2210.7974,-974.8735 2223,-970 2353.8928,-917.7242 3375.9092,-1015.3621 3491,-934 3552.4658,-890.5475 3491.3613,-820.5996 3552,-776 3649.7764,-704.0856 3984.513,-785.5914 4097,-740 4107.1465,-735.8876 4116.9865,-730.216 4126.2301,-723.7825"/>
<polygon fill="#696969" stroke="#696969" points="4128.5512,-726.4205 4134.5431,-717.6827 4124.4101,-720.7767 4128.5512,-726.4205"/>
</g>
<!-- StrontiumSequences -->
<g id="node27" class="node">
<title>StrontiumSequences</title>
<ellipse fill="#ffa500" stroke="#000000" cx="2979" cy="-79" rx="79" ry="79"/>
<text text-anchor="middle" x="2979" y="-74.5" font-family="Times,serif" font-size="15.00" fill="#000000">StrontiumSequences</text>
</g>
<!-- Strontium&#45;&gt;StrontiumSequences -->
<g id="edge117" class="edge">
<title>Strontium&#45;&gt;StrontiumSequences</title>
<path fill="none" stroke="#696969" d="M2979,-193.813C2979,-185.4705 2979,-176.946 2979,-168.4979"/>
<polygon fill="#696969" stroke="#696969" points="2982.5001,-168.2482 2979,-158.2483 2975.5001,-168.2483 2982.5001,-168.2482"/>
</g>
<!-- zoptions_ABotAnatomy -->
<g id="node28" class="node">
<title>zoptions_ABotAnatomy</title>
<polygon fill="#add8e6" stroke="#000000" points="216,-873 0,-873 0,-837 216,-837 216,-873"/>
<text text-anchor="middle" x="108" y="-850.5" font-family="Times,serif" font-size="15.00" fill="#000000">zoptions_ABotAnatomy</text>
</g>
<!-- zoptions_ABotAnatomy&#45;&gt;ABotIsotopes -->
<g id="edge5" class="edge">
<title>zoptions_ABotAnatomy&#45;&gt;ABotIsotopes</title>
<path fill="none" stroke="#696969" d="M127.6785,-836.9029C149.6837,-815.6639 184.9848,-778.4365 206,-740 241.2079,-675.6053 197.5724,-628.9276 254,-582 325.4182,-522.6056 953.9019,-483.9962 1190.4678,-471.4545"/>
<polygon fill="#696969" stroke="#696969" points="1190.9534,-474.9339 1200.7554,-470.9125 1190.585,-467.9436 1190.9534,-474.9339"/>
</g>
<!-- zoptions_ABotAnatomy&#45;&gt;ABotSamples -->
<g id="edge14" class="edge">
<title>zoptions_ABotAnatomy&#45;&gt;ABotSamples</title>
<path fill="none" stroke="#696969" d="M104.6488,-836.8064C109.5802,-785.6027 154.6608,-637.9843 191.0731,-545.4804"/>
<polygon fill="#696969" stroke="#696969" points="194.3403,-546.736 194.792,-536.1508 187.8379,-544.144 194.3403,-546.736"/>
</g>
<!-- zoptions_ABotAnatomy&#45;&gt;ABotSamples -->
<g id="edge15" class="edge">
<title>zoptions_ABotAnatomy&#45;&gt;ABotSamples</title>
<path fill="none" stroke="#696969" d="M110.7905,-836.8064C123.2224,-786.4502 168.6257,-642.845 200.5674,-550.1187"/>
<polygon fill="#696969" stroke="#696969" points="203.943,-551.0664 203.9059,-540.4717 197.3279,-548.7771 203.943,-551.0664"/>
</g>
<!-- zoptions_ABotAnatomy&#45;&gt;ABotSamples -->
<g id="edge16" class="edge">
<title>zoptions_ABotAnatomy&#45;&gt;ABotSamples</title>
<path fill="none" stroke="#696969" d="M116.9322,-836.8064C136.7162,-787.029 182.9923,-646.1339 210.9104,-553.3361"/>
<polygon fill="#696969" stroke="#696969" points="214.2889,-554.2545 213.8034,-543.6708 207.5828,-552.2472 214.2889,-554.2545"/>
</g>
<!-- zoptions_ABotAnatomy&#45;&gt;ABotSamples -->
<g id="edge17" class="edge">
<title>zoptions_ABotAnatomy&#45;&gt;ABotSamples</title>
<path fill="none" stroke="#696969" d="M123.0739,-836.8064C150.1272,-787.4408 197.605,-648.4584 221.7606,-555.6485"/>
<polygon fill="#696969" stroke="#696969" points="225.2196,-556.2491 224.3061,-545.6938 218.4378,-554.515 225.2196,-556.2491"/>
</g>
<!-- zoptions_ABotAnatomy&#45;&gt;C14Samples -->
<g id="edge36" class="edge">
<title>zoptions_ABotAnatomy&#45;&gt;C14Samples</title>
<path fill="none" stroke="#696969" d="M127.7901,-836.9218C149.7489,-818.0626 187.1089,-789.4135 225,-776 340.9691,-734.9467 1182.1209,-682.5472 1460.6766,-666.1439"/>
<polygon fill="#696969" stroke="#696969" points="1460.9661,-669.633 1470.7435,-665.5524 1460.5554,-662.6451 1460.9661,-669.633"/>
</g>
<!-- zoptions_Preservation -->
<g id="node29" class="node">
<title>zoptions_Preservation</title>
<polygon fill="#add8e6" stroke="#000000" points="684,-873 468,-873 468,-837 684,-837 684,-873"/>
<text text-anchor="middle" x="576" y="-850.5" font-family="Times,serif" font-size="15.00" fill="#000000">zoptions_Preservation</text>
</g>
<!-- zoptions_Preservation&#45;&gt;ABotIsotopes -->
<g id="edge6" class="edge">
<title>zoptions_Preservation&#45;&gt;ABotIsotopes</title>
<path fill="none" stroke="#696969" d="M601.0422,-836.9215C624.386,-820.3526 660.4009,-795.5064 693,-776 869.3233,-670.4929 1084.9968,-561.9595 1199.5242,-505.8666"/>
<polygon fill="#696969" stroke="#696969" points="1201.1583,-508.9637 1208.6036,-501.4259 1198.0827,-502.6755 1201.1583,-508.9637"/>
</g>
<!-- zoptions_Preservation&#45;&gt;ABotSamples -->
<g id="edge18" class="edge">
<title>zoptions_Preservation&#45;&gt;ABotSamples</title>
<path fill="none" stroke="#696969" d="M565.9478,-836.9509C545.5453,-789.921 497.8181,-661.7376 421,-582 390.6046,-550.4494 349.6917,-524.692 313.7534,-505.6127"/>
<polygon fill="#696969" stroke="#696969" points="315.218,-502.4292 304.7332,-500.9065 311.98,-508.6353 315.218,-502.4292"/>
</g>
<!-- zoptions_Preservation&#45;&gt;ABotSamples -->
<g id="edge19" class="edge">
<title>zoptions_Preservation&#45;&gt;ABotSamples</title>
<path fill="none" stroke="#696969" d="M574.5689,-836.9509C563.5453,-789.921 515.8181,-661.7376 439,-582 404.7708,-546.4699 357.2038,-518.2867 316.3489,-498.7138"/>
<polygon fill="#696969" stroke="#696969" points="317.7428,-495.5017 307.2032,-494.4212 314.7685,-501.8385 317.7428,-495.5017"/>
</g>
<!-- zoptions_Preservation&#45;&gt;C14Samples -->
<g id="edge41" class="edge">
<title>zoptions_Preservation&#45;&gt;C14Samples</title>
<path fill="none" stroke="#696969" d="M596.2518,-836.7376C618.3115,-818.0109 655.4872,-789.7407 693,-776 831.9504,-725.1034 877.2453,-758.9932 1024,-740 1178.2137,-720.0415 1357.1382,-692.1581 1461.5397,-675.4111"/>
<polygon fill="#696969" stroke="#696969" points="1462.3996,-678.818 1471.7177,-673.7759 1461.2891,-671.9066 1462.3996,-678.818"/>
</g>
<!-- zoptions_Preservation&#45;&gt;MaterialCulture -->
<g id="edge88" class="edge">
<title>zoptions_Preservation&#45;&gt;MaterialCulture</title>
<path fill="none" stroke="#696969" d="M595.205,-836.709C616.9461,-817.3687 654.3894,-788.027 693,-776 883.1645,-716.7647 4086.8596,-796.0064 4278,-740 4296.884,-734.4668 4315.6918,-725.2261 4332.795,-714.976"/>
<polygon fill="#696969" stroke="#696969" points="4334.9163,-717.7791 4341.5748,-709.5381 4331.2304,-711.8281 4334.9163,-717.7791"/>
</g>
<!-- zoptions_TaxaList -->
<g id="node30" class="node">
<title>zoptions_TaxaList</title>
<polygon fill="#add8e6" stroke="#000000" points="2770,-873 2554,-873 2554,-837 2770,-837 2770,-873"/>
<text text-anchor="middle" x="2662" y="-850.5" font-family="Times,serif" font-size="15.00" fill="#000000">zoptions_TaxaList</text>
</g>
<!-- zoptions_TaxaList&#45;&gt;ABotIsotopes -->
<g id="edge7" class="edge">
<title>zoptions_TaxaList&#45;&gt;ABotIsotopes</title>
<path fill="none" stroke="#696969" d="M2635.1129,-836.9409C2588.2772,-805.4357 2496.4388,-743.4296 2494,-740 2451.8255,-680.6897 2506.5927,-628.9665 2451,-582 2368.8098,-512.563 1628.771,-479.527 1369.3569,-470.0072"/>
<polygon fill="#696969" stroke="#696969" points="1369.3406,-466.5044 1359.2199,-469.6382 1369.0859,-473.4998 1369.3406,-466.5044"/>
</g>
<!-- zoptions_TaxaList&#45;&gt;ABotSamples -->
<g id="edge20" class="edge">
<title>zoptions_TaxaList&#45;&gt;ABotSamples</title>
<path fill="none" stroke="#696969" d="M2638.7921,-836.9914C2615.8683,-819.7791 2579.3518,-793.8761 2545,-776 2505.315,-755.3485 2480.0071,-774.0583 2451,-740 2404.4857,-685.386 2473.0005,-628.0567 2418,-582 2365.7573,-538.2527 1260.0345,-549.7985 1192,-546 871.2136,-528.09 491.168,-492.5037 321.9472,-475.9079"/>
<polygon fill="#696969" stroke="#696969" points="322.1371,-472.4098 311.8427,-474.9149 321.4524,-479.3763 322.1371,-472.4098"/>
</g>
<!-- zoptions_TaxaList&#45;&gt;C14Ghosts -->
<g id="edge21" class="edge">
<title>zoptions_TaxaList&#45;&gt;C14Ghosts</title>
<path fill="none" stroke="#696969" d="M2632.6757,-836.7247C2607.8473,-819.0648 2571.2511,-792.6135 2536,-776 2484.8612,-751.8987 2463.7328,-766.8831 2414,-740 2406.3649,-735.8728 2398.7918,-731.0434 2391.4932,-725.8421"/>
<polygon fill="#696969" stroke="#696969" points="2393.1798,-722.7353 2383.0641,-719.5853 2389.0076,-728.356 2393.1798,-722.7353"/>
</g>
<!-- zoptions_TaxaList&#45;&gt;C14Ghosts -->
<g id="edge22" class="edge">
<title>zoptions_TaxaList&#45;&gt;C14Ghosts</title>
<path fill="none" stroke="#696969" d="M2646.3631,-836.7247C2625.8473,-819.0648 2589.2511,-792.6135 2554,-776 2502.8612,-751.8987 2481.7328,-766.8831 2432,-740 2420.6391,-733.8589 2409.4153,-726.1628 2398.7861,-718.0005"/>
<polygon fill="#696969" stroke="#696969" points="2400.8002,-715.1315 2390.7813,-711.6859 2396.4648,-720.6273 2400.8002,-715.1315"/>
</g>
<!-- zoptions_TaxaList&#45;&gt;C14Samples -->
<g id="edge44" class="edge">
<title>zoptions_TaxaList&#45;&gt;C14Samples</title>
<path fill="none" stroke="#696969" d="M2642.7172,-836.9518C2620.9079,-817.8238 2583.4053,-788.6673 2545,-776 2369.4619,-718.1021 1893.2706,-785.0314 1714,-740 1684.5252,-732.5961 1654.0533,-719.6076 1627.4924,-706.2747"/>
<polygon fill="#696969" stroke="#696969" points="1628.765,-702.9943 1618.2686,-701.5529 1625.5752,-709.2253 1628.765,-702.9943"/>
</g>
<!-- zoptions_TaxaList&#45;&gt;FaunalBiometrics -->
<g id="edge49" class="edge">
<title>zoptions_TaxaList&#45;&gt;FaunalBiometrics</title>
<path fill="none" stroke="#696969" d="M2642.2397,-836.8368C2620.3064,-817.905 2582.968,-789.1943 2545,-776 2343.3404,-705.921 2262.3623,-823.7825 2066,-740 2056.9357,-736.1325 2048.1768,-730.938 2039.9274,-725.0501"/>
<polygon fill="#696969" stroke="#696969" points="2041.9449,-722.1877 2031.8554,-718.9544 2037.7264,-727.7739 2041.9449,-722.1877"/>
</g>
<!-- zoptions_TaxaList&#45;&gt;FaunalIsotopes -->
<g id="edge56" class="edge">
<title>zoptions_TaxaList&#45;&gt;FaunalIsotopes</title>
<path fill="none" stroke="#696969" d="M2654.4738,-836.749C2645.6565,-815.367 2630.4401,-778.4672 2616.2194,-743.9821"/>
<polygon fill="#696969" stroke="#696969" points="2619.289,-742.2449 2612.241,-734.3344 2612.8177,-744.9136 2619.289,-742.2449"/>
</g>
<!-- zoptions_TaxaList&#45;&gt;FaunalSpecies -->
<g id="edge59" class="edge">
<title>zoptions_TaxaList&#45;&gt;FaunalSpecies</title>
<path fill="none" stroke="#696969" d="M2671.0314,-836.749C2681.8717,-814.8427 2700.772,-776.6483 2718.1897,-741.4499"/>
<polygon fill="#696969" stroke="#696969" points="2721.5186,-742.6143 2722.8169,-732.0993 2715.2447,-739.5096 2721.5186,-742.6143"/>
</g>
<!-- zoptions_TaxaList&#45;&gt;MaterialCulture -->
<g id="edge82" class="edge">
<title>zoptions_TaxaList&#45;&gt;MaterialCulture</title>
<path fill="none" stroke="#696969" d="M2688.382,-836.9755C2723.095,-817.718 2785.9006,-788.3058 2844,-776 3153.8928,-710.3627 3965.6996,-831.3819 4269,-740 4290.1165,-733.6378 4311.1692,-722.726 4330.184,-711.0091"/>
<polygon fill="#696969" stroke="#696969" points="4332.1868,-713.8838 4338.77,-705.5825 4328.4469,-707.9666 4332.1868,-713.8838"/>
</g>
<!-- zoptions_TaxaList&#45;&gt;MaterialCulture -->
<g id="edge94" class="edge">
<title>zoptions_TaxaList&#45;&gt;MaterialCulture</title>
<path fill="none" stroke="#696969" d="M2701.5186,-836.9755C2741.095,-817.718 2803.9006,-788.3058 2862,-776 3171.8928,-710.3627 3983.6996,-831.3819 4287,-740 4303.6358,-734.9878 4320.2319,-727.152 4335.4963,-718.3233"/>
<polygon fill="#696969" stroke="#696969" points="4337.5491,-721.1732 4344.32,-713.0242 4333.9452,-715.1722 4337.5491,-721.1732"/>
</g>
<!-- zoptions_ABotRecoveryMethods -->
<g id="node31" class="node">
<title>zoptions_ABotRecoveryMethods</title>
<polygon fill="#add8e6" stroke="#000000" points="450,-873 234,-873 234,-837 450,-837 450,-873"/>
<text text-anchor="middle" x="342" y="-850.5" font-family="Times,serif" font-size="15.00" fill="#000000">zoptions_ABotRecoveryMethods</text>
</g>
<!-- zoptions_ABotRecoveryMethods&#45;&gt;ABotPhases -->
<g id="edge9" class="edge">
<title>zoptions_ABotRecoveryMethods&#45;&gt;ABotPhases</title>
<path fill="none" stroke="#696969" d="M329.5616,-836.749C323.7634,-816.1481 321.193,-781.1425 321.8504,-747.7703"/>
<polygon fill="#696969" stroke="#696969" points="325.3575,-747.5837 322.1581,-737.4836 318.3606,-747.3744 325.3575,-747.5837"/>
</g>
<!-- zoptions_ABotRecoveryMethods&#45;&gt;ABotPhases -->
<g id="edge10" class="edge">
<title>zoptions_ABotRecoveryMethods&#45;&gt;ABotPhases</title>
<path fill="none" stroke="#696969" d="M337.8539,-836.749C335.9612,-816.5755 335.1003,-782.5889 335.2712,-749.8493"/>
<polygon fill="#696969" stroke="#696969" points="338.7719,-749.775 335.3574,-739.7455 331.7721,-749.7153 338.7719,-749.775"/>
</g>
<!-- zoptions_ABotRecoveryMethods&#45;&gt;ABotPhases -->
<g id="edge11" class="edge">
<title>zoptions_ABotRecoveryMethods&#45;&gt;ABotPhases</title>
<path fill="none" stroke="#696969" d="M346.1461,-836.749C348.0388,-816.5755 348.8997,-782.5889 348.7288,-749.8493"/>
<polygon fill="#696969" stroke="#696969" points="352.2279,-749.7153 348.6426,-739.7455 345.2281,-749.775 352.2279,-749.7153"/>
</g>
<!-- zoptions_ABotRecoveryMethods&#45;&gt;ABotPhases -->
<g id="edge12" class="edge">
<title>zoptions_ABotRecoveryMethods&#45;&gt;ABotPhases</title>
<path fill="none" stroke="#696969" d="M354.4384,-836.749C360.2366,-816.1481 362.807,-781.1425 362.1496,-747.7703"/>
<polygon fill="#696969" stroke="#696969" points="365.6394,-747.3744 361.8419,-737.4836 358.6425,-747.5837 365.6394,-747.3744"/>
</g>
<!-- zoptions_C14laboratories -->
<g id="node32" class="node">
<title>zoptions_C14laboratories</title>
<polygon fill="#add8e6" stroke="#000000" points="1658,-873 1442,-873 1442,-837 1658,-837 1658,-873"/>
<text text-anchor="middle" x="1550" y="-850.5" font-family="Times,serif" font-size="15.00" fill="#000000">zoptions_C14laboratories</text>
</g>
<!-- zoptions_C14laboratories&#45;&gt;C14Ghosts -->
<g id="edge28" class="edge">
<title>zoptions_C14laboratories&#45;&gt;C14Ghosts</title>
<path fill="none" stroke="#696969" d="M1569.7287,-836.7449C1591.635,-817.7345 1628.9503,-788.957 1667,-776 1788.1939,-734.7301 2123.9315,-789.5075 2242,-740 2251.0882,-736.1892 2259.8621,-731.0301 2268.12,-725.1623"/>
<polygon fill="#696969" stroke="#696969" points="2270.3135,-727.892 2276.1985,-719.082 2266.1039,-722.2992 2270.3135,-727.892"/>
</g>
<!-- zoptions_C14laboratories&#45;&gt;C14Samples -->
<g id="edge37" class="edge">
<title>zoptions_C14laboratories&#45;&gt;C14Samples</title>
<path fill="none" stroke="#696969" d="M1545.8539,-836.749C1543.9612,-816.5755 1543.1003,-782.5889 1543.2712,-749.8493"/>
<polygon fill="#696969" stroke="#696969" points="1546.7719,-749.775 1543.3574,-739.7455 1539.7721,-749.7153 1546.7719,-749.775"/>
</g>
<!-- zoptions_C14laboratories&#45;&gt;C14Samples -->
<g id="edge38" class="edge">
<title>zoptions_C14laboratories&#45;&gt;C14Samples</title>
<path fill="none" stroke="#696969" d="M1554.1461,-836.749C1556.0388,-816.5755 1556.8997,-782.5889 1556.7288,-749.8493"/>
<polygon fill="#696969" stroke="#696969" points="1560.2279,-749.7153 1556.6426,-739.7455 1553.2281,-749.775 1560.2279,-749.7153"/>
</g>
<!-- zoptions_Types -->
<g id="node33" class="node">
<title>zoptions_Types</title>
<polygon fill="#add8e6" stroke="#000000" points="1892,-873 1676,-873 1676,-837 1892,-837 1892,-873"/>
<text text-anchor="middle" x="1784" y="-850.5" font-family="Times,serif" font-size="15.00" fill="#000000">zoptions_Types</text>
</g>
<!-- zoptions_Types&#45;&gt;C14Ghosts -->
<g id="edge29" class="edge">
<title>zoptions_Types&#45;&gt;C14Ghosts</title>
<path fill="none" stroke="#696969" d="M1804.2432,-836.7142C1826.2958,-817.9679 1863.4656,-789.6815 1901,-776 2044.1824,-723.8091 2102.7462,-801.9149 2242,-740 2250.7719,-736.0999 2259.2751,-730.989 2267.3152,-725.2397"/>
<polygon fill="#696969" stroke="#696969" points="2269.6498,-727.8626 2275.518,-719.0413 2265.4296,-722.2777 2269.6498,-727.8626"/>
</g>
<!-- zoptions_Types&#45;&gt;C14Samples -->
<g id="edge45" class="edge">
<title>zoptions_Types&#45;&gt;C14Samples</title>
<path fill="none" stroke="#696969" d="M1761.4197,-836.814C1733.4808,-814.2593 1684.5159,-774.5575 1643,-740 1634.8971,-733.2552 1626.43,-726.1473 1618.0466,-719.0724"/>
<polygon fill="#696969" stroke="#696969" points="1620.2807,-716.3779 1610.384,-712.5956 1615.762,-721.7241 1620.2807,-716.3779"/>
</g>
<!-- zoptions_Types&#45;&gt;PhaseTypes -->
<g id="edge102" class="edge">
<title>zoptions_Types&#45;&gt;PhaseTypes</title>
<path fill="none" stroke="#696969" d="M1785.6934,-836.749C1787.5652,-816.5755 1790.7186,-782.5889 1793.7562,-749.8493"/>
<polygon fill="#696969" stroke="#696969" points="1797.2548,-750.0261 1794.6937,-739.7455 1790.2847,-749.3794 1797.2548,-750.0261"/>
</g>
<!-- zoptions_C14method -->
<g id="node34" class="node">
<title>zoptions_C14method</title>
<polygon fill="#add8e6" stroke="#000000" points="918,-873 702,-873 702,-837 918,-837 918,-873"/>
<text text-anchor="middle" x="810" y="-850.5" font-family="Times,serif" font-size="15.00" fill="#000000">zoptions_C14method</text>
</g>
<!-- zoptions_C14method&#45;&gt;C14Samples -->
<g id="edge39" class="edge">
<title>zoptions_C14method&#45;&gt;C14Samples</title>
<path fill="none" stroke="#696969" d="M830.8748,-836.9474C853.1585,-818.6733 890.2495,-791.0299 927,-776 1107.4616,-702.1964 1336.7212,-675.4624 1460.6702,-665.9992"/>
<polygon fill="#696969" stroke="#696969" points="1461.1575,-669.4727 1470.8706,-665.2414 1460.6388,-662.492 1461.1575,-669.4727"/>
</g>
<!-- zoptions_Material -->
<g id="node35" class="node">
<title>zoptions_Material</title>
<polygon fill="#add8e6" stroke="#000000" points="1152,-873 936,-873 936,-837 1152,-837 1152,-873"/>
<text text-anchor="middle" x="1044" y="-850.5" font-family="Times,serif" font-size="15.00" fill="#000000">zoptions_Material</text>
</g>
<!-- zoptions_Material&#45;&gt;C14Samples -->
<g id="edge40" class="edge">
<title>zoptions_Material&#45;&gt;C14Samples</title>
<path fill="none" stroke="#696969" d="M1066.4824,-836.7285C1089.1559,-819.0715 1125.7531,-792.6224 1161,-776 1259.8028,-729.4047 1381.6897,-697.0544 1462.412,-678.7935"/>
<polygon fill="#696969" stroke="#696969" points="1463.544,-682.1268 1472.5385,-676.5277 1462.0156,-675.2957 1463.544,-682.1268"/>
</g>
<!-- zoptions_Quantity -->
<g id="node36" class="node">
<title>zoptions_Quantity</title>
<polygon fill="#add8e6" stroke="#000000" points="1386,-873 1170,-873 1170,-837 1386,-837 1386,-873"/>
<text text-anchor="middle" x="1278" y="-850.5" font-family="Times,serif" font-size="15.00" fill="#000000">zoptions_Quantity</text>
</g>
<!-- zoptions_Quantity&#45;&gt;C14Samples -->
<g id="edge42" class="edge">
<title>zoptions_Quantity&#45;&gt;C14Samples</title>
<path fill="none" stroke="#696969" d="M1303.5891,-836.749C1342.9162,-808.6995 1419.6845,-753.9456 1477.135,-712.9699"/>
<polygon fill="#696969" stroke="#696969" points="1479.3553,-715.6853 1485.4644,-707.0291 1475.2906,-709.9864 1479.3553,-715.6853"/>
</g>
<!-- zoptions_SkeletalElements -->
<g id="node37" class="node">
<title>zoptions_SkeletalElements</title>
<polygon fill="#add8e6" stroke="#000000" points="2126,-873 1910,-873 1910,-837 2126,-837 2126,-873"/>
<text text-anchor="middle" x="2018" y="-850.5" font-family="Times,serif" font-size="15.00" fill="#000000">zoptions_SkeletalElements</text>
</g>
<!-- zoptions_SkeletalElements&#45;&gt;C14Samples -->
<g id="edge43" class="edge">
<title>zoptions_SkeletalElements&#45;&gt;C14Samples</title>
<path fill="none" stroke="#696969" d="M1997.6641,-836.962C1975.5341,-818.4227 1938.3003,-790.3075 1901,-776 1792.9019,-734.5362 1748.6485,-787.3586 1643,-740 1633.0836,-735.5548 1623.4071,-729.7191 1614.2727,-723.2286"/>
<polygon fill="#696969" stroke="#696969" points="1616.1567,-720.2678 1606.0449,-717.1049 1611.9773,-725.8832 1616.1567,-720.2678"/>
</g>
<!-- zoptions_SkeletalElements&#45;&gt;FaunalBiometrics -->
<g id="edge48" class="edge">
<title>zoptions_SkeletalElements&#45;&gt;FaunalBiometrics</title>
<path fill="none" stroke="#696969" d="M2014.2369,-836.749C2010.0246,-816.3191 2002.8912,-781.7226 1996.0622,-748.6014"/>
<polygon fill="#696969" stroke="#696969" points="1999.4035,-747.4743 1993.9561,-738.3872 1992.5477,-748.888 1999.4035,-747.4743"/>
</g>
<!-- zoptions_SkeletalElements&#45;&gt;FaunalIsotopes -->
<g id="edge55" class="edge">
<title>zoptions_SkeletalElements&#45;&gt;FaunalIsotopes</title>
<path fill="none" stroke="#696969" d="M2038.3019,-836.8725C2060.4035,-818.2584 2097.6137,-790.0814 2135,-776 2253.6541,-731.3094 2296.4205,-775.9789 2418,-740 2447.1413,-731.3762 2477.5302,-718.0843 2504.1175,-704.848"/>
<polygon fill="#696969" stroke="#696969" points="2506.0108,-707.8127 2513.3549,-700.1763 2502.8516,-701.5661 2506.0108,-707.8127"/>
</g>
<!-- zoptions_SkeletalElements&#45;&gt;HumanIsotopes -->
<g id="edge77" class="edge">
<title>zoptions_SkeletalElements&#45;&gt;HumanIsotopes</title>
<path fill="none" stroke="#696969" d="M1996.6872,-836.6656C1974.341,-818.4361 1937.4662,-791.0767 1901,-776 1822.7841,-743.6622 1767.8946,-805.2597 1714,-740 1669.2844,-685.855 1669.8487,-636.6061 1714,-582 1905.7519,-344.8419 2765.5127,-398.0238 3067,-352 3157.6189,-338.1665 3259.724,-314.0332 3329.9666,-296.07"/>
<polygon fill="#696969" stroke="#696969" points="3330.8482,-299.4572 3339.6621,-293.5779 3329.1056,-292.6776 3330.8482,-299.4572"/>
</g>
<!-- zoptions_SkeletalElements&#45;&gt;Strontium -->
<g id="edge114" class="edge">
<title>zoptions_SkeletalElements&#45;&gt;Strontium</title>
<path fill="none" stroke="#696969" d="M1997.1863,-836.796C1974.9523,-818.3983 1937.9014,-790.6554 1901,-776 1808.918,-739.4296 1745.1531,-815.5041 1681,-740 1630.3511,-680.3895 1628.1856,-445.7005 1681,-388 1762.4765,-298.9858 2609.7817,-278.4659 2889.7585,-274.0999"/>
<polygon fill="#696969" stroke="#696969" points="2889.9305,-277.5977 2899.8759,-273.9453 2889.8235,-270.5986 2889.9305,-277.5977"/>
</g>
<!-- zoptions_FaunalMeasurement -->
<g id="node38" class="node">
<title>zoptions_FaunalMeasurement</title>
<polygon fill="#add8e6" stroke="#000000" points="2360,-873 2144,-873 2144,-837 2360,-837 2360,-873"/>
<text text-anchor="middle" x="2252" y="-850.5" font-family="Times,serif" font-size="15.00" fill="#000000">zoptions_FaunalMeasurement</text>
</g>
<!-- zoptions_FaunalMeasurement&#45;&gt;FaunalBiometrics -->
<g id="edge47" class="edge">
<title>zoptions_FaunalMeasurement&#45;&gt;FaunalBiometrics</title>
<path fill="none" stroke="#696969" d="M2226.9745,-836.8936C2203.6421,-820.3055 2167.6347,-795.4467 2135,-776 2105.2859,-758.2937 2094.426,-759.7081 2066,-740 2058.3178,-734.6738 2050.5845,-728.7432 2043.0614,-722.5917"/>
<polygon fill="#696969" stroke="#696969" points="2044.9103,-719.5756 2034.9928,-715.8481 2040.4212,-724.9466 2044.9103,-719.5756"/>
</g>
<!-- zoptions_GraveConstruction -->
<g id="node39" class="node">
<title>zoptions_GraveConstruction</title>
<polygon fill="#add8e6" stroke="#000000" points="3299,-679 3083,-679 3083,-643 3299,-643 3299,-679"/>
<text text-anchor="middle" x="3191" y="-656.5" font-family="Times,serif" font-size="15.00" fill="#000000">zoptions_GraveConstruction</text>
</g>
<!-- zoptions_GraveConstruction&#45;&gt;GraveConstruction -->
<g id="edge61" class="edge">
<title>zoptions_GraveConstruction&#45;&gt;GraveConstruction</title>
<path fill="none" stroke="#696969" d="M3200.69,-642.749C3212.4625,-620.5756 3233.095,-581.7144 3251.9698,-546.1636"/>
<polygon fill="#696969" stroke="#696969" points="3255.1261,-547.6824 3256.7242,-537.2088 3248.9435,-544.3999 3255.1261,-547.6824"/>
</g>
<!-- zoptions_AgeCategorical -->
<g id="node40" class="node">
<title>zoptions_AgeCategorical</title>
<polygon fill="#add8e6" stroke="#000000" points="3961,-679 3745,-679 3745,-643 3961,-643 3961,-679"/>
<text text-anchor="middle" x="3853" y="-656.5" font-family="Times,serif" font-size="15.00" fill="#000000">zoptions_AgeCategorical</text>
</g>
<!-- zoptions_AgeCategorical&#45;&gt;GraveIndividuals -->
<g id="edge65" class="edge">
<title>zoptions_AgeCategorical&#45;&gt;GraveIndividuals</title>
<path fill="none" stroke="#696969" d="M3851.5888,-642.749C3850.0356,-622.661 3847.4235,-588.8766 3844.902,-556.2656"/>
<polygon fill="#696969" stroke="#696969" points="3848.3842,-555.8995 3844.1236,-546.1991 3841.405,-556.4391 3848.3842,-555.8995"/>
</g>
<!-- zoptions_Cultures -->
<g id="node41" class="node">
<title>zoptions_Cultures</title>
<polygon fill="#add8e6" stroke="#000000" points="2682,-1067 2466,-1067 2466,-1031 2682,-1031 2682,-1067"/>
<text text-anchor="middle" x="2574" y="-1044.5" font-family="Times,serif" font-size="15.00" fill="#000000">zoptions_Cultures</text>
</g>
<!-- zoptions_Cultures&#45;&gt;GraveIndividuals -->
<g id="edge66" class="edge">
<title>zoptions_Cultures&#45;&gt;GraveIndividuals</title>
<path fill="none" stroke="#696969" d="M2682.1036,-1042.6198C2919.4558,-1027.6858 3470.2544,-987.6228 3535,-934 3591.7257,-887.0193 3526.7281,-821.0486 3585,-776 3646.0008,-728.8418 4224.9124,-795.917 4278,-740 4326.3495,-689.0737 4324.7412,-634.4063 4278,-582 4231.2504,-529.5843 4030.2822,-569.2295 3964,-546 3945.637,-539.5644 3927.166,-530.0715 3910.242,-519.879"/>
<polygon fill="#696969" stroke="#696969" points="3911.8874,-516.7814 3901.5416,-514.4977 3908.2052,-522.7347 3911.8874,-516.7814"/>
</g>
<!-- zoptions_Cultures&#45;&gt;Phases -->
<g id="edge104" class="edge">
<title>zoptions_Cultures&#45;&gt;Phases</title>
<path fill="none" stroke="#696969" d="M2554.7006,-1030.749C2537.58,-1009.0973 2513.2402,-971.5339 2492.9104,-936.6783"/>
<polygon fill="#696969" stroke="#696969" points="2495.8658,-934.7971 2487.8351,-927.8864 2489.8034,-938.2968 2495.8658,-934.7971"/>
</g>
<!-- zoptions_Cultures&#45;&gt;Phases -->
<g id="edge105" class="edge">
<title>zoptions_Cultures&#45;&gt;Phases</title>
<path fill="none" stroke="#696969" d="M2562.9929,-1030.749C2549.3003,-1008.045 2525.056,-967.845 2503.2075,-931.6176"/>
<polygon fill="#696969" stroke="#696969" points="2506.1673,-929.748 2498.0057,-922.9923 2500.173,-933.3631 2506.1673,-929.748"/>
</g>
<!-- zoptions_Cultures&#45;&gt;Phases -->
<g id="edge106" class="edge">
<title>zoptions_Cultures&#45;&gt;Phases</title>
<path fill="none" stroke="#696969" d="M2571.2852,-1030.749C2561.2664,-1006.6338 2536.3948,-962.7802 2512.1853,-924.9136"/>
<polygon fill="#696969" stroke="#696969" points="2515.0757,-922.9377 2506.7104,-916.4359 2509.1953,-926.7352 2515.0757,-922.9377"/>
</g>
<!-- zoptions_Health -->
<g id="node42" class="node">
<title>zoptions_Health</title>
<polygon fill="#add8e6" stroke="#000000" points="4189,-485 3973,-485 3973,-449 4189,-449 4189,-485"/>
<text text-anchor="middle" x="4081" y="-462.5" font-family="Times,serif" font-size="15.00" fill="#000000">zoptions_Health</text>
</g>
<!-- zoptions_Health&#45;&gt;Health -->
<g id="edge73" class="edge">
<title>zoptions_Health&#45;&gt;Health</title>
<path fill="none" stroke="#696969" d="M4081,-448.749C4081,-428.661 4081,-394.8766 4081,-362.2656"/>
<polygon fill="#696969" stroke="#696969" points="4084.5001,-362.199 4081,-352.1991 4077.5001,-362.1991 4084.5001,-362.199"/>
</g>
<!-- zoptions_MaterialCulture_Material -->
<g id="node43" class="node">
<title>zoptions_MaterialCulture_Material</title>
<polygon fill="#add8e6" stroke="#000000" points="5448,-873 5232,-873 5232,-837 5448,-837 5448,-873"/>
<text text-anchor="middle" x="5340" y="-850.5" font-family="Times,serif" font-size="15.00" fill="#000000">zoptions_MaterialCulture_Material</text>
</g>
<!-- zoptions_MaterialCulture_Material&#45;&gt;MaterialCulture -->
<g id="edge83" class="edge">
<title>zoptions_MaterialCulture_Material&#45;&gt;MaterialCulture</title>
<path fill="none" stroke="#696969" d="M5319.6616,-836.9684C5297.5296,-818.4344 5260.2941,-790.3236 5223,-776 5090.8751,-725.2546 4676.5291,-684.4654 4493.0028,-668.3931"/>
<polygon fill="#696969" stroke="#696969" points="4493.1108,-664.8894 4482.8448,-667.5082 4492.5032,-671.863 4493.1108,-664.8894"/>
</g>
<!-- zoptions_MaterialCulture_MaterialType -->
<g id="node44" class="node">
<title>zoptions_MaterialCulture_MaterialType</title>
<polygon fill="#add8e6" stroke="#000000" points="3810,-873 3594,-873 3594,-837 3810,-837 3810,-873"/>
<text text-anchor="middle" x="3702" y="-850.5" font-family="Times,serif" font-size="15.00" fill="#000000">zoptions_MaterialCulture_MaterialType</text>
</g>
<!-- zoptions_MaterialCulture_MaterialType&#45;&gt;MaterialCulture -->
<g id="edge84" class="edge">
<title>zoptions_MaterialCulture_MaterialType&#45;&gt;MaterialCulture</title>
<path fill="none" stroke="#696969" d="M3721.7553,-836.8223C3743.6843,-817.8781 3781.019,-789.1568 3819,-776 4026.1733,-704.2341 4108.097,-823.0751 4311,-740 4321.1319,-735.8517 4330.9631,-730.1587 4340.2021,-723.7139"/>
<polygon fill="#696969" stroke="#696969" points="4342.527,-726.3489 4348.5121,-717.6065 4338.3815,-720.7084 4342.527,-726.3489"/>
</g>
<!-- zoptions_MaterialCulture_Morphology -->
<g id="node45" class="node">
<title>zoptions_MaterialCulture_Morphology</title>
<polygon fill="#add8e6" stroke="#000000" points="4044,-873 3828,-873 3828,-837 4044,-837 4044,-873"/>
<text text-anchor="middle" x="3936" y="-850.5" font-family="Times,serif" font-size="15.00" fill="#000000">zoptions_MaterialCulture_Morphology</text>
</g>
<!-- zoptions_MaterialCulture_Morphology&#45;&gt;MaterialCulture -->
<g id="edge85" class="edge">
<title>zoptions_MaterialCulture_Morphology&#45;&gt;MaterialCulture</title>
<path fill="none" stroke="#696969" d="M3956.3359,-836.962C3978.4659,-818.4227 4015.6997,-790.3075 4053,-776 4161.0981,-734.5362 4205.3515,-787.3586 4311,-740 4320.9164,-735.5548 4330.5929,-729.7191 4339.7273,-723.2286"/>
<polygon fill="#696969" stroke="#696969" points="4342.0227,-725.8832 4347.9551,-717.1049 4337.8433,-720.2678 4342.0227,-725.8832"/>
</g>
<!-- zoptions_MaterialCulture_MorphologySection -->
<g id="node46" class="node">
<title>zoptions_MaterialCulture_MorphologySection</title>
<polygon fill="#add8e6" stroke="#000000" points="4278,-873 4062,-873 4062,-837 4278,-837 4278,-873"/>
<text text-anchor="middle" x="4170" y="-850.5" font-family="Times,serif" font-size="15.00" fill="#000000">zoptions_MaterialCulture_MorphologySection</text>
</g>
<!-- zoptions_MaterialCulture_MorphologySection&#45;&gt;MaterialCulture -->
<g id="edge86" class="edge">
<title>zoptions_MaterialCulture_MorphologySection&#45;&gt;MaterialCulture</title>
<path fill="none" stroke="#696969" d="M4192.5803,-836.814C4220.5192,-814.2593 4269.4841,-774.5575 4311,-740 4319.1029,-733.2552 4327.57,-726.1473 4335.9534,-719.0724"/>
<polygon fill="#696969" stroke="#696969" points="4338.238,-721.7241 4343.616,-712.5956 4333.7193,-716.3779 4338.238,-721.7241"/>
</g>
<!-- zoptions_MaterialCulture_Object -->
<g id="node47" class="node">
<title>zoptions_MaterialCulture_Object</title>
<polygon fill="#add8e6" stroke="#000000" points="4512,-873 4296,-873 4296,-837 4512,-837 4512,-873"/>
<text text-anchor="middle" x="4404" y="-850.5" font-family="Times,serif" font-size="15.00" fill="#000000">zoptions_MaterialCulture_Object</text>
</g>
<!-- zoptions_MaterialCulture_Object&#45;&gt;MaterialCulture -->
<g id="edge87" class="edge">
<title>zoptions_MaterialCulture_Object&#45;&gt;MaterialCulture</title>
<path fill="none" stroke="#696969" d="M4404,-836.749C4404,-816.661 4404,-782.8766 4404,-750.2656"/>
<polygon fill="#696969" stroke="#696969" points="4407.5001,-750.199 4404,-740.1991 4400.5001,-750.1991 4407.5001,-750.199"/>
</g>
<!-- zoptions_DecorStyle -->
<g id="node48" class="node">
<title>zoptions_DecorStyle</title>
<polygon fill="#add8e6" stroke="#000000" points="4746,-873 4530,-873 4530,-837 4746,-837 4746,-873"/>
<text text-anchor="middle" x="4638" y="-850.5" font-family="Times,serif" font-size="15.00" fill="#000000">zoptions_DecorStyle</text>
</g>
<!-- zoptions_DecorStyle&#45;&gt;MaterialCulture -->
<g id="edge89" class="edge">
<title>zoptions_DecorStyle&#45;&gt;MaterialCulture</title>
<path fill="none" stroke="#696969" d="M4615.9858,-836.749C4583.5465,-809.8548 4521.4953,-758.4106 4472.8734,-718.1002"/>
<polygon fill="#696969" stroke="#696969" points="4474.8176,-715.1656 4464.8854,-711.4776 4470.3499,-720.5545 4474.8176,-715.1656"/>
</g>
<!-- zoptions_DecorTechn -->
<g id="node49" class="node">
<title>zoptions_DecorTechn</title>
<polygon fill="#add8e6" stroke="#000000" points="4980,-873 4764,-873 4764,-837 4980,-837 4980,-873"/>
<text text-anchor="middle" x="4872" y="-850.5" font-family="Times,serif" font-size="15.00" fill="#000000">zoptions_DecorTechn</text>
</g>
<!-- zoptions_DecorTechn&#45;&gt;MaterialCulture -->
<g id="edge90" class="edge">
<title>zoptions_DecorTechn&#45;&gt;MaterialCulture</title>
<path fill="none" stroke="#696969" d="M4849.4116,-836.9491C4826.6576,-819.4597 4790.0007,-793.1347 4755,-776 4668.915,-733.8568 4563.6984,-701.7221 4491.0372,-682.2753"/>
<polygon fill="#696969" stroke="#696969" points="4491.5689,-678.7954 4481.0058,-679.6157 4489.7749,-685.5616 4491.5689,-678.7954"/>
</g>
<!-- zoptions_DecorTool -->
<g id="node50" class="node">
<title>zoptions_DecorTool</title>
<polygon fill="#add8e6" stroke="#000000" points="5214,-873 4998,-873 4998,-837 5214,-837 5214,-873"/>
<text text-anchor="middle" x="5106" y="-850.5" font-family="Times,serif" font-size="15.00" fill="#000000">zoptions_DecorTool</text>
</g>
<!-- zoptions_DecorTool&#45;&gt;MaterialCulture -->
<g id="edge91" class="edge">
<title>zoptions_DecorTool&#45;&gt;MaterialCulture</title>
<path fill="none" stroke="#696969" d="M5071.1524,-836.6951C5044.319,-818.4891 5007.4366,-791.1481 4971,-776 4810.0343,-709.0801 4607.6698,-680.4381 4493.1691,-668.6727"/>
<polygon fill="#696969" stroke="#696969" points="4493.346,-665.1729 4483.0455,-667.653 4492.6444,-672.1377 4493.346,-665.1729"/>
</g>
<!-- zoptions_DecorTool&#45;&gt;MaterialCulture -->
<g id="edge92" class="edge">
<title>zoptions_DecorTool&#45;&gt;MaterialCulture</title>
<path fill="none" stroke="#696969" d="M5084.6749,-836.6951C5062.319,-818.4891 5025.4366,-791.1481 4989,-776 4822.0681,-706.5997 4610.6115,-678.3674 4493.0894,-667.4329"/>
<polygon fill="#696969" stroke="#696969" points="4493.3323,-663.9407 4483.0564,-666.5203 4492.6982,-670.9119 4493.3323,-663.9407"/>
</g>
<!-- zoptions_DecorTool&#45;&gt;MaterialCulture -->
<g id="edge93" class="edge">
<title>zoptions_DecorTool&#45;&gt;MaterialCulture</title>
<path fill="none" stroke="#696969" d="M5098.1975,-836.6951C5080.319,-818.4891 5043.4366,-791.1481 5007,-776 4834.3225,-704.2111 4614.0028,-676.4727 4492.9668,-666.3644"/>
<polygon fill="#696969" stroke="#696969" points="4493.2486,-662.8758 4482.9976,-665.5531 4492.6808,-669.8528 4493.2486,-662.8758"/>
</g>
<!-- zoptions_Periods -->
<g id="node51" class="node">
<title>zoptions_Periods</title>
<polygon fill="#add8e6" stroke="#000000" points="2448,-1067 2232,-1067 2232,-1031 2448,-1031 2448,-1067"/>
<text text-anchor="middle" x="2340" y="-1044.5" font-family="Times,serif" font-size="15.00" fill="#000000">zoptions_Periods</text>
</g>
<!-- zoptions_Periods&#45;&gt;Phases -->
<g id="edge107" class="edge">
<title>zoptions_Periods&#45;&gt;Phases</title>
<path fill="none" stroke="#696969" d="M2351.0071,-1030.749C2364.6997,-1008.045 2388.944,-967.845 2410.7925,-931.6176"/>
<polygon fill="#696969" stroke="#696969" points="2413.827,-933.3631 2415.9943,-922.9923 2407.8327,-929.748 2413.827,-933.3631"/>
</g>
<!-- zoptions_Countries -->
<g id="node52" class="node">
<title>zoptions_Countries</title>
<polygon fill="#add8e6" stroke="#000000" points="2243,-1218 2027,-1218 2027,-1182 2243,-1182 2243,-1218"/>
<text text-anchor="middle" x="2135" y="-1195.5" font-family="Times,serif" font-size="15.00" fill="#000000">zoptions_Countries</text>
</g>
<!-- zoptions_Countries&#45;&gt;Sites -->
<g id="edge110" class="edge">
<title>zoptions_Countries&#45;&gt;Sites</title>
<path fill="none" stroke="#696969" d="M2135,-1181.7859C2135,-1170.4182 2135,-1154.8472 2135,-1138.3633"/>
<polygon fill="#696969" stroke="#696969" points="2138.5001,-1138.0111 2135,-1128.0112 2131.5001,-1138.0112 2138.5001,-1138.0111"/>
</g>
<!-- DataTable -->
<g id="node53" class="node">
<title>DataTable</title>
<ellipse fill="#ffa500" stroke="#000000" cx="2387" cy="-1200" rx="36" ry="36"/>
<text text-anchor="middle" x="2387" y="-1197" font-family="Times,serif" font-size="10.00" fill="#000000">DataTable</text>
</g>
<!-- LookUpTable -->
<g id="node54" class="node">
<title>LookUpTable</title>
<polygon fill="#add8e6" stroke="#000000" points="2333,-1218 2261,-1218 2261,-1182 2333,-1182 2333,-1218"/>
<text text-anchor="middle" x="2297" y="-1197" font-family="Times,serif" font-size="10.00" fill="#000000">LookUpTable</text>
</g>
</g>
</svg>

