<?xml version="1.0" encoding="UTF-8" standalone="no"?>
<!DOCTYPE svg PUBLIC "-//W3C//DTD SVG 1.1//EN"
 "http://www.w3.org/Graphics/SVG/1.1/DTD/svg11.dtd">
<!-- Generated by graphviz version 2.40.1 (20161225.0304)
 -->
<!-- Title: %0 Pages: 1 -->
<svg width="694pt" height="554pt"
 viewBox="0.00 0.00 694.00 554.00" xmlns="http://www.w3.org/2000/svg" xmlns:xlink="http://www.w3.org/1999/xlink">
<g id="graph0" class="graph" transform="scale(1 1) rotate(0) translate(4 550)">
<title>%0</title>
<polygon fill="#ffffff" stroke="transparent" points="-4,4 -4,-550 690,-550 690,4 -4,4"/>
<!-- Sites -->
<g id="node1" class="node">
<title>Sites</title>
<ellipse fill="#ffa500" stroke="#000000" cx="186" cy="-467" rx="79" ry="79"/>
<text text-anchor="middle" x="186" y="-462.5" font-family="Times,serif" font-size="15.00" fill="#000000">Sites</text>
</g>
<!-- Phases -->
<g id="node2" class="node">
<title>Phases</title>
<ellipse fill="#ffa500" stroke="#000000" cx="186" cy="-273" rx="79" ry="79"/>
<text text-anchor="middle" x="186" y="-268.5" font-family="Times,serif" font-size="15.00" fill="#000000">Phases</text>
</g>
<!-- Sites&#45;&gt;Phases -->
<g id="edge8" class="edge">
<title>Sites&#45;&gt;Phases</title>
<path fill="none" stroke="#696969" d="M186,-387.813C186,-379.4705 186,-370.946 186,-362.4979"/>
<polygon fill="#696969" stroke="#696969" points="189.5001,-362.2482 186,-352.2483 182.5001,-362.2483 189.5001,-362.2482"/>
</g>
<!-- C14Samples -->
<g id="node3" class="node">
<title>C14Samples</title>
<ellipse fill="#ffa500" stroke="#000000" cx="79" cy="-79" rx="79" ry="79"/>
<text text-anchor="middle" x="79" y="-74.5" font-family="Times,serif" font-size="15.00" fill="#000000">C14Samples</text>
</g>
<!-- Sites&#45;&gt;C14Samples -->
<g id="edge5" class="edge">
<title>Sites&#45;&gt;C14Samples</title>
<path fill="none" stroke="#696969" d="M131.6914,-409.5671C118.3722,-392.2948 105.7321,-372.4596 98,-352 75.8638,-293.426 71.4844,-222.8044 72.4456,-168.0653"/>
<polygon fill="#696969" stroke="#696969" points="75.9453,-168.1161 72.6841,-158.0356 68.9473,-167.9496 75.9453,-168.1161"/>
</g>
<!-- StrontiumEnvironment -->
<g id="node7" class="node">
<title>StrontiumEnvironment</title>
<ellipse fill="#ffa500" stroke="#000000" cx="362" cy="-273" rx="79" ry="79"/>
<text text-anchor="middle" x="362" y="-268.5" font-family="Times,serif" font-size="15.00" fill="#000000">StrontiumEnvironment</text>
</g>
<!-- Sites&#45;&gt;StrontiumEnvironment -->
<g id="edge9" class="edge">
<title>Sites&#45;&gt;StrontiumEnvironment</title>
<path fill="none" stroke="#696969" d="M239.2834,-408.2671C259.0994,-386.4245 281.7124,-361.4988 302.0827,-339.0452"/>
<polygon fill="#696969" stroke="#696969" points="304.7707,-341.2913 308.8977,-331.5332 299.5863,-336.5879 304.7707,-341.2913"/>
</g>
<!-- Phases&#45;&gt;C14Samples -->
<g id="edge2" class="edge">
<title>Phases&#45;&gt;C14Samples</title>
<path fill="none" stroke="#696969" d="M138.3662,-209.7456C129.3566,-194.6793 120.1498,-178.3721 111.6986,-162.5516"/>
<polygon fill="#696969" stroke="#696969" points="114.5813,-160.5151 106.8172,-153.3061 108.3911,-163.7834 114.5813,-160.5151"/>
</g>
<!-- Phases&#45;&gt;C14Samples -->
<g id="edge3" class="edge">
<title>Phases&#45;&gt;C14Samples</title>
<path fill="none" stroke="#696969" d="M147.8237,-203.7832C139.4954,-188.6832 130.626,-172.6022 122.1205,-157.1811"/>
<polygon fill="#696969" stroke="#696969" points="125.0559,-155.2562 117.1616,-148.1901 118.9264,-158.6369 125.0559,-155.2562"/>
</g>
<!-- Phases&#45;&gt;C14Samples -->
<g id="edge4" class="edge">
<title>Phases&#45;&gt;C14Samples</title>
<path fill="none" stroke="#696969" d="M158.252,-198.8265C150.1392,-183.2679 141.081,-166.8786 132.0304,-151.3862"/>
<polygon fill="#696969" stroke="#696969" points="134.81,-149.2102 126.7096,-142.3813 128.7834,-152.7712 134.81,-149.2102"/>
</g>
<!-- Graves -->
<g id="node4" class="node">
<title>Graves</title>
<ellipse fill="#ffa500" stroke="#000000" cx="255" cy="-79" rx="79" ry="79"/>
<text text-anchor="middle" x="255" y="-74.5" font-family="Times,serif" font-size="15.00" fill="#000000">Graves</text>
</g>
<!-- Phases&#45;&gt;Graves -->
<g id="edge7" class="edge">
<title>Phases&#45;&gt;Graves</title>
<path fill="none" stroke="#696969" d="M212.4799,-198.5494C216.5772,-187.0292 220.8344,-175.0598 225.0023,-163.3412"/>
<polygon fill="#696969" stroke="#696969" points="228.4235,-164.1667 228.477,-153.5719 221.8282,-161.8209 228.4235,-164.1667"/>
</g>
<!-- FaunalIsotopes -->
<g id="node5" class="node">
<title>FaunalIsotopes</title>
<ellipse fill="#ffa500" stroke="#000000" cx="431" cy="-79" rx="79" ry="79"/>
<text text-anchor="middle" x="431" y="-74.5" font-family="Times,serif" font-size="15.00" fill="#000000">FaunalIsotopes</text>
</g>
<!-- Phases&#45;&gt;FaunalIsotopes -->
<g id="edge6" class="edge">
<title>Phases&#45;&gt;FaunalIsotopes</title>
<path fill="none" stroke="#696969" d="M242.9928,-218.1519C252.9836,-209.6261 263.5391,-201.2527 274,-194 302.426,-174.2919 314.574,-177.7081 343,-158 350.6822,-152.6738 358.4155,-146.7432 365.9386,-140.5917"/>
<polygon fill="#696969" stroke="#696969" points="368.5788,-142.9466 374.0072,-133.8481 364.0897,-137.5756 368.5788,-142.9466"/>
</g>
<!-- ABotPhases -->
<g id="node6" class="node">
<title>ABotPhases</title>
<ellipse fill="#ffa500" stroke="#000000" cx="607" cy="-79" rx="79" ry="79"/>
<text text-anchor="middle" x="607" y="-74.5" font-family="Times,serif" font-size="15.00" fill="#000000">ABotPhases</text>
</g>
<!-- Phases&#45;&gt;ABotPhases -->
<g id="edge1" class="edge">
<title>Phases&#45;&gt;ABotPhases</title>
<path fill="none" stroke="#696969" d="M240.6685,-215.367C251.0148,-207.0689 262.2905,-199.4944 274,-194 373.6349,-147.2488 419.3651,-204.7512 519,-158 527.6907,-153.9221 536.1423,-148.6984 544.1524,-142.8835"/>
<polygon fill="#696969" stroke="#696969" points="546.5112,-145.486 552.3315,-136.633 542.2608,-139.9241 546.5112,-145.486"/>
</g>
</g>
</svg>

