<?xml version="1.0" encoding="UTF-8" standalone="no"?>
<!DOCTYPE svg PUBLIC "-//W3C//DTD SVG 1.1//EN"
 "http://www.w3.org/Graphics/SVG/1.1/DTD/svg11.dtd">
<!-- Generated by graphviz version 2.40.1 (20161225.0304)
 -->
<!-- Title: %0 Pages: 1 -->
<svg width="5583pt" height="1260pt"
 viewBox="0.00 0.00 5583.00 1260.00" xmlns="http://www.w3.org/2000/svg" xmlns:xlink="http://www.w3.org/1999/xlink">
<g id="graph0" class="graph" transform="scale(1 1) rotate(0) translate(4 1256)">
<title>%0</title>
<polygon fill="#ffffff" stroke="transparent" points="-4,4 -4,-1256 5579,-1256 5579,4 -4,4"/>
<g id="clust1" class="cluster">
<title>cluster</title>
<polygon fill="none" stroke="#000000" points="2472,-1156 2472,-1244 2650,-1244 2650,-1156 2472,-1156"/>
</g>
<!-- ABotCharcoal -->
<g id="node1" class="node">
<title>ABotCharcoal</title>
<ellipse fill="#ffa500" stroke="#000000" cx="233" cy="-273" rx="79" ry="79"/>
<text text-anchor="middle" x="233" y="-268.5" font-family="Times,serif" font-size="15.00" fill="#000000">ABotCharcoal</text>
</g>
<!-- ABotIsotopes -->
<g id="node2" class="node">
<title>ABotIsotopes</title>
<ellipse fill="#ffa500" stroke="#000000" cx="1343" cy="-467" rx="79" ry="79"/>
<text text-anchor="middle" x="1343" y="-462.5" font-family="Times,serif" font-size="15.00" fill="#000000">ABotIsotopes</text>
</g>
<!-- ABotPhases -->
<g id="node3" class="node">
<title>ABotPhases</title>
<ellipse fill="#ffa500" stroke="#000000" cx="342" cy="-661" rx="79" ry="79"/>
<text text-anchor="middle" x="342" y="-656.5" font-family="Times,serif" font-size="15.00" fill="#000000">ABotPhases</text>
</g>
<!-- ABotPhases&#45;&gt;ABotIsotopes -->
<g id="edge2" class="edge">
<title>ABotPhases&#45;&gt;ABotIsotopes</title>
<path fill="none" stroke="#696969" d="M419.7139,-645.9386C603.2502,-610.3681 1062.6018,-521.3429 1255.5175,-483.9547"/>
<polygon fill="#696969" stroke="#696969" points="1256.1843,-487.3906 1265.3356,-482.0518 1254.8524,-480.5185 1256.1843,-487.3906"/>
</g>
<!-- ABotSamples -->
<g id="node4" class="node">
<title>ABotSamples</title>
<ellipse fill="#ffa500" stroke="#000000" cx="233" cy="-467" rx="79" ry="79"/>
<text text-anchor="middle" x="233" y="-462.5" font-family="Times,serif" font-size="15.00" fill="#000000">ABotSamples</text>
</g>
<!-- ABotPhases&#45;&gt;ABotSamples -->
<g id="edge13" class="edge">
<title>ABotPhases&#45;&gt;ABotSamples</title>
<path fill="none" stroke="#696969" d="M303.2638,-592.0566C294.7214,-576.8528 285.6138,-560.6428 276.8841,-545.1057"/>
<polygon fill="#696969" stroke="#696969" points="279.7448,-543.0518 271.795,-536.048 273.6421,-546.4806 279.7448,-543.0518"/>
</g>
<!-- ABotSamples&#45;&gt;ABotCharcoal -->
<g id="edge1" class="edge">
<title>ABotSamples&#45;&gt;ABotCharcoal</title>
<path fill="none" stroke="#696969" d="M233,-387.813C233,-379.4705 233,-370.946 233,-362.4979"/>
<polygon fill="#696969" stroke="#696969" points="236.5001,-362.2482 233,-352.2483 229.5001,-362.2483 236.5001,-362.2482"/>
</g>
<!-- C14Ghosts -->
<g id="node5" class="node">
<title>C14Ghosts</title>
<ellipse fill="#ffa500" stroke="#000000" cx="2457" cy="-661" rx="79" ry="79"/>
<text text-anchor="middle" x="2457" y="-656.5" font-family="Times,serif" font-size="15.00" fill="#000000">C14Ghosts</text>
</g>
<!-- C14Samples -->
<g id="node6" class="node">
<title>C14Samples</title>
<ellipse fill="#ffa500" stroke="#000000" cx="1501" cy="-661" rx="79" ry="79"/>
<text text-anchor="middle" x="1501" y="-656.5" font-family="Times,serif" font-size="15.00" fill="#000000">C14Samples</text>
</g>
<!-- Citations -->
<g id="node7" class="node">
<title>Citations</title>
<ellipse fill="#ffa500" stroke="#000000" cx="3541" cy="-855" rx="79" ry="79"/>
<text text-anchor="middle" x="3541" y="-850.5" font-family="Times,serif" font-size="15.00" fill="#000000">Citations</text>
</g>
<!-- Citations&#45;&gt;ABotIsotopes -->
<g id="edge3" class="edge">
<title>Citations&#45;&gt;ABotIsotopes</title>
<path fill="none" stroke="#696969" d="M3498.2699,-788.2504C3489.6608,-772.8299 3481.3256,-756.1878 3475,-740 3448.7866,-672.9178 3494.0487,-628.4414 3439,-582 3361.1953,-516.3606 1822.2516,-477.6914 1432.2339,-468.9206"/>
<polygon fill="#696969" stroke="#696969" points="1432.2078,-465.4192 1422.1319,-468.6943 1432.051,-472.4175 1432.2078,-465.4192"/>
</g>
<!-- Citations&#45;&gt;C14Ghosts -->
<g id="edge23" class="edge">
<title>Citations&#45;&gt;C14Ghosts</title>
<path fill="none" stroke="#696969" d="M3467.4173,-825.9912C3418.9582,-808.2611 3353.6705,-786.9506 3294,-776 2999.3814,-721.9322 2911.1396,-814.4477 2621,-740 2591.5631,-732.4467 2561.1007,-719.421 2534.5368,-706.0999"/>
<polygon fill="#696969" stroke="#696969" points="2535.8087,-702.8194 2525.3115,-701.3843 2532.6226,-709.0523 2535.8087,-702.8194"/>
</g>
<!-- Citations&#45;&gt;C14Samples -->
<g id="edge30" class="edge">
<title>Citations&#45;&gt;C14Samples</title>
<path fill="none" stroke="#696969" d="M3467.5312,-825.3411C3419.1185,-807.3461 3353.8397,-785.9847 3294,-776 3107.0973,-744.814 1765.226,-809.639 1589,-740 1579.8348,-736.3782 1571.0128,-731.3372 1562.7275,-725.5366"/>
<polygon fill="#696969" stroke="#696969" points="1564.7397,-722.6712 1554.6283,-719.5072 1560.5597,-728.2862 1564.7397,-722.6712"/>
</g>
<!-- FaunalIsotopeSequences -->
<g id="node9" class="node">
<title>FaunalIsotopeSequences</title>
<ellipse fill="#ffa500" stroke="#000000" cx="3450" cy="-467" rx="79" ry="79"/>
<text text-anchor="middle" x="3450" y="-462.5" font-family="Times,serif" font-size="15.00" fill="#000000">FaunalIsotopeSequences</text>
</g>
<!-- Citations&#45;&gt;FaunalIsotopeSequences -->
<g id="edge50" class="edge">
<title>Citations&#45;&gt;FaunalIsotopeSequences</title>
<path fill="none" stroke="#696969" d="M3522.9125,-777.8798C3507.7769,-713.3453 3486.189,-621.3006 3470.4321,-554.1171"/>
<polygon fill="#696969" stroke="#696969" points="3473.7442,-552.9108 3468.0532,-543.9742 3466.9292,-554.5093 3473.7442,-552.9108"/>
</g>
<!-- FaunalIsotopes -->
<g id="node10" class="node">
<title>FaunalIsotopes</title>
<ellipse fill="#ffa500" stroke="#000000" cx="2709" cy="-661" rx="79" ry="79"/>
<text text-anchor="middle" x="2709" y="-656.5" font-family="Times,serif" font-size="15.00" fill="#000000">FaunalIsotopes</text>
</g>
<!-- Citations&#45;&gt;FaunalIsotopes -->
<g id="edge52" class="edge">
<title>Citations&#45;&gt;FaunalIsotopes</title>
<path fill="none" stroke="#696969" d="M3467.346,-826.3697C3418.8579,-808.7938 3353.5645,-787.513 3294,-776 3185.2785,-754.9856 2898.909,-783.3189 2797,-740 2787.9305,-736.1448 2779.1683,-730.958 2770.9171,-725.0744"/>
<polygon fill="#696969" stroke="#696969" points="2772.9342,-722.2118 2762.8437,-718.9821 2768.7177,-727.7994 2772.9342,-722.2118"/>
</g>
<!-- FaunalSpecies -->
<g id="node11" class="node">
<title>FaunalSpecies</title>
<ellipse fill="#ffa500" stroke="#000000" cx="2885" cy="-661" rx="79" ry="79"/>
<text text-anchor="middle" x="2885" y="-656.5" font-family="Times,serif" font-size="15.00" fill="#000000">FaunalSpecies</text>
</g>
<!-- Citations&#45;&gt;FaunalSpecies -->
<g id="edge57" class="edge">
<title>Citations&#45;&gt;FaunalSpecies</title>
<path fill="none" stroke="#696969" d="M3466.8507,-827.3581C3418.2992,-810.2407 3353.1207,-789.0991 3294,-776 3170.2107,-748.5726 3130.3939,-782.6747 3011,-740 2992.6771,-733.4509 2974.2227,-723.9113 2957.302,-713.7095"/>
<polygon fill="#696969" stroke="#696969" points="2958.9476,-710.6119 2948.6022,-708.3265 2955.2644,-716.5646 2958.9476,-710.6119"/>
</g>
<!-- GraveIndividuals -->
<g id="node13" class="node">
<title>GraveIndividuals</title>
<ellipse fill="#ffa500" stroke="#000000" cx="4175" cy="-467" rx="79" ry="79"/>
<text text-anchor="middle" x="4175" y="-462.5" font-family="Times,serif" font-size="15.00" fill="#000000">GraveIndividuals</text>
</g>
<!-- Citations&#45;&gt;GraveIndividuals -->
<g id="edge62" class="edge">
<title>Citations&#45;&gt;GraveIndividuals</title>
<path fill="none" stroke="#696969" d="M3603.3027,-806.2187C3623.6962,-794.2614 3647.0012,-782.9206 3670,-776 3729.2814,-758.1616 4183.6629,-785.167 4226,-740 4274.691,-688.0544 4247.8627,-605.9799 4217.7791,-545.3737"/>
<polygon fill="#696969" stroke="#696969" points="4220.778,-543.549 4213.1301,-536.2168 4214.5363,-546.7179 4220.778,-543.549"/>
</g>
<!-- Citations&#45;&gt;GraveIndividuals -->
<g id="edge67" class="edge">
<title>Citations&#45;&gt;GraveIndividuals</title>
<path fill="none" stroke="#696969" d="M3608.4985,-813.2704C3632.5768,-798.8622 3660.5071,-784.2729 3688,-776 3747.2814,-758.1616 4201.6629,-785.167 4244,-740 4294.5307,-686.0917 4263.7276,-599.7349 4228.5719,-538.5988"/>
<polygon fill="#696969" stroke="#696969" points="4231.4582,-536.603 4223.3625,-529.7685 4225.4292,-540.1599 4231.4582,-536.603"/>
</g>
<!-- Graves -->
<g id="node14" class="node">
<title>Graves</title>
<ellipse fill="#ffa500" stroke="#000000" cx="3837" cy="-661" rx="79" ry="79"/>
<text text-anchor="middle" x="3837" y="-656.5" font-family="Times,serif" font-size="15.00" fill="#000000">Graves</text>
</g>
<!-- Citations&#45;&gt;Graves -->
<g id="edge68" class="edge">
<title>Citations&#45;&gt;Graves</title>
<path fill="none" stroke="#696969" d="M3609.4491,-815.0087C3631.5318,-802.324 3656.1953,-788.3834 3679,-776 3709.744,-759.3054 3720.1912,-759.8483 3749,-740 3756.6979,-734.6964 3764.4412,-728.7804 3771.9703,-722.6375"/>
<polygon fill="#696969" stroke="#696969" points="3774.6079,-724.9951 3780.0438,-715.9011 3770.1232,-719.6203 3774.6079,-724.9951"/>
</g>
<!-- Health -->
<g id="node15" class="node">
<title>Health</title>
<ellipse fill="#ffa500" stroke="#000000" cx="4522" cy="-273" rx="79" ry="79"/>
<text text-anchor="middle" x="4522" y="-268.5" font-family="Times,serif" font-size="15.00" fill="#000000">Health</text>
</g>
<!-- Citations&#45;&gt;Health -->
<g id="edge71" class="edge">
<title>Citations&#45;&gt;Health</title>
<path fill="none" stroke="#696969" d="M3609.954,-815.9557C3640.2936,-800.6959 3676.9458,-784.7771 3712,-776 3846.0922,-742.4251 4212.3769,-807.5135 4333,-740 4407.6649,-698.2096 4371.062,-628.3271 4443,-582 4517.4635,-534.0465 4582.3111,-614.0494 4639,-546 4683.9463,-492.0464 4666.1523,-452.7604 4639,-388 4629.2674,-364.787 4612.3112,-343.896 4594.2787,-326.4902"/>
<polygon fill="#696969" stroke="#696969" points="4596.2056,-323.5019 4586.5025,-319.2474 4591.4346,-328.6242 4596.2056,-323.5019"/>
</g>
<!-- HumanIsotopes -->
<g id="node16" class="node">
<title>HumanIsotopes</title>
<ellipse fill="#ffa500" stroke="#000000" cx="3403" cy="-273" rx="79" ry="79"/>
<text text-anchor="middle" x="3403" y="-268.5" font-family="Times,serif" font-size="15.00" fill="#000000">HumanIsotopes</text>
</g>
<!-- Citations&#45;&gt;HumanIsotopes -->
<g id="edge74" class="edge">
<title>Citations&#45;&gt;HumanIsotopes</title>
<path fill="none" stroke="#696969" d="M3606.679,-810.724C3628.8165,-797.6501 3654.2114,-784.5633 3679,-776 3731.2208,-757.9602 3888.8721,-781.7997 3925,-740 3970.9191,-686.8719 3948.6356,-648.125 3925,-582 3887.4774,-477.0233 3858.2909,-450.5336 3766,-388 3682.3287,-331.3068 3569.1286,-301.3132 3491.5116,-286.3489"/>
<polygon fill="#696969" stroke="#696969" points="3491.753,-282.8329 3481.2782,-284.4231 3490.4584,-289.7122 3491.753,-282.8329"/>
</g>
<!-- MaterialCulture -->
<g id="node18" class="node">
<title>MaterialCulture</title>
<ellipse fill="#ffa500" stroke="#000000" cx="4531" cy="-661" rx="79" ry="79"/>
<text text-anchor="middle" x="4531" y="-656.5" font-family="Times,serif" font-size="15.00" fill="#000000">MaterialCulture</text>
</g>
<!-- Citations&#45;&gt;MaterialCulture -->
<g id="edge78" class="edge">
<title>Citations&#45;&gt;MaterialCulture</title>
<path fill="none" stroke="#696969" d="M3609.9188,-815.8137C3640.2523,-800.5292 3676.9094,-784.6305 3712,-776 3868.857,-737.4212 4287.8042,-799.4446 4438,-740 4448.36,-735.8997 4458.3885,-730.1498 4467.7844,-723.6011"/>
<polygon fill="#696969" stroke="#696969" points="4469.883,-726.4024 4475.871,-717.662 4465.7393,-720.7606 4469.883,-726.4024"/>
</g>
<!-- PhaseCitation -->
<g id="node20" class="node">
<title>PhaseCitation</title>
<ellipse fill="#ffa500" stroke="#000000" cx="3099" cy="-661" rx="79" ry="79"/>
<text text-anchor="middle" x="3099" y="-656.5" font-family="Times,serif" font-size="15.00" fill="#000000">PhaseCitation</text>
</g>
<!-- Citations&#45;&gt;PhaseCitation -->
<g id="edge96" class="edge">
<title>Citations&#45;&gt;PhaseCitation</title>
<path fill="none" stroke="#696969" d="M3467.3512,-825.858C3411.0363,-803.2558 3331.6575,-770.7076 3263,-740 3235.5159,-727.7075 3205.7757,-713.6236 3179.2647,-700.7839"/>
<polygon fill="#696969" stroke="#696969" points="3180.5554,-697.5198 3170.0311,-696.2992 3177.4972,-703.8164 3180.5554,-697.5198"/>
</g>
<!-- Rites -->
<g id="node24" class="node">
<title>Rites</title>
<ellipse fill="#ffa500" stroke="#000000" cx="4289" cy="-273" rx="79" ry="79"/>
<text text-anchor="middle" x="4289" y="-268.5" font-family="Times,serif" font-size="15.00" fill="#000000">Rites</text>
</g>
<!-- Citations&#45;&gt;Rites -->
<g id="edge109" class="edge">
<title>Citations&#45;&gt;Rites</title>
<path fill="none" stroke="#696969" d="M3609.9728,-816.0305C3640.3157,-800.7836 3676.9652,-784.8543 3712,-776 3774.2777,-760.2607 4245.0154,-786.8144 4289,-740 4384.8269,-638.008 4351.4287,-461.2424 4319.503,-356.906"/>
<polygon fill="#696969" stroke="#696969" points="4322.8413,-355.854 4316.5213,-347.3505 4316.159,-357.9392 4322.8413,-355.854"/>
</g>
<!-- Strontium -->
<g id="node26" class="node">
<title>Strontium</title>
<ellipse fill="#ffa500" stroke="#000000" cx="3814" cy="-273" rx="79" ry="79"/>
<text text-anchor="middle" x="3814" y="-268.5" font-family="Times,serif" font-size="15.00" fill="#000000">Strontium</text>
</g>
<!-- Citations&#45;&gt;Strontium -->
<g id="edge112" class="edge">
<title>Citations&#45;&gt;Strontium</title>
<path fill="none" stroke="#696969" d="M3609.9814,-816.0645C3640.3258,-800.8234 3676.9741,-784.8893 3712,-776 3772.3272,-760.6894 4228.4275,-785.4024 4271,-740 4289.687,-720.0709 4272.4043,-399.6143 4263,-388 4240.1361,-359.7631 4026.0503,-314.1291 3901.9381,-289.7"/>
<polygon fill="#696969" stroke="#696969" points="3902.5449,-286.2524 3892.0583,-287.7627 3901.1979,-293.1216 3902.5449,-286.2524"/>
</g>
<!-- StrontiumEnvironment -->
<g id="node27" class="node">
<title>StrontiumEnvironment</title>
<ellipse fill="#ffa500" stroke="#000000" cx="3351" cy="-661" rx="79" ry="79"/>
<text text-anchor="middle" x="3351" y="-656.5" font-family="Times,serif" font-size="15.00" fill="#000000">StrontiumEnvironment</text>
</g>
<!-- Citations&#45;&gt;StrontiumEnvironment -->
<g id="edge116" class="edge">
<title>Citations&#45;&gt;StrontiumEnvironment</title>
<path fill="none" stroke="#696969" d="M3485.5334,-798.3657C3463.0003,-775.3582 3436.8556,-748.6631 3413.6394,-724.9581"/>
<polygon fill="#696969" stroke="#696969" points="3416.0331,-722.4001 3406.5356,-717.7047 3411.0321,-727.2981 3416.0331,-722.4001"/>
</g>
<!-- FaunalBiometrics -->
<g id="node8" class="node">
<title>FaunalBiometrics</title>
<ellipse fill="#ffa500" stroke="#000000" cx="1929" cy="-661" rx="79" ry="79"/>
<text text-anchor="middle" x="1929" y="-656.5" font-family="Times,serif" font-size="15.00" fill="#000000">FaunalBiometrics</text>
</g>
<!-- FaunalIsotopes&#45;&gt;FaunalIsotopeSequences -->
<g id="edge51" class="edge">
<title>FaunalIsotopes&#45;&gt;FaunalIsotopeSequences</title>
<path fill="none" stroke="#696969" d="M2762.8987,-603.1463C2773.4099,-594.762 2784.94,-587.2163 2797,-582 2970.1749,-507.097 3035.3824,-584.9404 3220,-546 3270.0247,-535.4486 3324.1855,-517.2034 3367.3768,-500.9038"/>
<polygon fill="#696969" stroke="#696969" points="3368.8838,-504.0751 3376.9817,-497.2431 3366.3908,-497.534 3368.8838,-504.0751"/>
</g>
<!-- GraveConstruction -->
<g id="node12" class="node">
<title>GraveConstruction</title>
<ellipse fill="#ffa500" stroke="#000000" cx="3678" cy="-467" rx="79" ry="79"/>
<text text-anchor="middle" x="3678" y="-462.5" font-family="Times,serif" font-size="15.00" fill="#000000">GraveConstruction</text>
</g>
<!-- GraveIndividuals&#45;&gt;Health -->
<g id="edge72" class="edge">
<title>GraveIndividuals&#45;&gt;Health</title>
<path fill="none" stroke="#696969" d="M4243.9709,-428.4399C4301.592,-396.2252 4383.7363,-350.3002 4443.7948,-316.7228"/>
<polygon fill="#696969" stroke="#696969" points="4445.8426,-319.5878 4452.8631,-311.6529 4442.4267,-313.4779 4445.8426,-319.5878"/>
</g>
<!-- GraveIndividuals&#45;&gt;HumanIsotopes -->
<g id="edge75" class="edge">
<title>GraveIndividuals&#45;&gt;HumanIsotopes</title>
<path fill="none" stroke="#696969" d="M4104.8571,-430.5171C4072.505,-415.1465 4033.115,-398.4355 3996,-388 3879.4571,-355.232 3844.9691,-374.4132 3726,-352 3644.9233,-336.7256 3553.7068,-313.8849 3488.9393,-296.686"/>
<polygon fill="#696969" stroke="#696969" points="3489.743,-293.2781 3479.1788,-294.0837 3487.9396,-300.0419 3489.743,-293.2781"/>
</g>
<!-- GraveIndividuals&#45;&gt;Rites -->
<g id="edge110" class="edge">
<title>GraveIndividuals&#45;&gt;Rites</title>
<path fill="none" stroke="#696969" d="M4215.0318,-398.8756C4224.2884,-383.1233 4234.2018,-366.2531 4243.6669,-350.1459"/>
<polygon fill="#696969" stroke="#696969" points="4246.8233,-351.6828 4248.8721,-341.2879 4240.7881,-348.1363 4246.8233,-351.6828"/>
</g>
<!-- GraveIndividuals&#45;&gt;Strontium -->
<g id="edge113" class="edge">
<title>GraveIndividuals&#45;&gt;Strontium</title>
<path fill="none" stroke="#696969" d="M4105.3956,-429.5948C4044.5648,-396.9046 3956.2983,-349.4705 3892.8698,-315.3843"/>
<polygon fill="#696969" stroke="#696969" points="3894.1634,-312.1062 3883.698,-310.4554 3890.8498,-318.2722 3894.1634,-312.1062"/>
</g>
<!-- Graves&#45;&gt;GraveConstruction -->
<g id="edge60" class="edge">
<title>Graves&#45;&gt;GraveConstruction</title>
<path fill="none" stroke="#696969" d="M3786.9096,-599.8835C3770.2822,-579.5959 3751.6568,-556.8705 3734.5753,-536.029"/>
<polygon fill="#696969" stroke="#696969" points="3737.1576,-533.6582 3728.1117,-528.1425 3731.7436,-538.0954 3737.1576,-533.6582"/>
</g>
<!-- Graves&#45;&gt;GraveIndividuals -->
<g id="edge63" class="edge">
<title>Graves&#45;&gt;GraveIndividuals</title>
<path fill="none" stroke="#696969" d="M3895.2093,-607.5433C3906.3624,-598.4773 3918.24,-589.563 3930,-582 3981.1429,-549.1092 4043.1862,-520.0847 4092.0405,-499.4224"/>
<polygon fill="#696969" stroke="#696969" points="4093.4472,-502.6279 4101.3156,-495.5328 4090.7401,-496.1725 4093.4472,-502.6279"/>
</g>
<!-- Items -->
<g id="node17" class="node">
<title>Items</title>
<ellipse fill="#ffa500" stroke="#000000" cx="3206" cy="-855" rx="79" ry="79"/>
<text text-anchor="middle" x="3206" y="-850.5" font-family="Times,serif" font-size="15.00" fill="#000000">Items</text>
</g>
<!-- Items&#45;&gt;ABotIsotopes -->
<g id="edge4" class="edge">
<title>Items&#45;&gt;ABotIsotopes</title>
<path fill="none" stroke="#696969" d="M3131.4247,-828.0494C3090.053,-809.4163 3041.0387,-780.5999 3011,-740 2968.0425,-681.9393 3028.1191,-628.6721 2973,-582 2913.7714,-531.8482 1764.4864,-483.3965 1432.2395,-470.3928"/>
<polygon fill="#696969" stroke="#696969" points="1432.3072,-466.8929 1422.1783,-470.0001 1432.0342,-473.8875 1432.3072,-466.8929"/>
</g>
<!-- Items&#45;&gt;C14Ghosts -->
<g id="edge24" class="edge">
<title>Items&#45;&gt;C14Ghosts</title>
<path fill="none" stroke="#696969" d="M3128.0621,-840.8227C2980.0236,-813.7259 2668.6283,-755.8632 2621,-740 2592.3008,-730.4414 2562.1364,-716.987 2535.6142,-703.8861"/>
<polygon fill="#696969" stroke="#696969" points="2536.9027,-700.6172 2526.3933,-699.2739 2533.7712,-706.8777 2536.9027,-700.6172"/>
</g>
<!-- Items&#45;&gt;C14Samples -->
<g id="edge31" class="edge">
<title>Items&#45;&gt;C14Samples</title>
<path fill="none" stroke="#696969" d="M3128.9936,-837.0806C3043.8895,-818.1392 2902.5001,-789.2143 2779,-776 2647.4681,-761.9263 1711.802,-789.177 1589,-740 1579.8514,-736.3364 1571.0398,-731.2693 1562.7605,-725.4538"/>
<polygon fill="#696969" stroke="#696969" points="1564.7735,-722.5889 1554.6658,-719.4131 1560.5869,-728.199 1564.7735,-722.5889"/>
</g>
<!-- Items&#45;&gt;FaunalIsotopes -->
<g id="edge53" class="edge">
<title>Items&#45;&gt;FaunalIsotopes</title>
<path fill="none" stroke="#696969" d="M3127.7363,-843.9039C3042.3004,-829.3764 2903.4789,-798.5612 2797,-740 2788.8091,-735.4952 2780.7481,-730.0937 2773.0299,-724.2572"/>
<polygon fill="#696969" stroke="#696969" points="2774.821,-721.2127 2764.7994,-717.7749 2770.4899,-726.7119 2774.821,-721.2127"/>
</g>
<!-- Items&#45;&gt;GraveIndividuals -->
<g id="edge64" class="edge">
<title>Items&#45;&gt;GraveIndividuals</title>
<path fill="none" stroke="#696969" d="M3279.6689,-826.4462C3328.1631,-808.9014 3393.4575,-787.6266 3453,-776 3556.2437,-755.84 3838.1378,-799.335 3925,-740 3989.3445,-696.0467 3949.7613,-640.7085 4001,-582 4027.1164,-552.0763 4062.7964,-526.683 4095.05,-507.4315"/>
<polygon fill="#696969" stroke="#696969" points="4097.1835,-510.2382 4104.0455,-502.1658 4093.6472,-504.1971 4097.1835,-510.2382"/>
</g>
<!-- Items&#45;&gt;Graves -->
<g id="edge69" class="edge">
<title>Items&#45;&gt;Graves</title>
<path fill="none" stroke="#696969" d="M3280.1251,-827.2481C3328.6668,-810.0862 3393.8435,-788.9364 3453,-776 3582.4655,-747.6884 3628.3354,-794.7988 3749,-740 3757.7407,-736.0305 3766.2241,-730.8756 3774.2527,-725.1007"/>
<polygon fill="#696969" stroke="#696969" points="3776.5968,-727.7156 3782.4464,-718.8819 3772.3648,-722.1396 3776.5968,-727.7156"/>
</g>
<!-- Items&#45;&gt;HumanIsotopes -->
<g id="edge76" class="edge">
<title>Items&#45;&gt;HumanIsotopes</title>
<path fill="none" stroke="#696969" d="M3201.6711,-776.1111C3196.7228,-660.5756 3193.4874,-452.1065 3230,-388 3250.2355,-352.4718 3286.4763,-325.8576 3320.5781,-307.23"/>
<polygon fill="#696969" stroke="#696969" points="3322.4539,-310.1972 3329.6561,-302.4268 3319.1802,-304.0099 3322.4539,-310.1972"/>
</g>
<!-- Items&#45;&gt;MaterialCulture -->
<g id="edge79" class="edge">
<title>Items&#45;&gt;MaterialCulture</title>
<path fill="none" stroke="#696969" d="M3279.5556,-825.8418C3328.0036,-808.0508 3393.2892,-786.7286 3453,-776 3795.4399,-714.4716 3891.1623,-793.1652 4235,-740 4307.4461,-728.7982 4387.6829,-706.7592 4446.3223,-688.7992"/>
<polygon fill="#696969" stroke="#696969" points="4447.3867,-692.1336 4455.9098,-685.8402 4445.3223,-685.445 4447.3867,-692.1336"/>
</g>
<!-- Items&#45;&gt;Strontium -->
<g id="edge114" class="edge">
<title>Items&#45;&gt;Strontium</title>
<path fill="none" stroke="#696969" d="M3216.6729,-776.7211C3225.5868,-721.3138 3240.5085,-645.8165 3263,-582 3295.1764,-490.7041 3286.3692,-448.4174 3362,-388 3369.2496,-382.2087 3597.9678,-325.7237 3727.2022,-294.1299"/>
<polygon fill="#696969" stroke="#696969" points="3728.2111,-297.4864 3737.0945,-291.7126 3726.5495,-290.6865 3728.2111,-297.4864"/>
</g>
<!-- Monuments -->
<g id="node19" class="node">
<title>Monuments</title>
<ellipse fill="#ffa500" stroke="#000000" cx="2281" cy="-661" rx="79" ry="79"/>
<text text-anchor="middle" x="2281" y="-656.5" font-family="Times,serif" font-size="15.00" fill="#000000">Monuments</text>
</g>
<!-- PhaseOrder -->
<g id="node21" class="node">
<title>PhaseOrder</title>
<ellipse fill="#ffa500" stroke="#000000" cx="2105" cy="-661" rx="79" ry="79"/>
<text text-anchor="middle" x="2105" y="-656.5" font-family="Times,serif" font-size="15.00" fill="#000000">PhaseOrder</text>
</g>
<!-- PhaseTypes -->
<g id="node22" class="node">
<title>PhaseTypes</title>
<ellipse fill="#ffa500" stroke="#000000" cx="1677" cy="-661" rx="79" ry="79"/>
<text text-anchor="middle" x="1677" y="-656.5" font-family="Times,serif" font-size="15.00" fill="#000000">PhaseTypes</text>
</g>
<!-- Phases -->
<g id="node23" class="node">
<title>Phases</title>
<ellipse fill="#ffa500" stroke="#000000" cx="2457" cy="-855" rx="79" ry="79"/>
<text text-anchor="middle" x="2457" y="-850.5" font-family="Times,serif" font-size="15.00" fill="#000000">Phases</text>
</g>
<!-- Phases&#45;&gt;ABotPhases -->
<g id="edge8" class="edge">
<title>Phases&#45;&gt;ABotPhases</title>
<path fill="none" stroke="#696969" d="M2403.3036,-796.6629C2392.7699,-788.3323 2381.1799,-780.9299 2369,-776 2270.4676,-736.1185 1519.133,-745.9107 1413,-740 1048.2848,-719.6884 614.52,-684.1954 431.0123,-668.6548"/>
<polygon fill="#696969" stroke="#696969" points="431.135,-665.1527 420.8749,-667.795 430.5433,-672.1277 431.135,-665.1527"/>
</g>
<!-- Phases&#45;&gt;C14Ghosts -->
<g id="edge25" class="edge">
<title>Phases&#45;&gt;C14Ghosts</title>
<path fill="none" stroke="#696969" d="M2443.7312,-776.9314C2443.5038,-767.7302 2443.4442,-758.2925 2443.5522,-748.9672"/>
<polygon fill="#696969" stroke="#696969" points="2447.0526,-748.9709 2443.7351,-738.9088 2440.0537,-748.8435 2447.0526,-748.9709"/>
</g>
<!-- Phases&#45;&gt;C14Ghosts -->
<g id="edge26" class="edge">
<title>Phases&#45;&gt;C14Ghosts</title>
<path fill="none" stroke="#696969" d="M2457,-775.813C2457,-767.4705 2457,-758.946 2457,-750.4979"/>
<polygon fill="#696969" stroke="#696969" points="2460.5001,-750.2482 2457,-740.2483 2453.5001,-750.2483 2460.5001,-750.2482"/>
</g>
<!-- Phases&#45;&gt;C14Ghosts -->
<g id="edge27" class="edge">
<title>Phases&#45;&gt;C14Ghosts</title>
<path fill="none" stroke="#696969" d="M2470.2688,-776.9314C2470.4962,-767.7302 2470.5558,-758.2925 2470.4478,-748.9672"/>
<polygon fill="#696969" stroke="#696969" points="2473.9463,-748.8435 2470.2649,-738.9088 2466.9474,-748.9709 2473.9463,-748.8435"/>
</g>
<!-- Phases&#45;&gt;C14Samples -->
<g id="edge32" class="edge">
<title>Phases&#45;&gt;C14Samples</title>
<path fill="none" stroke="#696969" d="M2395.4539,-804.7894C2381.9189,-793.2913 2366.9586,-782.5382 2351,-776 2190.4353,-710.2168 1731.5647,-805.7832 1571,-740 1565.4014,-737.7063 1559.9257,-734.8938 1554.6462,-731.7124"/>
<polygon fill="#696969" stroke="#696969" points="1556.2453,-728.5764 1545.9594,-726.0365 1552.4164,-734.4364 1556.2453,-728.5764"/>
</g>
<!-- Phases&#45;&gt;C14Samples -->
<g id="edge33" class="edge">
<title>Phases&#45;&gt;C14Samples</title>
<path fill="none" stroke="#696969" d="M2403.2682,-796.75C2392.7384,-788.4097 2381.1589,-780.9815 2369,-776 2208.4353,-710.2168 1749.5647,-805.7832 1589,-740 1579.8808,-736.2639 1571.0876,-731.1515 1562.8187,-725.3102"/>
<polygon fill="#696969" stroke="#696969" points="1564.8331,-722.4461 1554.7318,-719.25 1560.6353,-728.0477 1564.8331,-722.4461"/>
</g>
<!-- Phases&#45;&gt;C14Samples -->
<g id="edge34" class="edge">
<title>Phases&#45;&gt;C14Samples</title>
<path fill="none" stroke="#696969" d="M2412.0406,-789.9635C2404.1791,-784.4249 2395.7392,-779.5804 2387,-776 2226.4353,-710.2168 1767.5647,-805.7832 1607,-740 1594.0337,-734.6877 1581.7263,-726.5929 1570.3071,-717.5768"/>
<polygon fill="#696969" stroke="#696969" points="1572.4975,-714.8467 1562.5461,-711.2106 1568.058,-720.2588 1572.4975,-714.8467"/>
</g>
<!-- Phases&#45;&gt;FaunalBiometrics -->
<g id="edge46" class="edge">
<title>Phases&#45;&gt;FaunalBiometrics</title>
<path fill="none" stroke="#696969" d="M2402.5326,-796.9258C2392.1631,-788.6787 2380.8275,-781.2356 2369,-776 2225.1988,-712.3441 2160.8012,-803.6559 2017,-740 2008.2218,-736.1142 1999.7145,-731.0124 1991.6721,-725.2684"/>
<polygon fill="#696969" stroke="#696969" points="1993.5572,-722.3062 1983.4674,-719.0742 1989.3395,-727.8929 1993.5572,-722.3062"/>
</g>
<!-- Phases&#45;&gt;FaunalIsotopes -->
<g id="edge54" class="edge">
<title>Phases&#45;&gt;FaunalIsotopes</title>
<path fill="none" stroke="#696969" d="M2515.3257,-800.8825C2525.0671,-792.3566 2535.1956,-783.7924 2545,-776 2573.4944,-753.3531 2606.1036,-730.001 2634.6996,-710.306"/>
<polygon fill="#696969" stroke="#696969" points="2636.775,-713.1267 2643.0428,-704.5847 2632.8162,-707.3537 2636.775,-713.1267"/>
</g>
<!-- Phases&#45;&gt;FaunalSpecies -->
<g id="edge58" class="edge">
<title>Phases&#45;&gt;FaunalSpecies</title>
<path fill="none" stroke="#696969" d="M2511.6498,-797.3271C2521.9983,-789.0336 2533.2795,-781.471 2545,-776 2647.5181,-728.1457 2694.4819,-787.8543 2797,-740 2805.6988,-735.9395 2814.1556,-730.7268 2822.1687,-724.9183"/>
<polygon fill="#696969" stroke="#696969" points="2824.5252,-727.5228 2830.3502,-718.6729 2820.2777,-721.9587 2824.5252,-727.5228"/>
</g>
<!-- Phases&#45;&gt;Graves -->
<g id="edge70" class="edge">
<title>Phases&#45;&gt;Graves</title>
<path fill="none" stroke="#696969" d="M2510.6643,-796.5832C2521.2016,-788.2615 2532.8011,-780.8827 2545,-776 2793.5084,-676.5337 3500.4916,-839.4663 3749,-740 3758.1492,-736.338 3766.9612,-731.2719 3775.2408,-725.457"/>
<polygon fill="#696969" stroke="#696969" points="3777.4141,-728.2023 3783.3357,-719.4168 3773.2279,-722.592 3777.4141,-728.2023"/>
</g>
<!-- Phases&#45;&gt;MaterialCulture -->
<g id="edge80" class="edge">
<title>Phases&#45;&gt;MaterialCulture</title>
<path fill="none" stroke="#696969" d="M2506.2275,-793.0494C2515.4476,-786.1648 2525.4986,-780.151 2536,-776 2710.6699,-706.957 4040.045,-766.4053 4226,-740 4301.3225,-729.3043 4384.8817,-705.8979 4445.5284,-687.3238"/>
<polygon fill="#696969" stroke="#696969" points="4446.9129,-690.5596 4455.4386,-684.2696 4444.8513,-683.87 4446.9129,-690.5596"/>
</g>
<!-- Phases&#45;&gt;MaterialCulture -->
<g id="edge81" class="edge">
<title>Phases&#45;&gt;MaterialCulture</title>
<path fill="none" stroke="#696969" d="M2514.5505,-800.4552C2526.5571,-790.5421 2539.8709,-781.5849 2554,-776 2728.6699,-706.957 4058.045,-766.4053 4244,-740 4313.6914,-730.1039 4390.4341,-709.3265 4447.0686,-691.5632"/>
<polygon fill="#696969" stroke="#696969" points="4448.2156,-694.8714 4456.6906,-688.5133 4446.1004,-688.1986 4448.2156,-694.8714"/>
</g>
<!-- Phases&#45;&gt;Monuments -->
<g id="edge95" class="edge">
<title>Phases&#45;&gt;Monuments</title>
<path fill="none" stroke="#696969" d="M2403.7166,-796.2671C2383.9006,-774.4245 2361.2876,-749.4988 2340.9173,-727.0452"/>
<polygon fill="#696969" stroke="#696969" points="2343.4137,-724.5879 2334.1023,-719.5332 2338.2293,-729.2913 2343.4137,-724.5879"/>
</g>
<!-- Phases&#45;&gt;PhaseCitation -->
<g id="edge97" class="edge">
<title>Phases&#45;&gt;PhaseCitation</title>
<path fill="none" stroke="#696969" d="M2510.8943,-797.1362C2521.4061,-788.753 2532.9374,-781.2104 2545,-776 2720.2446,-700.3044 2791.9153,-800.4057 2973,-740 2991.5625,-733.808 3010.1775,-724.3582 3027.1871,-714.1223"/>
<polygon fill="#696969" stroke="#696969" points="3029.2671,-716.9511 3035.9268,-708.7111 3025.5821,-710.9995 3029.2671,-716.9511"/>
</g>
<!-- Phases&#45;&gt;PhaseOrder -->
<g id="edge98" class="edge">
<title>Phases&#45;&gt;PhaseOrder</title>
<path fill="none" stroke="#696969" d="M2390.9238,-810.563C2375.6785,-797.6404 2359.2355,-784.6828 2342,-776 2270.6952,-740.0787 2237.3048,-775.9213 2166,-740 2162.3902,-738.1815 2158.8151,-736.1754 2155.3031,-734.0214"/>
<polygon fill="#696969" stroke="#696969" points="2156.9993,-730.9482 2146.7191,-728.3851 2153.1572,-736.7995 2156.9993,-730.9482"/>
</g>
<!-- Phases&#45;&gt;PhaseOrder -->
<g id="edge99" class="edge">
<title>Phases&#45;&gt;PhaseOrder</title>
<path fill="none" stroke="#696969" d="M2398.114,-801.9449C2386.2921,-792.0642 2373.385,-782.743 2360,-776 2288.6952,-740.0787 2255.3048,-775.9213 2184,-740 2177.3189,-736.6343 2170.757,-732.6262 2164.4415,-728.2268"/>
<polygon fill="#696969" stroke="#696969" points="2166.1225,-725.1182 2155.9942,-722.0087 2161.9728,-730.7556 2166.1225,-725.1182"/>
</g>
<!-- Phases&#45;&gt;PhaseOrder -->
<g id="edge100" class="edge">
<title>Phases&#45;&gt;PhaseOrder</title>
<path fill="none" stroke="#696969" d="M2406.0058,-793.9913C2397.1839,-787.1502 2387.7179,-780.8956 2378,-776 2306.6952,-740.0787 2273.3048,-775.9213 2202,-740 2191.5429,-734.732 2181.3776,-727.8905 2171.7936,-720.4378"/>
<polygon fill="#696969" stroke="#696969" points="2173.8657,-717.6126 2163.886,-714.0551 2169.4691,-723.0595 2173.8657,-717.6126"/>
</g>
<!-- Phases&#45;&gt;PhaseOrder -->
<g id="edge101" class="edge">
<title>Phases&#45;&gt;PhaseOrder</title>
<path fill="none" stroke="#696969" d="M2415.2809,-787.6149C2409.0854,-783.2776 2402.6008,-779.3253 2396,-776 2324.6952,-740.0787 2291.3048,-775.9213 2220,-740 2205.7268,-732.8096 2191.9972,-722.6875 2179.0412,-712.0814"/>
<polygon fill="#696969" stroke="#696969" points="2180.9972,-709.1553 2171.0762,-705.437 2176.5131,-714.5305 2180.9972,-709.1553"/>
</g>
<!-- Phases&#45;&gt;PhaseTypes -->
<g id="edge102" class="edge">
<title>Phases&#45;&gt;PhaseTypes</title>
<path fill="none" stroke="#696969" d="M2403.1746,-796.9748C2392.6552,-788.6095 2381.1035,-781.1147 2369,-776 2260.6696,-730.222 1954.6985,-770.0627 1841,-740 1811.6192,-732.2315 1781.1707,-719.1523 1754.6023,-705.8483"/>
<polygon fill="#696969" stroke="#696969" points="1755.8732,-702.5675 1745.3747,-701.1414 1752.6924,-708.8031 1755.8732,-702.5675"/>
</g>
<!-- Sites -->
<g id="node25" class="node">
<title>Sites</title>
<ellipse fill="#ffa500" stroke="#000000" cx="2354" cy="-1049" rx="79" ry="79"/>
<text text-anchor="middle" x="2354" y="-1044.5" font-family="Times,serif" font-size="15.00" fill="#000000">Sites</text>
</g>
<!-- Sites&#45;&gt;C14Samples -->
<g id="edge35" class="edge">
<title>Sites&#45;&gt;C14Samples</title>
<path fill="none" stroke="#696969" d="M2300.3449,-990.5603C2289.8065,-982.2411 2278.2044,-974.8691 2266,-970 2198.8421,-943.2066 1015.4156,-985.83 965,-934 916.0369,-883.6633 920.8598,-830.6151 965,-776 1020.1898,-707.7131 1274.2539,-678.122 1411.8531,-666.9201"/>
<polygon fill="#696969" stroke="#696969" points="1412.2698,-670.398 1421.9596,-666.1133 1411.7127,-663.4202 1412.2698,-670.398"/>
</g>
<!-- Sites&#45;&gt;Phases -->
<g id="edge104" class="edge">
<title>Sites&#45;&gt;Phases</title>
<path fill="none" stroke="#696969" d="M2391.1854,-978.9615C2398.9159,-964.4011 2407.1138,-948.9603 2415.0035,-934.1001"/>
<polygon fill="#696969" stroke="#696969" points="2418.2712,-935.4093 2419.8692,-924.9356 2412.0885,-932.1267 2418.2712,-935.4093"/>
</g>
<!-- Sites&#45;&gt;StrontiumEnvironment -->
<g id="edge117" class="edge">
<title>Sites&#45;&gt;StrontiumEnvironment</title>
<path fill="none" stroke="#696969" d="M2407.7155,-990.7101C2418.2471,-982.3742 2429.8314,-974.9578 2442,-970 2529.7477,-934.2492 3221.7503,-995.3005 3294,-934 3346.1094,-889.7876 3358.0855,-811.3424 3358.3424,-749.8514"/>
<polygon fill="#696969" stroke="#696969" points="3361.8418,-749.7268 3358.2813,-739.7482 3354.842,-749.7693 3361.8418,-749.7268"/>
</g>
<!-- StrontiumSequences -->
<g id="node28" class="node">
<title>StrontiumSequences</title>
<ellipse fill="#ffa500" stroke="#000000" cx="3814" cy="-79" rx="79" ry="79"/>
<text text-anchor="middle" x="3814" y="-74.5" font-family="Times,serif" font-size="15.00" fill="#000000">StrontiumSequences</text>
</g>
<!-- Strontium&#45;&gt;StrontiumSequences -->
<g id="edge118" class="edge">
<title>Strontium&#45;&gt;StrontiumSequences</title>
<path fill="none" stroke="#696969" d="M3814,-193.813C3814,-185.4705 3814,-176.946 3814,-168.4979"/>
<polygon fill="#696969" stroke="#696969" points="3817.5001,-168.2482 3814,-158.2483 3810.5001,-168.2483 3817.5001,-168.2482"/>
</g>
<!-- zoptions_ABotAnatomy -->
<g id="node29" class="node">
<title>zoptions_ABotAnatomy</title>
<polygon fill="#add8e6" stroke="#000000" points="216,-873 0,-873 0,-837 216,-837 216,-873"/>
<text text-anchor="middle" x="108" y="-850.5" font-family="Times,serif" font-size="15.00" fill="#000000">zoptions_ABotAnatomy</text>
</g>
<!-- zoptions_ABotAnatomy&#45;&gt;ABotIsotopes -->
<g id="edge5" class="edge">
<title>zoptions_ABotAnatomy&#45;&gt;ABotIsotopes</title>
<path fill="none" stroke="#696969" d="M127.6785,-836.9029C149.6837,-815.6639 184.9848,-778.4365 206,-740 241.2079,-675.6053 197.4223,-628.7465 254,-582 330.5316,-518.7668 1007.1464,-482.1618 1253.6593,-470.8279"/>
<polygon fill="#696969" stroke="#696969" points="1254.1825,-474.3077 1264.0124,-470.3551 1253.8631,-467.315 1254.1825,-474.3077"/>
</g>
<!-- zoptions_ABotAnatomy&#45;&gt;ABotSamples -->
<g id="edge14" class="edge">
<title>zoptions_ABotAnatomy&#45;&gt;ABotSamples</title>
<path fill="none" stroke="#696969" d="M104.6488,-836.8064C109.5802,-785.6027 154.6608,-637.9843 191.0731,-545.4804"/>
<polygon fill="#696969" stroke="#696969" points="194.3403,-546.736 194.792,-536.1508 187.8379,-544.144 194.3403,-546.736"/>
</g>
<!-- zoptions_ABotAnatomy&#45;&gt;ABotSamples -->
<g id="edge15" class="edge">
<title>zoptions_ABotAnatomy&#45;&gt;ABotSamples</title>
<path fill="none" stroke="#696969" d="M110.7905,-836.8064C123.2224,-786.4502 168.6257,-642.845 200.5674,-550.1187"/>
<polygon fill="#696969" stroke="#696969" points="203.943,-551.0664 203.9059,-540.4717 197.3279,-548.7771 203.943,-551.0664"/>
</g>
<!-- zoptions_ABotAnatomy&#45;&gt;ABotSamples -->
<g id="edge16" class="edge">
<title>zoptions_ABotAnatomy&#45;&gt;ABotSamples</title>
<path fill="none" stroke="#696969" d="M116.9322,-836.8064C136.7162,-787.029 182.9923,-646.1339 210.9104,-553.3361"/>
<polygon fill="#696969" stroke="#696969" points="214.2889,-554.2545 213.8034,-543.6708 207.5828,-552.2472 214.2889,-554.2545"/>
</g>
<!-- zoptions_ABotAnatomy&#45;&gt;ABotSamples -->
<g id="edge17" class="edge">
<title>zoptions_ABotAnatomy&#45;&gt;ABotSamples</title>
<path fill="none" stroke="#696969" d="M123.0739,-836.8064C150.1272,-787.4408 197.605,-648.4584 221.7606,-555.6485"/>
<polygon fill="#696969" stroke="#696969" points="225.2196,-556.2491 224.3061,-545.6938 218.4378,-554.515 225.2196,-556.2491"/>
</g>
<!-- zoptions_ABotAnatomy&#45;&gt;C14Samples -->
<g id="edge36" class="edge">
<title>zoptions_ABotAnatomy&#45;&gt;C14Samples</title>
<path fill="none" stroke="#696969" d="M127.7987,-836.946C149.7649,-818.1076 187.1311,-789.4762 225,-776 336.2044,-736.4263 1140.2954,-683.4128 1411.7575,-666.4562"/>
<polygon fill="#696969" stroke="#696969" points="1412.1997,-669.9355 1421.9626,-665.8201 1411.7642,-662.9491 1412.1997,-669.9355"/>
</g>
<!-- zoptions_Preservation -->
<g id="node30" class="node">
<title>zoptions_Preservation</title>
<polygon fill="#add8e6" stroke="#000000" points="684,-873 468,-873 468,-837 684,-837 684,-873"/>
<text text-anchor="middle" x="576" y="-850.5" font-family="Times,serif" font-size="15.00" fill="#000000">zoptions_Preservation</text>
</g>
<!-- zoptions_Preservation&#45;&gt;ABotIsotopes -->
<g id="edge6" class="edge">
<title>zoptions_Preservation&#45;&gt;ABotIsotopes</title>
<path fill="none" stroke="#696969" d="M600.4118,-836.933C623.6137,-820.1475 659.7971,-794.9591 693,-776 890.2258,-663.3824 1135.0656,-554.911 1260.4791,-501.4715"/>
<polygon fill="#696969" stroke="#696969" points="1262.2021,-504.5422 1270.0349,-497.4078 1259.4627,-498.1005 1262.2021,-504.5422"/>
</g>
<!-- zoptions_Preservation&#45;&gt;ABotSamples -->
<g id="edge18" class="edge">
<title>zoptions_Preservation&#45;&gt;ABotSamples</title>
<path fill="none" stroke="#696969" d="M565.9478,-836.9509C545.5453,-789.921 497.8181,-661.7376 421,-582 390.6046,-550.4494 349.6917,-524.692 313.7534,-505.6127"/>
<polygon fill="#696969" stroke="#696969" points="315.218,-502.4292 304.7332,-500.9065 311.98,-508.6353 315.218,-502.4292"/>
</g>
<!-- zoptions_Preservation&#45;&gt;ABotSamples -->
<g id="edge19" class="edge">
<title>zoptions_Preservation&#45;&gt;ABotSamples</title>
<path fill="none" stroke="#696969" d="M574.5689,-836.9509C563.5453,-789.921 515.8181,-661.7376 439,-582 404.7708,-546.4699 357.2038,-518.2867 316.3489,-498.7138"/>
<polygon fill="#696969" stroke="#696969" points="317.7428,-495.5017 307.2032,-494.4212 314.7685,-501.8385 317.7428,-495.5017"/>
</g>
<!-- zoptions_Preservation&#45;&gt;C14Samples -->
<g id="edge41" class="edge">
<title>zoptions_Preservation&#45;&gt;C14Samples</title>
<path fill="none" stroke="#696969" d="M596.2527,-836.74C618.3132,-818.0154 655.4894,-789.7468 693,-776 831.5272,-725.2328 876.83,-760.0363 1023,-740 1159.6221,-721.2725 1317.2997,-694.1309 1413.0297,-677.0333"/>
<polygon fill="#696969" stroke="#696969" points="1413.7298,-680.4637 1422.9567,-675.2566 1412.4965,-673.5732 1413.7298,-680.4637"/>
</g>
<!-- zoptions_Preservation&#45;&gt;MaterialCulture -->
<g id="edge88" class="edge">
<title>zoptions_Preservation&#45;&gt;MaterialCulture</title>
<path fill="none" stroke="#696969" d="M595.2053,-836.7099C616.9466,-817.3703 654.3902,-788.0293 693,-776 880.8803,-717.4637 4040.0155,-766.5809 4235,-740 4307.6352,-730.0981 4387.8575,-707.9593 4446.4432,-689.6302"/>
<polygon fill="#696969" stroke="#696969" points="4447.5385,-692.9548 4456.0214,-686.6072 4445.4316,-686.2793 4447.5385,-692.9548"/>
</g>
<!-- zoptions_TaxaList -->
<g id="node31" class="node">
<title>zoptions_TaxaList</title>
<polygon fill="#add8e6" stroke="#000000" points="2770,-873 2554,-873 2554,-837 2770,-837 2770,-873"/>
<text text-anchor="middle" x="2662" y="-850.5" font-family="Times,serif" font-size="15.00" fill="#000000">zoptions_TaxaList</text>
</g>
<!-- zoptions_TaxaList&#45;&gt;ABotIsotopes -->
<g id="edge7" class="edge">
<title>zoptions_TaxaList&#45;&gt;ABotIsotopes</title>
<path fill="none" stroke="#696969" d="M2655.0309,-836.8223C2646.5005,-814.2759 2631.853,-774.5825 2621,-740 2599.2086,-670.5628 2633.7109,-628.8262 2578,-582 2490.6745,-508.6012 1701.7586,-477.9202 1432.5455,-469.5278"/>
<polygon fill="#696969" stroke="#696969" points="1432.5241,-466.0256 1422.4208,-469.2151 1432.3079,-473.0222 1432.5241,-466.0256"/>
</g>
<!-- zoptions_TaxaList&#45;&gt;ABotSamples -->
<g id="edge20" class="edge">
<title>zoptions_TaxaList&#45;&gt;ABotSamples</title>
<path fill="none" stroke="#696969" d="M2644.6839,-836.6461C2625.4104,-815.1713 2594.7751,-777.7281 2578,-740 2548.8544,-674.45 2600.034,-628.0166 2545,-582 2489.9989,-536.0109 1326.5957,-549.7639 1255,-546 909.3903,-527.8309 499.0872,-491.6763 321.8308,-475.3475"/>
<polygon fill="#696969" stroke="#696969" points="322.0528,-471.8532 311.7734,-474.4192 321.4094,-478.8235 322.0528,-471.8532"/>
</g>
<!-- zoptions_TaxaList&#45;&gt;C14Ghosts -->
<g id="edge21" class="edge">
<title>zoptions_TaxaList&#45;&gt;C14Ghosts</title>
<path fill="none" stroke="#696969" d="M2638.568,-836.749C2609.5539,-811.5307 2559.3424,-764.7267 2519.0218,-725.7571"/>
<polygon fill="#696969" stroke="#696969" points="2521.2322,-723.0252 2511.6155,-718.5787 2516.3604,-728.0517 2521.2322,-723.0252"/>
</g>
<!-- zoptions_TaxaList&#45;&gt;C14Ghosts -->
<g id="edge22" class="edge">
<title>zoptions_TaxaList&#45;&gt;C14Ghosts</title>
<path fill="none" stroke="#696969" d="M2646.8602,-836.749C2621.1894,-810.0886 2568.2236,-759.3031 2524.6952,-719.1539"/>
<polygon fill="#696969" stroke="#696969" points="2526.9722,-716.4929 2517.2425,-712.2994 2522.2335,-721.6451 2526.9722,-716.4929"/>
</g>
<!-- zoptions_TaxaList&#45;&gt;C14Samples -->
<g id="edge44" class="edge">
<title>zoptions_TaxaList&#45;&gt;C14Samples</title>
<path fill="none" stroke="#696969" d="M2642.7307,-836.9106C2620.9333,-817.7466 2583.4409,-788.5586 2545,-776 2342.9161,-709.9794 1786.0648,-819.7629 1589,-740 1579.8651,-736.3026 1571.062,-731.2144 1562.7874,-725.3869"/>
<polygon fill="#696969" stroke="#696969" points="1564.8011,-722.5223 1554.6964,-719.3371 1560.6093,-728.1285 1564.8011,-722.5223"/>
</g>
<!-- zoptions_TaxaList&#45;&gt;FaunalBiometrics -->
<g id="edge49" class="edge">
<title>zoptions_TaxaList&#45;&gt;FaunalBiometrics</title>
<path fill="none" stroke="#696969" d="M2642.2574,-836.7858C2620.3391,-817.8103 2583.0136,-789.0625 2545,-776 2322.5553,-699.5619 2233.6609,-831.5561 2017,-740 2007.9224,-736.164 1999.1551,-730.9892 1990.901,-725.1124"/>
<polygon fill="#696969" stroke="#696969" points="1992.9177,-722.2496 1982.8254,-719.0252 1988.7042,-727.8395 1992.9177,-722.2496"/>
</g>
<!-- zoptions_TaxaList&#45;&gt;FaunalIsotopes -->
<g id="edge56" class="edge">
<title>zoptions_TaxaList&#45;&gt;FaunalIsotopes</title>
<path fill="none" stroke="#696969" d="M2666.4216,-836.749C2671.4133,-816.1452 2679.8957,-781.1325 2687.9818,-747.7559"/>
<polygon fill="#696969" stroke="#696969" points="2691.408,-748.4781 2690.3611,-737.9352 2684.6048,-746.8299 2691.408,-748.4781"/>
</g>
<!-- zoptions_TaxaList&#45;&gt;FaunalSpecies -->
<g id="edge59" class="edge">
<title>zoptions_TaxaList&#45;&gt;FaunalSpecies</title>
<path fill="none" stroke="#696969" d="M2683.6585,-836.8474C2710.4479,-814.3264 2757.3689,-774.6585 2797,-740 2803.9232,-733.9454 2811.1181,-727.5908 2818.2776,-721.2265"/>
<polygon fill="#696969" stroke="#696969" points="2820.8796,-723.5959 2826.018,-714.3304 2816.2231,-718.3693 2820.8796,-723.5959"/>
</g>
<!-- zoptions_TaxaList&#45;&gt;MaterialCulture -->
<g id="edge82" class="edge">
<title>zoptions_TaxaList&#45;&gt;MaterialCulture</title>
<path fill="none" stroke="#696969" d="M2738.9262,-836.917C2827.6407,-818.0538 2977.9159,-789.4013 3109,-776 3603.1266,-725.4832 3734.6195,-812.5144 4226,-740 4301.263,-728.8932 4384.8292,-705.5351 4445.4936,-687.0836"/>
<polygon fill="#696969" stroke="#696969" points="4446.8684,-690.3232 4455.4069,-684.0506 4444.8204,-683.6295 4446.8684,-690.3232"/>
</g>
<!-- zoptions_TaxaList&#45;&gt;MaterialCulture -->
<g id="edge94" class="edge">
<title>zoptions_TaxaList&#45;&gt;MaterialCulture</title>
<path fill="none" stroke="#696969" d="M2752.1938,-836.917C2845.6407,-818.0538 2995.9159,-789.4013 3127,-776 3621.1266,-725.4832 3752.6195,-812.5144 4244,-740 4313.6364,-729.7236 4390.3809,-708.9591 4447.03,-691.297"/>
<polygon fill="#696969" stroke="#696969" points="4448.1681,-694.6081 4456.6547,-688.2654 4446.0651,-687.9315 4448.1681,-694.6081"/>
</g>
<!-- zoptions_ABotRecoveryMethods -->
<g id="node32" class="node">
<title>zoptions_ABotRecoveryMethods</title>
<polygon fill="#add8e6" stroke="#000000" points="450,-873 234,-873 234,-837 450,-837 450,-873"/>
<text text-anchor="middle" x="342" y="-850.5" font-family="Times,serif" font-size="15.00" fill="#000000">zoptions_ABotRecoveryMethods</text>
</g>
<!-- zoptions_ABotRecoveryMethods&#45;&gt;ABotPhases -->
<g id="edge9" class="edge">
<title>zoptions_ABotRecoveryMethods&#45;&gt;ABotPhases</title>
<path fill="none" stroke="#696969" d="M329.5616,-836.749C323.7634,-816.1481 321.193,-781.1425 321.8504,-747.7703"/>
<polygon fill="#696969" stroke="#696969" points="325.3575,-747.5837 322.1581,-737.4836 318.3606,-747.3744 325.3575,-747.5837"/>
</g>
<!-- zoptions_ABotRecoveryMethods&#45;&gt;ABotPhases -->
<g id="edge10" class="edge">
<title>zoptions_ABotRecoveryMethods&#45;&gt;ABotPhases</title>
<path fill="none" stroke="#696969" d="M337.8539,-836.749C335.9612,-816.5755 335.1003,-782.5889 335.2712,-749.8493"/>
<polygon fill="#696969" stroke="#696969" points="338.7719,-749.775 335.3574,-739.7455 331.7721,-749.7153 338.7719,-749.775"/>
</g>
<!-- zoptions_ABotRecoveryMethods&#45;&gt;ABotPhases -->
<g id="edge11" class="edge">
<title>zoptions_ABotRecoveryMethods&#45;&gt;ABotPhases</title>
<path fill="none" stroke="#696969" d="M346.1461,-836.749C348.0388,-816.5755 348.8997,-782.5889 348.7288,-749.8493"/>
<polygon fill="#696969" stroke="#696969" points="352.2279,-749.7153 348.6426,-739.7455 345.2281,-749.775 352.2279,-749.7153"/>
</g>
<!-- zoptions_ABotRecoveryMethods&#45;&gt;ABotPhases -->
<g id="edge12" class="edge">
<title>zoptions_ABotRecoveryMethods&#45;&gt;ABotPhases</title>
<path fill="none" stroke="#696969" d="M354.4384,-836.749C360.2366,-816.1481 362.807,-781.1425 362.1496,-747.7703"/>
<polygon fill="#696969" stroke="#696969" points="365.6394,-747.3744 361.8419,-737.4836 358.6425,-747.5837 365.6394,-747.3744"/>
</g>
<!-- zoptions_C14laboratories -->
<g id="node33" class="node">
<title>zoptions_C14laboratories</title>
<polygon fill="#add8e6" stroke="#000000" points="1658,-873 1442,-873 1442,-837 1658,-837 1658,-873"/>
<text text-anchor="middle" x="1550" y="-850.5" font-family="Times,serif" font-size="15.00" fill="#000000">zoptions_C14laboratories</text>
</g>
<!-- zoptions_C14laboratories&#45;&gt;C14Ghosts -->
<g id="edge28" class="edge">
<title>zoptions_C14laboratories&#45;&gt;C14Ghosts</title>
<path fill="none" stroke="#696969" d="M1569.7006,-836.6616C1591.5828,-817.5799 1628.8778,-788.742 1667,-776 1815.1487,-726.4827 2224.6077,-799.5892 2369,-740 2378.1096,-736.2406 2386.8968,-731.1136 2395.1624,-725.264"/>
<polygon fill="#696969" stroke="#696969" points="2397.3489,-727.9991 2403.2466,-719.1975 2393.1474,-722.4002 2397.3489,-727.9991"/>
</g>
<!-- zoptions_C14laboratories&#45;&gt;C14Samples -->
<g id="edge37" class="edge">
<title>zoptions_C14laboratories&#45;&gt;C14Samples</title>
<path fill="none" stroke="#696969" d="M1541.2441,-836.749C1534.1962,-816.4027 1524.6489,-782.0056 1516.5047,-749.0083"/>
<polygon fill="#696969" stroke="#696969" points="1519.9053,-748.1797 1514.1377,-739.2924 1513.1043,-749.8367 1519.9053,-748.1797"/>
</g>
<!-- zoptions_C14laboratories&#45;&gt;C14Samples -->
<g id="edge38" class="edge">
<title>zoptions_C14laboratories&#45;&gt;C14Samples</title>
<path fill="none" stroke="#696969" d="M1549.5363,-836.749C1546.2108,-815.8018 1538.0111,-779.9614 1529.196,-746.0886"/>
<polygon fill="#696969" stroke="#696969" points="1532.5047,-744.909 1526.5716,-736.1313 1525.7359,-746.6931 1532.5047,-744.909"/>
</g>
<!-- zoptions_Types -->
<g id="node34" class="node">
<title>zoptions_Types</title>
<polygon fill="#add8e6" stroke="#000000" points="1892,-873 1676,-873 1676,-837 1892,-837 1892,-873"/>
<text text-anchor="middle" x="1784" y="-850.5" font-family="Times,serif" font-size="15.00" fill="#000000">zoptions_Types</text>
</g>
<!-- zoptions_Types&#45;&gt;C14Ghosts -->
<g id="edge29" class="edge">
<title>zoptions_Types&#45;&gt;C14Ghosts</title>
<path fill="none" stroke="#696969" d="M1803.7648,-836.8497C1825.702,-817.929 1863.0436,-789.2277 1901,-776 2097.9947,-707.3482 2177.1934,-822.0379 2369,-740 2378.0609,-736.1246 2386.8176,-730.9251 2395.0658,-725.0343"/>
<polygon fill="#696969" stroke="#696969" points="2397.2679,-727.7573 2403.1369,-718.9365 2393.0482,-722.1721 2397.2679,-727.7573"/>
</g>
<!-- zoptions_Types&#45;&gt;C14Samples -->
<g id="edge45" class="edge">
<title>zoptions_Types&#45;&gt;C14Samples</title>
<path fill="none" stroke="#696969" d="M1759.6372,-836.8466C1736.47,-820 1700.31,-794.7703 1667,-776 1633.7368,-757.256 1620.8953,-760.9873 1589,-740 1581.1909,-734.8616 1573.3759,-729.052 1565.8042,-722.9724"/>
<polygon fill="#696969" stroke="#696969" points="1567.638,-719.9483 1557.6953,-716.2886 1563.1856,-725.3498 1567.638,-719.9483"/>
</g>
<!-- zoptions_Types&#45;&gt;PhaseTypes -->
<g id="edge103" class="edge">
<title>zoptions_Types&#45;&gt;PhaseTypes</title>
<path fill="none" stroke="#696969" d="M1773.9337,-836.749C1761.6081,-814.4017 1739.9335,-775.1037 1720.2014,-739.3277"/>
<polygon fill="#696969" stroke="#696969" points="1723.1279,-737.3866 1715.2335,-730.3205 1716.9983,-740.7673 1723.1279,-737.3866"/>
</g>
<!-- zoptions_C14method -->
<g id="node35" class="node">
<title>zoptions_C14method</title>
<polygon fill="#add8e6" stroke="#000000" points="1190,-873 974,-873 974,-837 1190,-837 1190,-873"/>
<text text-anchor="middle" x="1082" y="-850.5" font-family="Times,serif" font-size="15.00" fill="#000000">zoptions_C14method</text>
</g>
<!-- zoptions_C14method&#45;&gt;C14Samples -->
<g id="edge39" class="edge">
<title>zoptions_C14method&#45;&gt;C14Samples</title>
<path fill="none" stroke="#696969" d="M1105.2004,-836.9771C1128.1187,-819.7541 1164.6312,-793.8434 1199,-776 1269.3053,-739.4993 1353.927,-708.2788 1415.6856,-687.6176"/>
<polygon fill="#696969" stroke="#696969" points="1417.0082,-690.8664 1425.3955,-684.3931 1414.802,-684.2232 1417.0082,-690.8664"/>
</g>
<!-- zoptions_Material -->
<g id="node36" class="node">
<title>zoptions_Material</title>
<polygon fill="#add8e6" stroke="#000000" points="1424,-873 1208,-873 1208,-837 1424,-837 1424,-873"/>
<text text-anchor="middle" x="1316" y="-850.5" font-family="Times,serif" font-size="15.00" fill="#000000">zoptions_Material</text>
</g>
<!-- zoptions_Material&#45;&gt;C14Samples -->
<g id="edge40" class="edge">
<title>zoptions_Material&#45;&gt;C14Samples</title>
<path fill="none" stroke="#696969" d="M1333.4044,-836.749C1357.3529,-811.6353 1401.7153,-765.1148 1438.7842,-726.2426"/>
<polygon fill="#696969" stroke="#696969" points="1441.7242,-728.2311 1446.0925,-718.5787 1436.6583,-723.4002 1441.7242,-728.2311"/>
</g>
<!-- zoptions_Quantity -->
<g id="node37" class="node">
<title>zoptions_Quantity</title>
<polygon fill="#add8e6" stroke="#000000" points="918,-873 702,-873 702,-837 918,-837 918,-873"/>
<text text-anchor="middle" x="810" y="-850.5" font-family="Times,serif" font-size="15.00" fill="#000000">zoptions_Quantity</text>
</g>
<!-- zoptions_Quantity&#45;&gt;C14Samples -->
<g id="edge42" class="edge">
<title>zoptions_Quantity&#45;&gt;C14Samples</title>
<path fill="none" stroke="#696969" d="M832.3905,-836.7719C855.8245,-818.627 894.3792,-791.3339 932,-776 1093.7091,-710.0887 1297.1808,-680.7174 1411.8017,-668.6173"/>
<polygon fill="#696969" stroke="#696969" points="1412.347,-672.0796 1421.9334,-667.5684 1411.6261,-665.1168 1412.347,-672.0796"/>
</g>
<!-- zoptions_SkeletalElements -->
<g id="node38" class="node">
<title>zoptions_SkeletalElements</title>
<polygon fill="#add8e6" stroke="#000000" points="2126,-873 1910,-873 1910,-837 2126,-837 2126,-873"/>
<text text-anchor="middle" x="2018" y="-850.5" font-family="Times,serif" font-size="15.00" fill="#000000">zoptions_SkeletalElements</text>
</g>
<!-- zoptions_SkeletalElements&#45;&gt;C14Samples -->
<g id="edge43" class="edge">
<title>zoptions_SkeletalElements&#45;&gt;C14Samples</title>
<path fill="none" stroke="#696969" d="M1997.7303,-836.7862C1975.6557,-818.1 1938.4677,-789.8633 1901,-776 1770.0873,-727.5613 1716.2713,-797.3277 1589,-740 1580.2472,-736.0574 1571.756,-730.9195 1563.7229,-725.1546"/>
<polygon fill="#696969" stroke="#696969" points="1565.6099,-722.1932 1555.5256,-718.9437 1561.3825,-727.7726 1565.6099,-722.1932"/>
</g>
<!-- zoptions_SkeletalElements&#45;&gt;FaunalBiometrics -->
<g id="edge48" class="edge">
<title>zoptions_SkeletalElements&#45;&gt;FaunalBiometrics</title>
<path fill="none" stroke="#696969" d="M2009.6271,-836.749C1999.6568,-815.0159 1982.3317,-777.2511 1966.2906,-742.2852"/>
<polygon fill="#696969" stroke="#696969" points="1969.3782,-740.6216 1962.0272,-732.9918 1963.0158,-743.5404 1969.3782,-740.6216"/>
</g>
<!-- zoptions_SkeletalElements&#45;&gt;FaunalIsotopes -->
<g id="edge55" class="edge">
<title>zoptions_SkeletalElements&#45;&gt;FaunalIsotopes</title>
<path fill="none" stroke="#696969" d="M2037.7927,-836.9291C2059.7538,-818.0763 2097.1156,-789.4326 2135,-776 2307.4067,-714.8701 2368.6184,-788.4817 2545,-740 2574.3037,-731.9454 2604.733,-718.795 2631.3074,-705.5136"/>
<polygon fill="#696969" stroke="#696969" points="2633.2117,-708.4718 2640.5382,-700.8185 2630.0381,-702.2325 2633.2117,-708.4718"/>
</g>
<!-- zoptions_SkeletalElements&#45;&gt;HumanIsotopes -->
<g id="edge77" class="edge">
<title>zoptions_SkeletalElements&#45;&gt;HumanIsotopes</title>
<path fill="none" stroke="#696969" d="M1994.3409,-836.691C1971.3815,-819.4989 1935.1025,-793.8242 1901,-776 1861.7197,-755.4695 1833.0529,-776.5623 1808,-740 1768.3072,-682.0721 1763.3162,-636.1712 1808,-582 2002.1009,-346.687 3006.8008,-288.4246 3313.7976,-276.0121"/>
<polygon fill="#696969" stroke="#696969" points="3314.1331,-279.5017 3323.986,-275.6067 3313.8547,-272.5072 3314.1331,-279.5017"/>
</g>
<!-- zoptions_SkeletalElements&#45;&gt;Strontium -->
<g id="edge115" class="edge">
<title>zoptions_SkeletalElements&#45;&gt;Strontium</title>
<path fill="none" stroke="#696969" d="M1991.7806,-836.7088C1968.2423,-820.4295 1932.628,-796.146 1901,-776 1874.7706,-759.2928 1856.3221,-767.0618 1841,-740 1806.4016,-678.8926 1794.9003,-634.9715 1841,-582 1848.5949,-573.2729 3479.6373,-354.1757 3491,-352 3572.0309,-336.4844 3663.2527,-313.6718 3728.0339,-296.5449"/>
<polygon fill="#696969" stroke="#696969" points="3729.0289,-299.9021 3737.7965,-293.954 3727.2333,-293.1363 3729.0289,-299.9021"/>
</g>
<!-- zoptions_FaunalMeasurement -->
<g id="node39" class="node">
<title>zoptions_FaunalMeasurement</title>
<polygon fill="#add8e6" stroke="#000000" points="2360,-873 2144,-873 2144,-837 2360,-837 2360,-873"/>
<text text-anchor="middle" x="2252" y="-850.5" font-family="Times,serif" font-size="15.00" fill="#000000">zoptions_FaunalMeasurement</text>
</g>
<!-- zoptions_FaunalMeasurement&#45;&gt;FaunalBiometrics -->
<g id="edge47" class="edge">
<title>zoptions_FaunalMeasurement&#45;&gt;FaunalBiometrics</title>
<path fill="none" stroke="#696969" d="M2229.4864,-836.7942C2206.7893,-819.1872 2170.1745,-792.7751 2135,-776 2085.5092,-752.3974 2064.7503,-766.9506 2017,-740 2008.8592,-735.4053 2000.8304,-729.9459 1993.1314,-724.0749"/>
<polygon fill="#696969" stroke="#696969" points="1994.9279,-721.0327 1984.9169,-717.564 1990.5798,-726.5185 1994.9279,-721.0327"/>
</g>
<!-- zoptions_GraveConstruction -->
<g id="node40" class="node">
<title>zoptions_GraveConstruction</title>
<polygon fill="#add8e6" stroke="#000000" points="3740,-679 3524,-679 3524,-643 3740,-643 3740,-679"/>
<text text-anchor="middle" x="3632" y="-656.5" font-family="Times,serif" font-size="15.00" fill="#000000">zoptions_GraveConstruction</text>
</g>
<!-- zoptions_GraveConstruction&#45;&gt;GraveConstruction -->
<g id="edge61" class="edge">
<title>zoptions_GraveConstruction&#45;&gt;GraveConstruction</title>
<path fill="none" stroke="#696969" d="M3636.3276,-642.749C3641.213,-622.1452 3649.515,-587.1325 3657.429,-553.7559"/>
<polygon fill="#696969" stroke="#696969" points="3660.856,-554.4729 3659.7576,-543.9352 3654.0448,-552.8578 3660.856,-554.4729"/>
</g>
<!-- zoptions_AgeCategorical -->
<g id="node41" class="node">
<title>zoptions_AgeCategorical</title>
<polygon fill="#add8e6" stroke="#000000" points="4226,-679 4010,-679 4010,-643 4226,-643 4226,-679"/>
<text text-anchor="middle" x="4118" y="-656.5" font-family="Times,serif" font-size="15.00" fill="#000000">zoptions_AgeCategorical</text>
</g>
<!-- zoptions_AgeCategorical&#45;&gt;GraveIndividuals -->
<g id="edge65" class="edge">
<title>zoptions_AgeCategorical&#45;&gt;GraveIndividuals</title>
<path fill="none" stroke="#696969" d="M4123.3624,-642.749C4129.4666,-621.9735 4139.8751,-586.548 4149.7549,-552.9219"/>
<polygon fill="#696969" stroke="#696969" points="4153.1996,-553.6135 4152.6606,-543.0324 4146.4835,-551.6401 4153.1996,-553.6135"/>
</g>
<!-- zoptions_Cultures -->
<g id="node42" class="node">
<title>zoptions_Cultures</title>
<polygon fill="#add8e6" stroke="#000000" points="2667,-1067 2451,-1067 2451,-1031 2667,-1031 2667,-1067"/>
<text text-anchor="middle" x="2559" y="-1044.5" font-family="Times,serif" font-size="15.00" fill="#000000">zoptions_Cultures</text>
</g>
<!-- zoptions_Cultures&#45;&gt;GraveIndividuals -->
<g id="edge66" class="edge">
<title>zoptions_Cultures&#45;&gt;GraveIndividuals</title>
<path fill="none" stroke="#696969" d="M2667.0414,-1043.1357C2922.9447,-1028.4361 3550.5391,-987.3427 3629,-934 3694.5975,-889.4027 3645.4642,-819.185 3712,-776 3816.4144,-708.2299 4185.8551,-830.8047 4271,-740 4319.0325,-688.7746 4294.9336,-648.0177 4271,-582 4264.131,-563.0529 4252.6242,-545.0391 4239.9166,-529.1297"/>
<polygon fill="#696969" stroke="#696969" points="4242.2583,-526.4706 4233.1801,-521.0082 4236.8705,-530.9395 4242.2583,-526.4706"/>
</g>
<!-- zoptions_Cultures&#45;&gt;Phases -->
<g id="edge105" class="edge">
<title>zoptions_Cultures&#45;&gt;Phases</title>
<path fill="none" stroke="#696969" d="M2541.1118,-1030.749C2525.9778,-1009.5354 2505.0948,-973.0474 2487.6701,-938.7972"/>
<polygon fill="#696969" stroke="#696969" points="2490.7064,-937.0444 2483.0882,-929.6814 2484.452,-940.1881 2490.7064,-937.0444"/>
</g>
<!-- zoptions_Cultures&#45;&gt;Phases -->
<g id="edge106" class="edge">
<title>zoptions_Cultures&#45;&gt;Phases</title>
<path fill="none" stroke="#696969" d="M2549.4041,-1030.749C2537.7459,-1008.5756 2517.3137,-969.7144 2498.6221,-934.1636"/>
<polygon fill="#696969" stroke="#696969" points="2501.6656,-932.4311 2493.9139,-925.2088 2495.4697,-935.6888 2501.6656,-932.4311"/>
</g>
<!-- zoptions_Cultures&#45;&gt;Phases -->
<g id="edge107" class="edge">
<title>zoptions_Cultures&#45;&gt;Phases</title>
<path fill="none" stroke="#696969" d="M2557.6964,-1030.749C2549.7536,-1007.2591 2529.1663,-965.041 2508.4351,-927.8707"/>
<polygon fill="#696969" stroke="#696969" points="2511.4152,-926.0299 2503.4528,-919.0405 2505.3187,-929.4698 2511.4152,-926.0299"/>
</g>
<!-- zoptions_Health -->
<g id="node43" class="node">
<title>zoptions_Health</title>
<polygon fill="#add8e6" stroke="#000000" points="4630,-485 4414,-485 4414,-449 4630,-449 4630,-485"/>
<text text-anchor="middle" x="4522" y="-462.5" font-family="Times,serif" font-size="15.00" fill="#000000">zoptions_Health</text>
</g>
<!-- zoptions_Health&#45;&gt;Health -->
<g id="edge73" class="edge">
<title>zoptions_Health&#45;&gt;Health</title>
<path fill="none" stroke="#696969" d="M4522,-448.749C4522,-428.661 4522,-394.8766 4522,-362.2656"/>
<polygon fill="#696969" stroke="#696969" points="4525.5001,-362.199 4522,-352.1991 4518.5001,-362.1991 4525.5001,-362.199"/>
</g>
<!-- zoptions_MaterialCulture_Material -->
<g id="node44" class="node">
<title>zoptions_MaterialCulture_Material</title>
<polygon fill="#add8e6" stroke="#000000" points="4873,-873 4657,-873 4657,-837 4873,-837 4873,-873"/>
<text text-anchor="middle" x="4765" y="-850.5" font-family="Times,serif" font-size="15.00" fill="#000000">zoptions_MaterialCulture_Material</text>
</g>
<!-- zoptions_MaterialCulture_Material&#45;&gt;MaterialCulture -->
<g id="edge83" class="edge">
<title>zoptions_MaterialCulture_Material&#45;&gt;MaterialCulture</title>
<path fill="none" stroke="#696969" d="M4742.9858,-836.749C4710.5465,-809.8548 4648.4953,-758.4106 4599.8734,-718.1002"/>
<polygon fill="#696969" stroke="#696969" points="4601.8176,-715.1656 4591.8854,-711.4776 4597.3499,-720.5545 4601.8176,-715.1656"/>
</g>
<!-- zoptions_MaterialCulture_MaterialType -->
<g id="node45" class="node">
<title>zoptions_MaterialCulture_MaterialType</title>
<polygon fill="#add8e6" stroke="#000000" points="5107,-873 4891,-873 4891,-837 5107,-837 5107,-873"/>
<text text-anchor="middle" x="4999" y="-850.5" font-family="Times,serif" font-size="15.00" fill="#000000">zoptions_MaterialCulture_MaterialType</text>
</g>
<!-- zoptions_MaterialCulture_MaterialType&#45;&gt;MaterialCulture -->
<g id="edge84" class="edge">
<title>zoptions_MaterialCulture_MaterialType&#45;&gt;MaterialCulture</title>
<path fill="none" stroke="#696969" d="M4976.4116,-836.9491C4953.6576,-819.4597 4917.0007,-793.1347 4882,-776 4795.915,-733.8568 4690.6984,-701.7221 4618.0372,-682.2753"/>
<polygon fill="#696969" stroke="#696969" points="4618.5689,-678.7954 4608.0058,-679.6157 4616.7749,-685.5616 4618.5689,-678.7954"/>
</g>
<!-- zoptions_MaterialCulture_Morphology -->
<g id="node46" class="node">
<title>zoptions_MaterialCulture_Morphology</title>
<polygon fill="#add8e6" stroke="#000000" points="5341,-873 5125,-873 5125,-837 5341,-837 5341,-873"/>
<text text-anchor="middle" x="5233" y="-850.5" font-family="Times,serif" font-size="15.00" fill="#000000">zoptions_MaterialCulture_Morphology</text>
</g>
<!-- zoptions_MaterialCulture_Morphology&#45;&gt;MaterialCulture -->
<g id="edge85" class="edge">
<title>zoptions_MaterialCulture_Morphology&#45;&gt;MaterialCulture</title>
<path fill="none" stroke="#696969" d="M5211.6749,-836.6951C5189.319,-818.4891 5152.4366,-791.1481 5116,-776 4949.0681,-706.5997 4737.6115,-678.3674 4620.0894,-667.4329"/>
<polygon fill="#696969" stroke="#696969" points="4620.3323,-663.9407 4610.0564,-666.5203 4619.6982,-670.9119 4620.3323,-663.9407"/>
</g>
<!-- zoptions_MaterialCulture_MorphologySection -->
<g id="node47" class="node">
<title>zoptions_MaterialCulture_MorphologySection</title>
<polygon fill="#add8e6" stroke="#000000" points="5575,-873 5359,-873 5359,-837 5575,-837 5575,-873"/>
<text text-anchor="middle" x="5467" y="-850.5" font-family="Times,serif" font-size="15.00" fill="#000000">zoptions_MaterialCulture_MorphologySection</text>
</g>
<!-- zoptions_MaterialCulture_MorphologySection&#45;&gt;MaterialCulture -->
<g id="edge86" class="edge">
<title>zoptions_MaterialCulture_MorphologySection&#45;&gt;MaterialCulture</title>
<path fill="none" stroke="#696969" d="M5446.6616,-836.9684C5424.5296,-818.4344 5387.2941,-790.3236 5350,-776 5217.8751,-725.2546 4803.5291,-684.4654 4620.0028,-668.3931"/>
<polygon fill="#696969" stroke="#696969" points="4620.1108,-664.8894 4609.8448,-667.5082 4619.5032,-671.863 4620.1108,-664.8894"/>
</g>
<!-- zoptions_MaterialCulture_Object -->
<g id="node48" class="node">
<title>zoptions_MaterialCulture_Object</title>
<polygon fill="#add8e6" stroke="#000000" points="3937,-873 3721,-873 3721,-837 3937,-837 3937,-873"/>
<text text-anchor="middle" x="3829" y="-850.5" font-family="Times,serif" font-size="15.00" fill="#000000">zoptions_MaterialCulture_Object</text>
</g>
<!-- zoptions_MaterialCulture_Object&#45;&gt;MaterialCulture -->
<g id="edge87" class="edge">
<title>zoptions_MaterialCulture_Object&#45;&gt;MaterialCulture</title>
<path fill="none" stroke="#696969" d="M3848.7553,-836.8223C3870.6843,-817.8781 3908.019,-789.1568 3946,-776 4153.1733,-704.2341 4235.097,-823.0751 4438,-740 4448.1319,-735.8517 4457.9631,-730.1587 4467.2021,-723.7139"/>
<polygon fill="#696969" stroke="#696969" points="4469.527,-726.3489 4475.5121,-717.6065 4465.3815,-720.7084 4469.527,-726.3489"/>
</g>
<!-- zoptions_DecorStyle -->
<g id="node49" class="node">
<title>zoptions_DecorStyle</title>
<polygon fill="#add8e6" stroke="#000000" points="4171,-873 3955,-873 3955,-837 4171,-837 4171,-873"/>
<text text-anchor="middle" x="4063" y="-850.5" font-family="Times,serif" font-size="15.00" fill="#000000">zoptions_DecorStyle</text>
</g>
<!-- zoptions_DecorStyle&#45;&gt;MaterialCulture -->
<g id="edge89" class="edge">
<title>zoptions_DecorStyle&#45;&gt;MaterialCulture</title>
<path fill="none" stroke="#696969" d="M4083.3359,-836.962C4105.4659,-818.4227 4142.6997,-790.3075 4180,-776 4288.0981,-734.5362 4332.3515,-787.3586 4438,-740 4447.9164,-735.5548 4457.5929,-729.7191 4466.7273,-723.2286"/>
<polygon fill="#696969" stroke="#696969" points="4469.0227,-725.8832 4474.9551,-717.1049 4464.8433,-720.2678 4469.0227,-725.8832"/>
</g>
<!-- zoptions_DecorTechn -->
<g id="node50" class="node">
<title>zoptions_DecorTechn</title>
<polygon fill="#add8e6" stroke="#000000" points="4405,-873 4189,-873 4189,-837 4405,-837 4405,-873"/>
<text text-anchor="middle" x="4297" y="-850.5" font-family="Times,serif" font-size="15.00" fill="#000000">zoptions_DecorTechn</text>
</g>
<!-- zoptions_DecorTechn&#45;&gt;MaterialCulture -->
<g id="edge90" class="edge">
<title>zoptions_DecorTechn&#45;&gt;MaterialCulture</title>
<path fill="none" stroke="#696969" d="M4319.5803,-836.814C4347.5192,-814.2593 4396.4841,-774.5575 4438,-740 4446.1029,-733.2552 4454.57,-726.1473 4462.9534,-719.0724"/>
<polygon fill="#696969" stroke="#696969" points="4465.238,-721.7241 4470.616,-712.5956 4460.7193,-716.3779 4465.238,-721.7241"/>
</g>
<!-- zoptions_DecorTool -->
<g id="node51" class="node">
<title>zoptions_DecorTool</title>
<polygon fill="#add8e6" stroke="#000000" points="4639,-873 4423,-873 4423,-837 4639,-837 4639,-873"/>
<text text-anchor="middle" x="4531" y="-850.5" font-family="Times,serif" font-size="15.00" fill="#000000">zoptions_DecorTool</text>
</g>
<!-- zoptions_DecorTool&#45;&gt;MaterialCulture -->
<g id="edge91" class="edge">
<title>zoptions_DecorTool&#45;&gt;MaterialCulture</title>
<path fill="none" stroke="#696969" d="M4522.7077,-836.749C4518.9064,-816.49 4517.1861,-782.3006 4517.5469,-749.4332"/>
<polygon fill="#696969" stroke="#696969" points="4521.0488,-749.3525 4517.7257,-739.2924 4514.0499,-749.2291 4521.0488,-749.3525"/>
</g>
<!-- zoptions_DecorTool&#45;&gt;MaterialCulture -->
<g id="edge92" class="edge">
<title>zoptions_DecorTool&#45;&gt;MaterialCulture</title>
<path fill="none" stroke="#696969" d="M4531,-836.749C4531,-816.661 4531,-782.8766 4531,-750.2656"/>
<polygon fill="#696969" stroke="#696969" points="4534.5001,-750.199 4531,-740.1991 4527.5001,-750.1991 4534.5001,-750.199"/>
</g>
<!-- zoptions_DecorTool&#45;&gt;MaterialCulture -->
<g id="edge93" class="edge">
<title>zoptions_DecorTool&#45;&gt;MaterialCulture</title>
<path fill="none" stroke="#696969" d="M4539.2923,-836.749C4543.0936,-816.49 4544.8139,-782.3006 4544.4531,-749.4332"/>
<polygon fill="#696969" stroke="#696969" points="4547.9501,-749.2291 4544.2743,-739.2924 4540.9512,-749.3525 4547.9501,-749.2291"/>
</g>
<!-- zoptions_Periods -->
<g id="node52" class="node">
<title>zoptions_Periods</title>
<polygon fill="#add8e6" stroke="#000000" points="2257,-1067 2041,-1067 2041,-1031 2257,-1031 2257,-1067"/>
<text text-anchor="middle" x="2149" y="-1044.5" font-family="Times,serif" font-size="15.00" fill="#000000">zoptions_Periods</text>
</g>
<!-- zoptions_Periods&#45;&gt;Phases -->
<g id="edge108" class="edge">
<title>zoptions_Periods&#45;&gt;Phases</title>
<path fill="none" stroke="#696969" d="M2172.0936,-1030.7678C2194.9327,-1013.3897 2231.3882,-987.3674 2266,-970 2309.3429,-948.2515 2327.2555,-958.678 2369,-934 2377.047,-929.2429 2385.0153,-923.6789 2392.6783,-917.7456"/>
<polygon fill="#696969" stroke="#696969" points="2395.2506,-920.1693 2400.863,-911.1831 2390.8717,-914.708 2395.2506,-920.1693"/>
</g>
<!-- zoptions_Countries -->
<g id="node53" class="node">
<title>zoptions_Countries</title>
<polygon fill="#add8e6" stroke="#000000" points="2462,-1218 2246,-1218 2246,-1182 2462,-1182 2462,-1218"/>
<text text-anchor="middle" x="2354" y="-1195.5" font-family="Times,serif" font-size="15.00" fill="#000000">zoptions_Countries</text>
</g>
<!-- zoptions_Countries&#45;&gt;Sites -->
<g id="edge111" class="edge">
<title>zoptions_Countries&#45;&gt;Sites</title>
<path fill="none" stroke="#696969" d="M2354,-1181.7859C2354,-1170.4182 2354,-1154.8472 2354,-1138.3633"/>
<polygon fill="#696969" stroke="#696969" points="2357.5001,-1138.0111 2354,-1128.0112 2350.5001,-1138.0112 2357.5001,-1138.0111"/>
</g>
<!-- DataTable -->
<g id="node54" class="node">
<title>DataTable</title>
<ellipse fill="#ffa500" stroke="#000000" cx="2606" cy="-1200" rx="36" ry="36"/>
<text text-anchor="middle" x="2606" y="-1197" font-family="Times,serif" font-size="10.00" fill="#000000">DataTable</text>
</g>
<!-- LookUpTable -->
<g id="node55" class="node">
<title>LookUpTable</title>
<polygon fill="#add8e6" stroke="#000000" points="2552,-1218 2480,-1218 2480,-1182 2552,-1182 2552,-1218"/>
<text text-anchor="middle" x="2516" y="-1197" font-family="Times,serif" font-size="10.00" fill="#000000">LookUpTable</text>
</g>
</g>
</svg>

